<mxfile host="app.diagrams.net" modified="2024-07-06T06:29:22.600Z" agent="Mozilla/5.0 (Windows NT 10.0; Win64; x64) AppleWebKit/537.36 (KHTML, like Gecko) Chrome/126.0.0.0 Safari/537.36" etag="hJ_37If7Slo5jXJyqVa-" version="24.6.4" type="google">
  <diagram name="Page-1" id="KQ9DQmKoVBO_HvFHB_gi">
    <mxGraphModel grid="1" page="1" gridSize="10" guides="1" tooltips="1" connect="1" arrows="1" fold="1" pageScale="1" pageWidth="850" pageHeight="1100" math="0" shadow="0">
      <root>
        <mxCell id="0" />
        <mxCell id="1" parent="0" />
        <mxCell id="1gXEFUUZADcfgdOFNKRF-113" value="CCTV" style="rounded=1;whiteSpace=wrap;html=1;fillColor=none;labelPosition=center;verticalLabelPosition=top;align=center;verticalAlign=bottom;dashed=1;fontFamily=Times New Roman;shadow=0;textShadow=0;" vertex="1" parent="1">
          <mxGeometry x="610" y="290" width="80" height="190" as="geometry" />
        </mxCell>
        <mxCell id="1gXEFUUZADcfgdOFNKRF-88" value="Plumbing" style="rounded=1;whiteSpace=wrap;html=1;fillColor=none;labelPosition=center;verticalLabelPosition=top;align=center;verticalAlign=bottom;dashed=1;fontFamily=Times New Roman;shadow=0;textShadow=0;" vertex="1" parent="1">
          <mxGeometry x="40" y="335" width="99.5" height="100" as="geometry" />
        </mxCell>
        <mxCell id="1gXEFUUZADcfgdOFNKRF-138" style="edgeStyle=orthogonalEdgeStyle;curved=0;rounded=1;jumpStyle=arc;orthogonalLoop=1;jettySize=auto;html=1;entryX=1;entryY=0.5;entryDx=0;entryDy=0;strokeColor=default;strokeWidth=1;align=center;verticalAlign=middle;fontFamily=Times New Roman;fontSize=11;fontColor=default;labelBackgroundColor=default;endArrow=classicThin;endFill=1;endSize=4;exitX=0.5;exitY=1;exitDx=0;exitDy=0;shadow=0;textShadow=0;" edge="1" parent="1" source="1gXEFUUZADcfgdOFNKRF-83" target="1gXEFUUZADcfgdOFNKRF-131">
          <mxGeometry relative="1" as="geometry">
            <Array as="points">
              <mxPoint x="565" y="385" />
            </Array>
          </mxGeometry>
        </mxCell>
        <mxCell id="1gXEFUUZADcfgdOFNKRF-151" style="edgeStyle=orthogonalEdgeStyle;curved=0;rounded=1;jumpStyle=arc;orthogonalLoop=1;jettySize=auto;html=1;entryX=0;entryY=0.5;entryDx=0;entryDy=0;strokeColor=default;strokeWidth=1;align=center;verticalAlign=middle;fontFamily=Times New Roman;fontSize=11;fontColor=default;labelBackgroundColor=default;endArrow=classicThin;endFill=1;endSize=4;shadow=0;textShadow=0;" edge="1" parent="1" source="1gXEFUUZADcfgdOFNKRF-83" target="1gXEFUUZADcfgdOFNKRF-113">
          <mxGeometry relative="1" as="geometry" />
        </mxCell>
        <mxCell id="1gXEFUUZADcfgdOFNKRF-83" value="EGSE" style="rounded=1;whiteSpace=wrap;html=1;fillColor=none;labelPosition=center;verticalLabelPosition=top;align=center;verticalAlign=bottom;dashed=1;fontFamily=Times New Roman;shadow=0;textShadow=0;" vertex="1" parent="1">
          <mxGeometry x="450" y="140" width="230" height="120" as="geometry" />
        </mxCell>
        <mxCell id="1gXEFUUZADcfgdOFNKRF-86" value="Control" style="rounded=1;whiteSpace=wrap;html=1;fillColor=none;labelPosition=center;verticalLabelPosition=top;align=center;verticalAlign=bottom;dashed=1;fontFamily=Times New Roman;shadow=0;textShadow=0;" vertex="1" parent="1">
          <mxGeometry x="700" y="140" width="120" height="120" as="geometry" />
        </mxCell>
        <mxCell id="1gXEFUUZADcfgdOFNKRF-146" style="edgeStyle=orthogonalEdgeStyle;curved=0;rounded=1;jumpStyle=arc;orthogonalLoop=1;jettySize=auto;html=1;entryX=0.75;entryY=0;entryDx=0;entryDy=0;strokeColor=default;strokeWidth=1;align=center;verticalAlign=middle;fontFamily=Times New Roman;fontSize=11;fontColor=default;labelBackgroundColor=default;endArrow=classicThin;endFill=1;endSize=4;shadow=0;textShadow=0;" edge="1" parent="1" source="1gXEFUUZADcfgdOFNKRF-78" target="1gXEFUUZADcfgdOFNKRF-140">
          <mxGeometry relative="1" as="geometry">
            <Array as="points">
              <mxPoint x="370" y="280" />
              <mxPoint x="255" y="280" />
            </Array>
          </mxGeometry>
        </mxCell>
        <mxCell id="1gXEFUUZADcfgdOFNKRF-78" value="Engine" style="rounded=1;whiteSpace=wrap;html=1;fillColor=none;labelPosition=center;verticalLabelPosition=top;align=center;verticalAlign=bottom;dashed=1;fontFamily=Times New Roman;shadow=0;textShadow=0;" vertex="1" parent="1">
          <mxGeometry x="310" y="140" width="120" height="120" as="geometry" />
        </mxCell>
        <mxCell id="1gXEFUUZADcfgdOFNKRF-144" style="edgeStyle=orthogonalEdgeStyle;curved=0;rounded=1;jumpStyle=arc;orthogonalLoop=1;jettySize=auto;html=1;entryX=0.5;entryY=0;entryDx=0;entryDy=0;strokeColor=default;strokeWidth=1;align=center;verticalAlign=middle;fontFamily=Times New Roman;fontSize=11;fontColor=default;labelBackgroundColor=default;endArrow=classicThin;endFill=1;endSize=4;shadow=0;textShadow=0;" edge="1" parent="1" source="1gXEFUUZADcfgdOFNKRF-77" target="1gXEFUUZADcfgdOFNKRF-140">
          <mxGeometry relative="1" as="geometry" />
        </mxCell>
        <mxCell id="1gXEFUUZADcfgdOFNKRF-77" value="Fuel Tank" style="rounded=1;whiteSpace=wrap;html=1;fillColor=none;labelPosition=center;verticalLabelPosition=top;align=center;verticalAlign=bottom;dashed=1;fontFamily=Times New Roman;shadow=0;textShadow=0;" vertex="1" parent="1">
          <mxGeometry x="170" y="140" width="120" height="120" as="geometry" />
        </mxCell>
        <mxCell id="1gXEFUUZADcfgdOFNKRF-145" style="edgeStyle=orthogonalEdgeStyle;curved=0;rounded=1;jumpStyle=arc;orthogonalLoop=1;jettySize=auto;html=1;entryX=0.25;entryY=0;entryDx=0;entryDy=0;strokeColor=default;strokeWidth=1;align=center;verticalAlign=middle;fontFamily=Times New Roman;fontSize=11;fontColor=default;labelBackgroundColor=default;endArrow=classicThin;endFill=1;endSize=4;shadow=0;textShadow=0;" edge="1" parent="1" source="1gXEFUUZADcfgdOFNKRF-72" target="1gXEFUUZADcfgdOFNKRF-140">
          <mxGeometry relative="1" as="geometry">
            <Array as="points">
              <mxPoint x="90" y="280" />
              <mxPoint x="205" y="280" />
            </Array>
          </mxGeometry>
        </mxCell>
        <mxCell id="1gXEFUUZADcfgdOFNKRF-72" value="Pressurant" style="rounded=1;whiteSpace=wrap;html=1;fillColor=none;labelPosition=center;verticalLabelPosition=top;align=center;verticalAlign=bottom;dashed=1;fontFamily=Times New Roman;shadow=0;textShadow=0;" vertex="1" parent="1">
          <mxGeometry x="30" y="140" width="120" height="120" as="geometry" />
        </mxCell>
        <mxCell id="1gXEFUUZADcfgdOFNKRF-80" value="" style="edgeStyle=orthogonalEdgeStyle;rounded=0;orthogonalLoop=1;jettySize=auto;html=1;strokeColor=default;strokeWidth=1;align=center;verticalAlign=middle;fontFamily=Times New Roman;fontSize=11;fontColor=default;labelBackgroundColor=default;endArrow=classicThin;endFill=1;endSize=4;shadow=0;textShadow=0;" edge="1" parent="1" source="1gXEFUUZADcfgdOFNKRF-1" target="1gXEFUUZADcfgdOFNKRF-79">
          <mxGeometry relative="1" as="geometry" />
        </mxCell>
        <mxCell id="1gXEFUUZADcfgdOFNKRF-1" value="Supply N&lt;sub&gt;2&lt;/sub&gt;&amp;nbsp;mounted" style="rounded=1;whiteSpace=wrap;html=1;fontFamily=Times New Roman;shadow=0;textShadow=0;" vertex="1" parent="1">
          <mxGeometry x="40" y="150" width="100" height="40" as="geometry" />
        </mxCell>
        <mxCell id="1gXEFUUZADcfgdOFNKRF-162" style="edgeStyle=orthogonalEdgeStyle;curved=0;rounded=1;jumpStyle=arc;orthogonalLoop=1;jettySize=auto;html=1;entryX=0.5;entryY=0;entryDx=0;entryDy=0;strokeColor=default;strokeWidth=1;align=center;verticalAlign=middle;fontFamily=Times New Roman;fontSize=11;fontColor=default;labelBackgroundColor=default;endArrow=classicThin;endFill=1;endSize=4;" edge="1" parent="1" source="1gXEFUUZADcfgdOFNKRF-2" target="1gXEFUUZADcfgdOFNKRF-3">
          <mxGeometry relative="1" as="geometry" />
        </mxCell>
        <mxCell id="1gXEFUUZADcfgdOFNKRF-2" value="Fuel tank filled" style="rounded=1;whiteSpace=wrap;html=1;fontFamily=Times New Roman;shadow=0;textShadow=0;" vertex="1" parent="1">
          <mxGeometry x="180" y="150" width="100" height="40" as="geometry" />
        </mxCell>
        <mxCell id="1gXEFUUZADcfgdOFNKRF-3" value="Fuel tank mounted" style="rounded=1;whiteSpace=wrap;html=1;fontFamily=Times New Roman;shadow=0;textShadow=0;" vertex="1" parent="1">
          <mxGeometry x="180" y="210" width="100" height="40" as="geometry" />
        </mxCell>
        <mxCell id="1gXEFUUZADcfgdOFNKRF-4" value="Ground station setup" style="rounded=1;whiteSpace=wrap;html=1;fontFamily=Times New Roman;shadow=0;textShadow=0;" vertex="1" parent="1">
          <mxGeometry x="460" y="180" width="100" height="40" as="geometry" />
        </mxCell>
        <mxCell id="1gXEFUUZADcfgdOFNKRF-12" value="N&lt;sub&gt;2&lt;/sub&gt;&amp;nbsp;to FT" style="rounded=1;whiteSpace=wrap;html=1;fontFamily=Times New Roman;shadow=0;textShadow=0;" vertex="1" parent="1">
          <mxGeometry x="49.5" y="345" width="80" height="20" as="geometry" />
        </mxCell>
        <mxCell id="1gXEFUUZADcfgdOFNKRF-13" value="&lt;span style=&quot;color: rgb(0, 0, 0); font-size: 12px; font-style: normal; font-variant-ligatures: normal; font-variant-caps: normal; font-weight: 400; letter-spacing: normal; orphans: 2; text-align: center; text-indent: 0px; text-transform: none; widows: 2; word-spacing: 0px; -webkit-text-stroke-width: 0px; white-space: normal; background-color: rgb(251, 251, 251); text-decoration-thickness: initial; text-decoration-style: initial; text-decoration-color: initial; float: none; display: inline !important;&quot;&gt;N&lt;/span&gt;&lt;sub style=&quot;color: rgb(0, 0, 0); font-style: normal; font-variant-ligatures: normal; font-variant-caps: normal; font-weight: 400; letter-spacing: normal; orphans: 2; text-align: center; text-indent: 0px; text-transform: none; widows: 2; word-spacing: 0px; -webkit-text-stroke-width: 0px; white-space: normal; background-color: rgb(251, 251, 251); text-decoration-thickness: initial; text-decoration-style: initial; text-decoration-color: initial;&quot;&gt;2&lt;/sub&gt;&lt;span style=&quot;color: rgb(0, 0, 0); font-size: 12px; font-style: normal; font-variant-ligatures: normal; font-variant-caps: normal; font-weight: 400; letter-spacing: normal; orphans: 2; text-align: center; text-indent: 0px; text-transform: none; widows: 2; word-spacing: 0px; -webkit-text-stroke-width: 0px; white-space: normal; background-color: rgb(251, 251, 251); text-decoration-thickness: initial; text-decoration-style: initial; text-decoration-color: initial; float: none; display: inline !important;&quot;&gt;&amp;nbsp;to CC&lt;/span&gt;" style="rounded=1;whiteSpace=wrap;html=1;fontFamily=Times New Roman;shadow=0;textShadow=0;" vertex="1" parent="1">
          <mxGeometry x="49.5" y="375" width="80" height="20" as="geometry" />
        </mxCell>
        <mxCell id="1gXEFUUZADcfgdOFNKRF-82" value="" style="edgeStyle=orthogonalEdgeStyle;rounded=0;orthogonalLoop=1;jettySize=auto;html=1;strokeColor=default;strokeWidth=1;align=center;verticalAlign=middle;fontFamily=Times New Roman;fontSize=11;fontColor=default;labelBackgroundColor=default;endArrow=classicThin;endFill=1;endSize=4;shadow=0;textShadow=0;" edge="1" parent="1" source="1gXEFUUZADcfgdOFNKRF-14" target="1gXEFUUZADcfgdOFNKRF-15">
          <mxGeometry relative="1" as="geometry" />
        </mxCell>
        <mxCell id="1gXEFUUZADcfgdOFNKRF-14" value="Engine carriage mounted" style="rounded=1;whiteSpace=wrap;html=1;fontFamily=Times New Roman;shadow=0;textShadow=0;" vertex="1" parent="1">
          <mxGeometry x="320" y="150" width="100" height="40" as="geometry" />
        </mxCell>
        <mxCell id="1gXEFUUZADcfgdOFNKRF-15" value="Engine mounted" style="rounded=1;whiteSpace=wrap;html=1;fontFamily=Times New Roman;shadow=0;textShadow=0;" vertex="1" parent="1">
          <mxGeometry x="320" y="210" width="100" height="40" as="geometry" />
        </mxCell>
        <mxCell id="1gXEFUUZADcfgdOFNKRF-16" value="FT to Engine" style="rounded=1;whiteSpace=wrap;html=1;fontFamily=Times New Roman;shadow=0;textShadow=0;" vertex="1" parent="1">
          <mxGeometry x="49.75" y="405" width="80" height="20" as="geometry" />
        </mxCell>
        <mxCell id="1gXEFUUZADcfgdOFNKRF-28" value="Networking" style="rounded=1;whiteSpace=wrap;html=1;fontFamily=Times New Roman;shadow=0;textShadow=0;" vertex="1" parent="1">
          <mxGeometry x="570" y="210" width="100" height="40" as="geometry" />
        </mxCell>
        <mxCell id="1gXEFUUZADcfgdOFNKRF-30" value="Power available" style="rounded=1;whiteSpace=wrap;html=1;fontFamily=Times New Roman;shadow=0;textShadow=0;" vertex="1" parent="1">
          <mxGeometry x="570" y="150" width="100" height="40" as="geometry" />
        </mxCell>
        <mxCell id="1gXEFUUZADcfgdOFNKRF-63" style="edgeStyle=orthogonalEdgeStyle;rounded=0;orthogonalLoop=1;jettySize=auto;html=1;entryX=0.5;entryY=0;entryDx=0;entryDy=0;strokeColor=default;strokeWidth=1;align=center;verticalAlign=middle;fontFamily=Times New Roman;fontSize=11;fontColor=default;labelBackgroundColor=default;endArrow=classicThin;endFill=1;endSize=4;curved=1;shadow=0;textShadow=0;" edge="1" parent="1" source="1gXEFUUZADcfgdOFNKRF-32" target="1gXEFUUZADcfgdOFNKRF-183">
          <mxGeometry relative="1" as="geometry" />
        </mxCell>
        <mxCell id="1gXEFUUZADcfgdOFNKRF-32" value="Low Pressure Leak Checks" style="rounded=1;whiteSpace=wrap;html=1;fontFamily=Times New Roman;shadow=0;textShadow=0;" vertex="1" parent="1">
          <mxGeometry x="430" y="700" width="100" height="40" as="geometry" />
        </mxCell>
        <mxCell id="1gXEFUUZADcfgdOFNKRF-64" style="edgeStyle=orthogonalEdgeStyle;rounded=0;orthogonalLoop=1;jettySize=auto;html=1;entryX=0.5;entryY=0;entryDx=0;entryDy=0;strokeColor=default;strokeWidth=1;align=center;verticalAlign=middle;fontFamily=Times New Roman;fontSize=11;fontColor=default;labelBackgroundColor=default;endArrow=classicThin;endFill=1;endSize=4;curved=1;shadow=0;textShadow=0;" edge="1" parent="1" source="1gXEFUUZADcfgdOFNKRF-33" target="1gXEFUUZADcfgdOFNKRF-34">
          <mxGeometry relative="1" as="geometry" />
        </mxCell>
        <mxCell id="1gXEFUUZADcfgdOFNKRF-33" value="High Pressure &lt;br&gt;Setup" style="rounded=1;whiteSpace=wrap;html=1;fontFamily=Times New Roman;shadow=0;textShadow=0;" vertex="1" parent="1">
          <mxGeometry x="430" y="780" width="100" height="40" as="geometry" />
        </mxCell>
        <mxCell id="1gXEFUUZADcfgdOFNKRF-66" style="edgeStyle=orthogonalEdgeStyle;rounded=0;orthogonalLoop=1;jettySize=auto;html=1;entryX=0.5;entryY=0;entryDx=0;entryDy=0;strokeColor=default;strokeWidth=1;align=center;verticalAlign=middle;fontFamily=Times New Roman;fontSize=11;fontColor=default;labelBackgroundColor=default;endArrow=classicThin;endFill=1;endSize=4;curved=1;shadow=0;textShadow=0;" edge="1" parent="1" source="1gXEFUUZADcfgdOFNKRF-34" target="1gXEFUUZADcfgdOFNKRF-45">
          <mxGeometry relative="1" as="geometry" />
        </mxCell>
        <mxCell id="1gXEFUUZADcfgdOFNKRF-34" value="Test Stand Evacuated" style="rounded=1;whiteSpace=wrap;html=1;fontFamily=Times New Roman;shadow=0;textShadow=0;" vertex="1" parent="1">
          <mxGeometry x="320" y="820" width="100" height="40" as="geometry" />
        </mxCell>
        <mxCell id="1gXEFUUZADcfgdOFNKRF-62" style="edgeStyle=orthogonalEdgeStyle;rounded=0;orthogonalLoop=1;jettySize=auto;html=1;entryX=0.5;entryY=0;entryDx=0;entryDy=0;strokeColor=default;strokeWidth=1;align=center;verticalAlign=middle;fontFamily=Times New Roman;fontSize=11;fontColor=default;labelBackgroundColor=default;endArrow=classicThin;endFill=1;endSize=4;curved=1;shadow=0;textShadow=0;" edge="1" parent="1" source="1gXEFUUZADcfgdOFNKRF-44" target="1gXEFUUZADcfgdOFNKRF-32">
          <mxGeometry relative="1" as="geometry" />
        </mxCell>
        <mxCell id="1gXEFUUZADcfgdOFNKRF-44" value="System checkouts" style="rounded=1;whiteSpace=wrap;html=1;fontFamily=Times New Roman;shadow=0;textShadow=0;" vertex="1" parent="1">
          <mxGeometry x="320" y="660" width="100" height="40" as="geometry" />
        </mxCell>
        <mxCell id="1gXEFUUZADcfgdOFNKRF-67" style="edgeStyle=orthogonalEdgeStyle;rounded=0;orthogonalLoop=1;jettySize=auto;html=1;entryX=0.5;entryY=0;entryDx=0;entryDy=0;strokeColor=default;strokeWidth=1;align=center;verticalAlign=middle;fontFamily=Times New Roman;fontSize=11;fontColor=default;labelBackgroundColor=default;endArrow=classicThin;endFill=1;endSize=4;curved=1;shadow=0;textShadow=0;" edge="1" parent="1" source="1gXEFUUZADcfgdOFNKRF-45" target="1gXEFUUZADcfgdOFNKRF-47">
          <mxGeometry relative="1" as="geometry" />
        </mxCell>
        <mxCell id="1gXEFUUZADcfgdOFNKRF-45" value="Remote Operations Begun" style="rounded=1;whiteSpace=wrap;html=1;fontFamily=Times New Roman;shadow=0;textShadow=0;" vertex="1" parent="1">
          <mxGeometry x="430" y="860" width="100" height="40" as="geometry" />
        </mxCell>
        <mxCell id="1gXEFUUZADcfgdOFNKRF-68" style="edgeStyle=orthogonalEdgeStyle;rounded=0;orthogonalLoop=1;jettySize=auto;html=1;entryX=0.5;entryY=0;entryDx=0;entryDy=0;strokeColor=default;strokeWidth=1;align=center;verticalAlign=middle;fontFamily=Times New Roman;fontSize=11;fontColor=default;labelBackgroundColor=default;endArrow=classicThin;endFill=1;endSize=4;curved=1;shadow=0;textShadow=0;" edge="1" parent="1" source="1gXEFUUZADcfgdOFNKRF-47" target="1gXEFUUZADcfgdOFNKRF-49">
          <mxGeometry relative="1" as="geometry" />
        </mxCell>
        <mxCell id="1gXEFUUZADcfgdOFNKRF-47" value="Cold Flow" style="rounded=1;whiteSpace=wrap;html=1;strokeWidth=3;fontStyle=1;fontFamily=Times New Roman;shadow=0;textShadow=0;fontSize=16;" vertex="1" parent="1">
          <mxGeometry x="320" y="900" width="100" height="40" as="geometry" />
        </mxCell>
        <mxCell id="1gXEFUUZADcfgdOFNKRF-69" style="edgeStyle=orthogonalEdgeStyle;rounded=0;orthogonalLoop=1;jettySize=auto;html=1;entryX=0.5;entryY=0;entryDx=0;entryDy=0;strokeColor=default;strokeWidth=1;align=center;verticalAlign=middle;fontFamily=Times New Roman;fontSize=11;fontColor=default;labelBackgroundColor=default;endArrow=classicThin;endFill=1;endSize=4;curved=1;shadow=0;textShadow=0;" edge="1" parent="1" source="1gXEFUUZADcfgdOFNKRF-49" target="1gXEFUUZADcfgdOFNKRF-60">
          <mxGeometry relative="1" as="geometry" />
        </mxCell>
        <mxCell id="1gXEFUUZADcfgdOFNKRF-49" value="System Safed" style="rounded=1;whiteSpace=wrap;html=1;fontFamily=Times New Roman;shadow=0;textShadow=0;" vertex="1" parent="1">
          <mxGeometry x="430" y="940" width="100" height="40" as="geometry" />
        </mxCell>
        <mxCell id="1gXEFUUZADcfgdOFNKRF-50" value="Teardown" style="rounded=1;whiteSpace=wrap;html=1;fontFamily=Times New Roman;shadow=0;textShadow=0;" vertex="1" parent="1">
          <mxGeometry x="430" y="1020" width="100" height="40" as="geometry" />
        </mxCell>
        <mxCell id="1gXEFUUZADcfgdOFNKRF-51" value="Power available" style="rounded=1;whiteSpace=wrap;html=1;fontFamily=Times New Roman;shadow=0;textShadow=0;" vertex="1" parent="1">
          <mxGeometry x="710" y="150" width="100" height="40" as="geometry" />
        </mxCell>
        <mxCell id="1gXEFUUZADcfgdOFNKRF-70" style="edgeStyle=orthogonalEdgeStyle;rounded=0;orthogonalLoop=1;jettySize=auto;html=1;entryX=0.5;entryY=0;entryDx=0;entryDy=0;strokeColor=default;strokeWidth=1;align=center;verticalAlign=middle;fontFamily=Times New Roman;fontSize=11;fontColor=default;labelBackgroundColor=default;endArrow=classicThin;endFill=1;endSize=4;curved=1;shadow=0;textShadow=0;" edge="1" parent="1" source="1gXEFUUZADcfgdOFNKRF-60" target="1gXEFUUZADcfgdOFNKRF-50">
          <mxGeometry relative="1" as="geometry" />
        </mxCell>
        <mxCell id="1gXEFUUZADcfgdOFNKRF-60" value="Data Saved" style="rounded=1;whiteSpace=wrap;html=1;fontFamily=Times New Roman;shadow=0;textShadow=0;" vertex="1" parent="1">
          <mxGeometry x="320" y="980" width="100" height="40" as="geometry" />
        </mxCell>
        <mxCell id="1gXEFUUZADcfgdOFNKRF-79" value="Regulator mount attached" style="rounded=1;whiteSpace=wrap;html=1;fontFamily=Times New Roman;shadow=0;textShadow=0;" vertex="1" parent="1">
          <mxGeometry x="40" y="210" width="100" height="40" as="geometry" />
        </mxCell>
        <mxCell id="1gXEFUUZADcfgdOFNKRF-87" value="Networking" style="rounded=1;whiteSpace=wrap;html=1;fontFamily=Times New Roman;shadow=0;textShadow=0;" vertex="1" parent="1">
          <mxGeometry x="710" y="210" width="100" height="40" as="geometry" />
        </mxCell>
        <mxCell id="1gXEFUUZADcfgdOFNKRF-115" value="RFTP" style="rounded=1;whiteSpace=wrap;html=1;fontFamily=Times New Roman;shadow=0;textShadow=0;" vertex="1" parent="1">
          <mxGeometry x="620" y="300" width="60" height="20" as="geometry" />
        </mxCell>
        <mxCell id="1gXEFUUZADcfgdOFNKRF-116" value="RCCP" style="rounded=1;whiteSpace=wrap;html=1;fontFamily=Times New Roman;shadow=0;textShadow=0;" vertex="1" parent="1">
          <mxGeometry x="620" y="335" width="60" height="15" as="geometry" />
        </mxCell>
        <mxCell id="1gXEFUUZADcfgdOFNKRF-118" value="FT" style="rounded=1;whiteSpace=wrap;html=1;fontFamily=Times New Roman;shadow=0;textShadow=0;" vertex="1" parent="1">
          <mxGeometry x="620" y="360" width="60" height="20" as="geometry" />
        </mxCell>
        <mxCell id="1gXEFUUZADcfgdOFNKRF-119" value="MFV" style="rounded=1;whiteSpace=wrap;html=1;fontFamily=Times New Roman;shadow=0;textShadow=0;" vertex="1" parent="1">
          <mxGeometry x="620" y="390" width="60" height="20" as="geometry" />
        </mxCell>
        <mxCell id="1gXEFUUZADcfgdOFNKRF-120" value="CC" style="rounded=1;whiteSpace=wrap;html=1;fontFamily=Times New Roman;shadow=0;textShadow=0;" vertex="1" parent="1">
          <mxGeometry x="620" y="420" width="60" height="20" as="geometry" />
        </mxCell>
        <mxCell id="1gXEFUUZADcfgdOFNKRF-121" value="Exhaust" style="rounded=1;whiteSpace=wrap;html=1;fontFamily=Times New Roman;shadow=0;textShadow=0;" vertex="1" parent="1">
          <mxGeometry x="620" y="450" width="60" height="20" as="geometry" />
        </mxCell>
        <mxCell id="1gXEFUUZADcfgdOFNKRF-124" value="GoPros" style="rounded=1;whiteSpace=wrap;html=1;fillColor=none;labelPosition=center;verticalLabelPosition=top;align=center;verticalAlign=bottom;dashed=1;fontFamily=Times New Roman;shadow=0;textShadow=0;" vertex="1" parent="1">
          <mxGeometry x="720" y="290" width="80" height="70" as="geometry" />
        </mxCell>
        <mxCell id="1gXEFUUZADcfgdOFNKRF-125" value="MFV 1" style="rounded=1;whiteSpace=wrap;html=1;fontFamily=Times New Roman;shadow=0;textShadow=0;" vertex="1" parent="1">
          <mxGeometry x="730" y="300" width="60" height="20" as="geometry" />
        </mxCell>
        <mxCell id="1gXEFUUZADcfgdOFNKRF-126" value="MFV 2" style="rounded=1;whiteSpace=wrap;html=1;fontFamily=Times New Roman;shadow=0;textShadow=0;" vertex="1" parent="1">
          <mxGeometry x="730" y="330" width="60" height="20" as="geometry" />
        </mxCell>
        <mxCell id="1gXEFUUZADcfgdOFNKRF-131" value="Sensors / Actuators" style="rounded=1;whiteSpace=wrap;html=1;fillColor=none;labelPosition=center;verticalLabelPosition=top;align=center;verticalAlign=bottom;dashed=1;fontFamily=Times New Roman;shadow=0;textShadow=0;" vertex="1" parent="1">
          <mxGeometry x="330" y="320" width="150" height="130" as="geometry" />
        </mxCell>
        <mxCell id="1gXEFUUZADcfgdOFNKRF-132" value="BVFTP" style="rounded=1;whiteSpace=wrap;html=1;fontFamily=Times New Roman;shadow=0;textShadow=0;" vertex="1" parent="1">
          <mxGeometry x="340" y="330" width="60" height="20" as="geometry" />
        </mxCell>
        <mxCell id="1gXEFUUZADcfgdOFNKRF-133" value="MFV" style="rounded=1;whiteSpace=wrap;html=1;fontFamily=Times New Roman;shadow=0;textShadow=0;" vertex="1" parent="1">
          <mxGeometry x="340" y="390" width="60" height="20" as="geometry" />
        </mxCell>
        <mxCell id="1gXEFUUZADcfgdOFNKRF-134" value="SVFTV" style="rounded=1;whiteSpace=wrap;html=1;fontFamily=Times New Roman;shadow=0;textShadow=0;" vertex="1" parent="1">
          <mxGeometry x="340" y="360" width="60" height="20" as="geometry" />
        </mxCell>
        <mxCell id="1gXEFUUZADcfgdOFNKRF-135" value="PFT" style="rounded=1;whiteSpace=wrap;html=1;fontFamily=Times New Roman;shadow=0;textShadow=0;" vertex="1" parent="1">
          <mxGeometry x="410" y="330" width="60" height="20" as="geometry" />
        </mxCell>
        <mxCell id="1gXEFUUZADcfgdOFNKRF-136" value="PFM" style="rounded=1;whiteSpace=wrap;html=1;fontFamily=Times New Roman;shadow=0;textShadow=0;" vertex="1" parent="1">
          <mxGeometry x="410" y="360" width="60" height="20" as="geometry" />
        </mxCell>
        <mxCell id="1gXEFUUZADcfgdOFNKRF-137" value="PCC" style="rounded=1;whiteSpace=wrap;html=1;fontFamily=Times New Roman;shadow=0;textShadow=0;" vertex="1" parent="1">
          <mxGeometry x="410" y="390" width="60" height="20" as="geometry" />
        </mxCell>
        <mxCell id="1gXEFUUZADcfgdOFNKRF-149" style="edgeStyle=orthogonalEdgeStyle;curved=0;rounded=1;jumpStyle=arc;orthogonalLoop=1;jettySize=auto;html=1;entryX=1;entryY=0.5;entryDx=0;entryDy=0;strokeColor=default;strokeWidth=1;align=center;verticalAlign=middle;fontFamily=Times New Roman;fontSize=11;fontColor=default;labelBackgroundColor=default;endArrow=classicThin;endFill=1;endSize=4;exitX=0.5;exitY=1;exitDx=0;exitDy=0;shadow=0;textShadow=0;" edge="1" parent="1" source="1gXEFUUZADcfgdOFNKRF-140" target="1gXEFUUZADcfgdOFNKRF-88">
          <mxGeometry relative="1" as="geometry" />
        </mxCell>
        <mxCell id="1gXEFUUZADcfgdOFNKRF-150" style="edgeStyle=orthogonalEdgeStyle;curved=0;rounded=1;jumpStyle=arc;orthogonalLoop=1;jettySize=auto;html=1;entryX=0;entryY=0.5;entryDx=0;entryDy=0;strokeColor=default;strokeWidth=1;align=center;verticalAlign=middle;fontFamily=Times New Roman;fontSize=11;fontColor=default;labelBackgroundColor=default;endArrow=classicThin;endFill=1;endSize=4;exitX=0.5;exitY=1;exitDx=0;exitDy=0;shadow=0;textShadow=0;" edge="1" parent="1" source="1gXEFUUZADcfgdOFNKRF-140" target="1gXEFUUZADcfgdOFNKRF-131">
          <mxGeometry relative="1" as="geometry" />
        </mxCell>
        <mxCell id="1gXEFUUZADcfgdOFNKRF-140" value="Propulsion set-up" style="rounded=1;whiteSpace=wrap;html=1;fontFamily=Times New Roman;shadow=0;textShadow=0;" vertex="1" parent="1">
          <mxGeometry x="180" y="295" width="100.5" height="20" as="geometry" />
        </mxCell>
        <mxCell id="1gXEFUUZADcfgdOFNKRF-153" value="&lt;font style=&quot;font-size: 24px;&quot;&gt;Operations&lt;/font&gt;" style="text;html=1;align=center;verticalAlign=middle;whiteSpace=wrap;rounded=0;fontFamily=Times New Roman;fontSize=30;fontColor=default;labelBackgroundColor=none;" vertex="1" parent="1">
          <mxGeometry x="350" y="610" width="150" height="40" as="geometry" />
        </mxCell>
        <mxCell id="1gXEFUUZADcfgdOFNKRF-156" value="Setup" style="text;html=1;align=center;verticalAlign=middle;whiteSpace=wrap;rounded=0;fontFamily=Times New Roman;fontSize=24;fontColor=default;labelBackgroundColor=none;" vertex="1" parent="1">
          <mxGeometry x="350" y="80" width="150" height="40" as="geometry" />
        </mxCell>
        <mxCell id="1gXEFUUZADcfgdOFNKRF-157" value="Discovery Fuel Cold Flow" style="text;html=1;align=center;verticalAlign=middle;whiteSpace=wrap;rounded=0;fontFamily=Times New Roman;fontSize=30;fontColor=default;labelBackgroundColor=none;fontStyle=1" vertex="1" parent="1">
          <mxGeometry x="245" y="30" width="360" height="40" as="geometry" />
        </mxCell>
        <mxCell id="1gXEFUUZADcfgdOFNKRF-159" value="" style="shape=image;verticalLabelPosition=bottom;labelBackgroundColor=default;verticalAlign=top;aspect=fixed;imageAspect=0;image=data:image/png,iVBORw0KGgoAAAANSUhEUgAAEOsAAAk6CAMAAABd2N91AAAAGXRFWHRTb2Z0d2FyZQBBZG9iZSBJbWFnZVJlYWR5ccllPAAAA2ZpVFh0WE1MOmNvbS5hZG9iZS54bXAAAAAAADw/eHBhY2tldCBiZWdpbj0i77u/IiBpZD0iVzVNME1wQ2VoaUh6cmVTek5UY3prYzlkIj8+IDx4OnhtcG1ldGEgeG1sbnM6eD0iYWRvYmU6bnM6bWV0YS8iIHg6eG1wdGs9IkFkb2JlIFhNUCBDb3JlIDUuMy1jMDExIDY2LjE0NTY2MSwgMjAxMi8wMi8wNi0xNDo1NjoyNyAgICAgICAgIj4gPHJkZjpSREYgeG1sbnM6cmRmPSJodHRwOi8vd3d3LnczLm9yZy8xOTk5LzAyLzIyLXJkZi1zeW50YXgtbnMjIj4gPHJkZjpEZXNjcmlwdGlvbiByZGY6YWJvdXQ9IiIgeG1sbnM6eG1wTU09Imh0dHA6Ly9ucy5hZG9iZS5jb20veGFwLzEuMC9tbS8iIHhtbG5zOnN0UmVmPSJodHRwOi8vbnMuYWRvYmUuY29tL3hhcC8xLjAvc1R5cGUvUmVzb3VyY2VSZWYjIiB4bWxuczp4bXA9Imh0dHA6Ly9ucy5hZG9iZS5jb20veGFwLzEuMC8iIHhtcE1NOk9yaWdpbmFsRG9jdW1lbnRJRD0ieG1wLmRpZDo2OUUxRDBBMERCREVFMTExODRBOEVFNDhGNkQzQUUwMiIgeG1wTU06RG9jdW1lbnRJRD0ieG1wLmRpZDozRDA4MTE2MjI1NTcxMUUzQTE2RUU3QTk1NjlEMEMzMyIgeG1wTU06SW5zdGFuY2VJRD0ieG1wLmlpZDozRDA4MTE2MTI1NTcxMUUzQTE2RUU3QTk1NjlEMEMzMyIgeG1wOkNyZWF0b3JUb29sPSJBZG9iZSBQaG90b3Nob3AgQ1M2IChXaW5kb3dzKSI+IDx4bXBNTTpEZXJpdmVkRnJvbSBzdFJlZjppbnN0YW5jZUlEPSJ4bXAuaWlkOkI0Nzg5QkFBNTYyNUUzMTFBMkUwQTZDOUYwMEFBQ0ZBIiBzdFJlZjpkb2N1bWVudElEPSJ4bXAuZGlkOjY5RTFEMEEwREJERUUxMTE4NEE4RUU0OEY2RDNBRTAyIi8+IDwvcmRmOkRlc2NyaXB0aW9uPiA8L3JkZjpSREY+IDwveDp4bXBtZXRhPiA8P3hwYWNrZXQgZW5kPSJyIj8+w0uFEQAAAwBQTFRFEhI73d2+///O/v7WmZmsRERa6OjGXFxpxcWtZmaDISFE0dG1/PzWXFx71dW49PTOcXF2HBxBubml5ubETU1gSUld+vrUoaGVtLSiysqwra2d5OTC+PjSvb2o/f3TlZWNdXV5iYmFzMyykZGKfX19/f3YnJySpqaYampxgYGAmZmNMTFP2Ni6hYWBNTVQCQk2qKiawcGq3NzI9vbQ8vLOKSlJVlZl///T2tq8/PzT6urI39++mZmQ8PDMPT1WeHh6jo6Io6OvAQEx9PTQbW108PDKWVlntrazZWVusrKg7u7K+vrWdnaJlZWKKSlR9vbSgYF+UVFhYmJt4uLCx8evh4eYjIyG1NS3sLCf+PjU5ubq4ODALi5N7OzIDQ04+vrSrKyz+PjP8vLL7OzKzs6009PW7u7MbW1y6enU4uLA6+vGODhSo6OXJiZHqqqcenp8w8OsvLynycnTBgY0OjpVAwMy0tK3X19qxsa0iIiD8fHj0NCzuLjG7+/G2trhhoaE8vL08fHG9vbJ8PDOwsLOVVVzYmJ+Fxc/OTlc9vbY+vrP4uLNtrajk5OLoKCRfHx76OjAUlJj4ODCkpKU9PTafHyT8vLSm5ubgoKQQEBXycm2UFBtKytK7u7x3d26+fnyn5+TVFRkj4+IbW2E+PjcWlp0aGhw///+7OzDsrKpi4uhLy9V/f3c+/vp///9wcG3MzNYaGh0///809O+Li5QxMSs1dW+/PzcrKycuLik///7///5///6pKST///4///2///3///1///z///0///v///x///s///p///w///t///uPz9k///y///i///m///q///r///o///f///n///j///k///c///e///g///d///h///l///b///a///Z/v7Z///X/v7Y/v7a/v7bZ2dw/v7c+fn64+PC9vb49fXQ+/v7JydQv7+p/v7m/v7i/v7j+PjY2Ni2yMjD/v7g/v7h/v7k/v7l+/vv9/fpg4OC/f39k5Od/f3e/v72AAAw////h9nqOQAAAQB0Uk5T////////////////////////////////////////////////////////////////////////////////////////////////////////////////////////////////////////////////////////////////////////////////////////////////////////////////////////////////////////////////////////////////////////////////////////////////////////////////////////////////////////////////////AFP3ByUAAWp7SURBVHja7N37j9x1nt/7thwD8XAwbWxzv2PAp8EN4tIww00VYJnRTrQwHEAH0xPQHK12jJm1mho04pyQH6I4ihiNRpsoseRIjEZaKzmST4Qy0mB33OXCXaY77b5UX6qvNcXu5swZLcmvET/km7PV3ba7wMZ2u6vq+/nU4/EnVHXL+MnHr3fb/wQAAACIR5uPAAAAAIiI1gEAAADEROsAAAAAYqJ1AAAAADHROgAAAICYaB0AAABATLQOAAAAICZaBwAAABATrQMAAACIidYBAAAAxETrAAAAAGKidQAAAAAx0ToAAACAmGgdAAAAQEy0DgAAACAmWgcAAAAQE60DAAAAiInWAQAAAMRE6wAAAABionUAAAAAMdE6AAAAgJhoHQAAAEBMtA4AAAAgJloHAAAAEBOtAwAAAIiJ1gEAAADEROsAAAAAYqJ1AAAAADHROgAAAICYaB0AAABATLQOAAAAICZaBwAAABATrQMAAACIidYBAAAAxETrAAAAAGKidQAAAAAx0ToAAACAmGgdAAAAQEy0DgAAACAmWgcAAAAQE60DAAAAiInWAQAAAMRE6wAAAABionUAAAAAMdE6AAAAgJhoHQAAAEBMtA4AAAAgJloHAAAAEBOtAwAAAIiJ1gEAAADEROsAAAAAYqJ1AAAAADHROgAAAICYaB0AAABATLQOAAAAICZaBwAAABATrQMAAACIidYBAAAAxETrAAAAAGKidQAAAAAx0ToAAACAmGgdAAAAQEy0DgAAACAmWgcAAAAQE60DAAAAiInWAQAAAMRE6wAAAABionUAAAAAMdE6AAAAgJhoHQAAAEBMtA4AAAAgJloHAAAAEBOtAwAAAIiJ1gEAAJzLwb/jUwBCo3UAAABnc3AFnwYQEq0DAAD4umrhOLRE7QACo3UAAABfsxg6Pl6yWDt8JEA4tA4AAOCrDh489PHHhw/3/p3Dh5dqhw8FCIbWAQAAfEU1dRzuPXLk6N850luNHVoHEBCtAwAAqFVNHb1Hjub6+o4d6/sfR4/0VmOHjwUIhtYBAADUOHjw0OHeo7m+T/P5oaF/9I+Hjh45rHUAIdE6AACAlZZSR9+nQ/3Hjw/+o+7//mnf0d7DWgcQEK0DAABYYSl1HMt/NlgYHfmjnv/w2dCx3JHDH2sdQDi0DgAA4IzFrY6jx4aOF0bGxv+oJ/lnA5/l+45qHUBItA4AAOC05dTRPzgyNjfxR51J8hejg0PHjvZqHUBAtA4AAOCUU6lj4MTwyf92c2eSZP6fEwP9n+a0DiAkWgcAALDsTOqYnJ75ojNJksy//K8Dn2kdQFi0DgAAYMmZ1DFRnHmwO/k7e6aHR49rHUBYtA4AAGDRitRRKv9mMXUkv5qeG6m2DjdngYBoHQAAQNWK1DFTfnkpdSRfliZHjn969LDWAQRE6wAAAP5nbepYf313Zql1XFfUOoDgaB0AAEDtP2BZf31bsuwHpcnRz44d+fiQTwgIh9YBAACcSh1Di6njjtOpo61Smhvt7ztimhQIidYBAADUpo59p1JHsqFSHC4M9TnDAgRF6wAAgJZ3KnUMVlPHt86kjuS2z6fHB/LOsABh0ToAAKDVnUkdk6X1r65IHcnb5dmxwbxpUiAsWgcAALS4mtRx1b7Mitbx0/mTJxbPsPiUgIBoHQAA0NpqU0f7itKRdP6LqcmR6hkWzzqAkGgdAADQ0mpSx301qSPp6CrNFZxhAUKjdQAAQCurSR2P1aaO5KVKcXhgKOcMCxAWrQMAAFrYUuroW0od6zbWpo7k5+XpscF8zjQpEBatAwAAWtfK1PH5d76aOpIHF5anSbUOICRaBwAAtKwVqaP4+et7vpo6ss/NT5gmBcKjdQAAQKtamTrW//5rqSPZ2DUzOWqaFAiO1gEAAC3qdOoYmSx+fuMjX0sdyS8rpeHCUJ9pUiAwWgcAALSm2tRx4OupI9lRmR4fyOd6zXUAYdE6AACgJS2njnw1dZSv2XWW1JG8Vp4dGzRNCgRH6wAAgFZ0JnXMFcuXnTV1JK/Pnzxx/NjRw4d8XEBQtA4AAGhBtamj46ypo61ranLUGRYgPFoHAAC0nsXUcaQvf7yaOn589tSRbOgqzRX6TZMCwdE6AACg5dSmjt1nTx3J1ZWiaVIgRFoHAAC0mmrqOHwqdbxxrtSRXFudJs2bJgWCo3UAAECLqUkdz717rtSRvL9w8sTxT02TAsHROgAAoLXUpo6nzpk6et6cmhgxTQoESOsAAICWUps6NpwzdSQdS9OkWgcQHK0DAABaycrUsfBNqSN5qVIcHhjKOcMCBEfrAACAFrIidUwvvLUh8w2t487y9NhgPmeaFAiO1gEAAK3jdOoYHZ5eeGtr8k2+ODVNqnUAgdE6AACgZdSmji3fmDoy/5dpUiBQWgcAALSK2tTx4jemjmRj18zkqGlSIERaBwAAtIia1LHpPKkjebFSGi4M9ZkmBcKjdQAAQGuoTR2Pnid1JDsq0+MD+VyvuQ4gOFoHAAC0hJrU8Yfnz5c6ktfKs2ODpkmBEGkdAADQClamjvJDl583dWS+M798hsVnB4RG6wAAgBZQ86rjzffOmzqStlumJkedYQGCpHUAAED8alPHS+dPHcn+rtJcod80KRAirQMAAKK3MnXMv/nCBaSO5OpK0TQpECitAwAAYreUOnLV1DE7/+a9F5I6ko+q06R506RAiLQOAACI3HLq+PSzxdTx7AWljuRHZdOkQKi0DgAAiFtt6rj6wlJHz5tTEyOmSYEwaR0AABC1r6SOzIW1jo6laVKtAwiR1gEAADE7nToK47Pzbz6dXKD3KsXhwpAzLECQtA4AAIhYber4yYWmjuTO8vT4YD5nmhQIkdYBAADxqk0dd11w6ki+WFieJtU6gPBoHQAAEK2a1HHTlxeeOrJvzJsmBYKldQAAQKxqU8cHF546ko1dM5OjpkmBQGkdAAAQqxWpY+qm2zMX0TpeXF8yTQoES+sAAIBI1aSOVy4mdSQ7KtPjA/lcr7kOIERaBwAAxOlM6jg5ddOdF5U6khvKs2ODpkmBQGkdAAAQpZrU8fOLSx2ZdfPLZ1h8jkCAtA4AAIhRTeq4NXtRqSNpu2VqctQZFiBUWgcAAESoJnU8cZGpI3mqqzRX6DdNCgRK6wAAgPjUpI67LzZ1JFevL5omBcKldQAAQHRWpo5tH1106kg+qk6T5k2TAoHSOgAAIDbLqaO/MHZy6qZrey46dSR3LJgmBQKmdQAAQGQOHjp0OnX88O1VpI7ON6cmRkyTAsHSOgAAIC7V1NG7nDq2PbCK1JHs6irNjfb3aR1AoLQOAACIysrU8cN3VpM6kvcqxeHCkDMsQKi0DgAAiMnBg9XUcax/oPqq453O1aSOzDPl6fHBfM40KRAorQMAACJSkzpeW1XqSDI3n5om1TqAIGkdAAAQjxWpY2bbd1eXOpLsGwtL06TOsABh0joAACAaNanjulWmjmRj18ykaVIgYFoHAADE4uDBQx/3Hq2mjomZbR92rzJ1JFsqJdOkQMi0DgAAiERN6ti86tSR7KhMjw/kc73mOoBAaR0AABCHmtSxd/WpI3NDeXZs0DQpEC6tAwAAorAydVx58+pTR5JZN798hsWHCoRJ6wAAgBjUpI4v2lafOpK2x6cmR6tnWDzrAAKldQAAQAROp44TEzNXPngpqSN5qqs0V+g3TQqES+sAAIDw1aSO31xS6kierRTHB4ZMkwLh0joAACB4Nanjin2XlDoyd1enSfM506RAsLQOAAAI3YrUUbry5UtLHUnmjgXTpEDYtA4AAAjccuoYWkwd17dfWupIeh6amhgxTQqETOsAAICw1aaOfZlLbB27ukpzo/19WgcQLq0DAACCdip1DFZTxx2X+qojSS6vFIcLQ86wAAHTOgAAIGRnUsdk6cr32y/1VUeSeaU8PW6aFAia1gEAAAGrSR3f2njJrzqSzN5T06RaBxAqrQMAAMK1MnVsX4vUkWQvW1iaJnWGBQiW1gEAAMFakTpmtl+1Fqkjae+amTRNCoRN6wAAgFDVvOq4as9apI5kS6VkmhQInNYBAACBWkodfUuvOu57ZE1SR3JXZXp8IJ/rNdcBhEvrAACAMK1IHaU1Sx2Z35ZnxwZNkwJB0zoAACBINanjsQNrkzqS7GPzy2dYfMJAsLQOAAAI0YrUUdy+btcapY6k+5apydHqGRbPOoBwaR0AABCg06ljZLK0fV3HWqWO5Kmu0lyh3zQpEDStAwAAwrMidRQ/X9eRWbPW8WylOD4wZJoUCJrWAQAAwVlOHflq6lj/+s41Kx1J5u7qNGk+Z5oUCJnWAQAAoTmTOuaKn//Z7mQNW8f1C6ZJgeBpHQAAEJia1PH6WqaOpGfT1MSIaVIgcFoHAACE5VTqOL74quOptUwdyYGu0txof5/WAQRN6wAAgKAspo4jy6njxv1rmjqSyyvF4cKQMyxA2LQOAAAIycrU8bu1Th2Z28vT46ZJgdBpHQAAEJBq6jh8KnVcsyFZ49ax99Q0qdYBBEzrAACAcNSmjq1rnDqS7GULS9OkzrAAIdM6AAAgGCtTR/myNU8dSXvXzKRpUiB4WgcAAIRiZepYuGzLmqeOZMv6kmlSIHxaBwAABOJM6hieXrjsxbVPHclPKsXxgXyu11wHEDStAwAAwnA6dYxWU8ev6pA6Mu+UZ8cG86ZJgcBpHQAAEISa1PHjR+uQOpLsffPLZ1h83EDItA4AAAhBA1JH0v34/ORo9QyLZx1A0LQOAAAIQE3qeOPyuqSO5Kmu0lyh3zQpEDqtAwAA0q82dbxXn9SR3FspDg8MmSYFQqd1AABA6tWkju+9VKfUkXmiPD02mM+ZJgUCp3UAAEDa1aaOF5J6tY7rF0yTAjHQOgAAIOVqUsdzf1mv1JH0bJqaGDFNCoRP6wAAgHRbmTrmn3u2bqkjOdBVmhvt79M6gNBpHQAAkGorUsfs/HNX1y91JJdXisOFIWdYgOBpHQAAkGZLqSOX/6yaOp6sZ+rI3F6eHh/MO8MCBE/rAACAFFtOHZ8upo63bkvq2To2l2eXpkm1DiBsWgcAAKRXbep4up6pI8leM780TeoMCxA4rQMAAFLrdOooVFPHXXVNHUl718ykaVIgBloHAACk1ZnUMT47/9aO+qaOZGuXaVIgDloHAACkVG3q+DJT59bxdKU4PmCaFIiA1gEAAOlUmzo+qHfqyDxQnh0bzJsmBcKndQAAQCrVpo7b6506ksx98yeXzrD47IHAaR0AAJBGNalj0yvZeqeOpPvxqcnR6hkWzzqA0GkdAACQRitSx9SmO+ufOpJ3u0pzBWdYgBhoHQAAkEJnUsfJqU0/b0DqSO6tFIcHhkyTAhHQOgAAIH1qUsetjUgdmSfK02OD+ZxpUiB8WgcAAKTOytTxh1t7kka0jpcXTJMCkdA6AAAgbWpSx90NSR1Jz1tTEyOmSYEoaB0AAJAyNanjo8akjuRA18zcqGlSIApaBwAApEtN6ri2Qakjeb5SHC4M9fVqHUD4tA4AAEiV5dTRXxg7OfXQ250NSh2Zn5WnxwfyzrAAMdA6AAAgTWpSxz2NSh1J5pPy7NI0qdYBBE/rAACAFDl46NDh3uXUcdMDDUsdSfbG+YmR48eOfOwMCxA+rQMAANKjJnW807jUkbR3zUyaJgUioXUAAEBqnEodA9XUcUNnpmGpI7O1yzQpEA2tAwAA0qImdbzW3bhXHUnm6UrRNCkQC60DAABSYil1HKumjpnGpo4k80B5dmwwb5oUiILWAQAA6VCTOr7b0NSRZK+aP7l0hsX3AIRP6wAAgFQ4eHBl6mhraOpIuh+fnxz97JhpUiAKWgcAAKRBTeq4rsGpI3m3qzRX6DdNCsRB6wAAgBRoburI3FspDg8MmSYF4qB1AABA851JHRNNSB1J5ony9NhgPmeaFIiC1gEAAE1Xmzr2JQ1vHdcvmCYF4qF1AABAsy2mjqPLqePDxqeOpPOtqYkR06RALLQOAABosqanjmRXV2lutL9P6wDioHUAAEBzrUwd2z5pRurIXF4pDheGnGEBIqF1AABAUx08eOjj06ljc3vSjNbxSnl63DQpEA2tAwAAmqkmdXzSlNSRZDefmibVOoAYaB0AANBEKXjVkSQ918wvTZM6wwJEQesAAIDmqUkde5uUOjLtt8xMmiYF4qF1AABA09S+6tiYNKl1bKmUTJMCEdE6AACgWU6njhPNTB1J5q7K9PhAPtdrrgOIg9YBAABNkpLUkWR/W54dGzRNCkRD6wAAgOaoSR17m5c6kp7H5pfPsPhSgChoHQAA0BS1qWNP81JHsu/NqcnR6hkWzzqAOGgdAADQDOlJHZn9XaW5Qr9pUiAaWgcAADTBitRRunLzI0kzW8ezlaJpUiAmWgcAADReTerY29TUkWQ/qk6T5k2TAtHQOgAAoOFqUsfNB5Lmto47FkyTAlHROgAAoNFSlTqS7remJkZMkwIR0ToAAKDBllPH0NI/YNnV5NSRdCxNk2odQDS0DgAAaKya1HFz01NH5r1KcXhgKOcMCxANrQMAABqqNnV0NDt1JNk7y9Njg/mcaVIgGloHAAA00qnUMXhiMhWpI8nefGqaVOsAIqF1AABAA61MHdtv3tn81JF0XrZgmhSIi9YBAACNsyJ1zKQjdWQ2rp+ZHDVNCsRE6wAAgIapedXxRRpSR5L5ZaU0XBjqM00KxEPrAACARql51fHF7jSkjiS7ozw9PpDP9ZrrAKKhdQAAQIPUbnW8m6SjdbxWnh0bNE0KxETrAACAxqj9BywpSR1Jz7r5iZHjx44cPuQbAmKhdQAAQEPUpI4H05I6kn3/Ympy1BkWICpaBwAANEJt6ngqLakjs6GrNFzoN00KxETrAACABliZOtY/uD8tqSPJXl0pmiYFIqN1AABA/a1MHZ+nKHUk2Wur06R506RATLQOAACou5rU8ecpSh1Jz/sLJ08cr55h8S0B0dA6AACg3mpTx4YUpY6k7a2pyRHTpEBctA4AAKizmtTxm1SljszOrtJcob9P6wBionUAAEB9LaWOvmrqKH5+RapSR5J9oVIcHhjKOcMCxETrAACAuvpK6sikq3XcWp4eG8znTJMCMdE6AACgnmpSx8tbk3TJPnhqmlTrAOKhdQAAQB2dTh0jaUwdSecb8xOmSYHYaB0AAFA/KU8dmUfWz8yNmiYFIqN1AABA3dSkjuu3ZtLWOrKPVorDhaE+06RAVLQOAACol5Wp43fXb0ld6kiy95enxwfyuV5zHUBMtA4AAKiTmlcdd6QwdSQ915VnTZMC0dE6AACgPlamju13bElSqPP1+YmR48eOfHzI1wVEROsAAIC6OJM65lL6qiPJtD8+M2maFIiO1gEAAPWwnDry1dSx/UepTB1JdmtXyTQpEB+tAwAA6qA2dbyYpFL26UrRNCkQH60DAADW3ldSRyadraPnnvLs2GDeNCkQGa0DAADW3MrU8flPX8wmKW0dV82fXDrD4isDYqJ1AADAWjuVOo5XU8erv0xr6kj2PTQ1OfrZMdOkQGS0DgAAWGMrU8fvXv1ValNH9t2u4lyh3zQpEButAwAA1lYoqSPJ3lspDg8MmSYFYqN1AADAmqpJHVelOHUkPU8sTpPmTJMCkdE6AABgLS2mjiPLqeO+NKeOpOeKheVpUq0DiIrWAQAAayig1JF0f29qYsQ0KRAfrQMAANZObep4NNWpI7Nr/czcaH+f1gHERusAAIA1U5M6Hnu0J82pI8k+XykOF4acYQGio3UAAMBaCSp1JD23l6fHTZMCEdI6AABgjVRTx+FTqWNd2lNH0vOJaVIgTloHAACsjcBSR9J54/zSNOkh3x0QF60DAADWxIrUMR1C6shsfHxm0jQpECOtAwAA1kJN6vhO+lNHkt1SKZkmBaKkdQAAwBo4kzqGp3/3+vPpTx1J9ieV6fGBfK7XXAcQG60DAAAuXU3q+MHznelPHUnPO+XZsUHTpECEtA4AALhkp1PHaDCpI+m5b375DIvvD4iM1gEAAJeqJnX8PozUkdn35tTkaPUMi2cdQGy0DgAAuEQ1qePGMFJHkt3fVZwr9JsmBSKkdQAAwKWpSR3XBJI6kuyzlaJpUiBOWgcAAFyS2tRxeSCpI+m5uzpNmjdNCkRI6wAAgEsRaOpIeq5fME0KRErrAACAS1CTOi67vDMTSutoe2tqYsQ0KRAlrQMAAFZvZer4/NvhvOpIMh3rZ6rTpFoHECGtAwAAVq3mVce3A3rVkWTfqxSHB4ZyzrAAEdI6AABgtWpSx4/f607C0fNMeXpsMJ8zTQpESOsAAIBVWpk6/uqNoFJH0rn31DSp1gFER+sAAIDVqUkd3wsrdSSdl82bJgVipXUAAMCq1KaOl8JKHdk9j89MjpomBeKkdQAAwGrUpo4XwkodSfbFSmm4MNRnmhSIkdYBAACrsCJ1zP7Vk6GljqRnx+fT4wP5XK+5DiBCWgcAAFy8pdSRy382Ojw7/9bfhJY6ks4byrNjg6ZJgThpHQAAcNGWU8enS6nj3u5McK1j3cLEyPFjRw4f8mUC8dE6AADgYtWmjmeDe9WRJO0/nJocdYYFiJTWAQAAF+l06igMz85verYtvNSR3dBVHC70myYF4qR1AADAxTmTOsZn5zddHWDqSHqurhRNkwLR0joAAOCi1KSOPwSZOpKea6vTpHnTpECctA4AALgYtanjtiBTR9L5o4WTJ45Xz7D4QoEIaR0AAHARalLHQ4GmjqRt09TkiGlSIFZaBwAAXLja1PF0oKkju3v9zFyhv0/rAOKkdQAAwAVbmTqmHvpJoKkj6XmhUhweGMo5wwLESesAAIALVZs6doSaOpKeO8vTY4P5nGlSIE5aBwAAXKgzqePk1E079oWaOpLOL05Nk2odQIy0DgAAuECxpI6k+42pCdOkQLy0DgAAuDArU8cP7w84dWQPrJ+aGzVNCkRL6wAAgAuyMnVs+1nAqSPJPlopDheG+kyTApHSOgAA4ELUpI7bQ04dSc+X5enxgXyu11wHECetAwAALkBN6ngm6NSRdL5WnjVNCkRM6wAAgPNbTh39hbGTU9vuDDt1JJ2vLyxNkx7yxQJR0joAAOC8alLHzwNPHZn2W2YmTZMCEdM6AADgfA4eOnQmddy6LxN268hurZRMkwIx0zoAAOA8qqmj91TqeCLwVx1J0nNbpWiaFIiZ1gEAAN/sVOoYWEwd7aGnjqTz7fLs2GDeNCkQLa0DAAC+0cGD1dRxrJo6ZrZ9FH7qyHR+a/7k0hkWXy4QJ60DAAC+SU3quDb81JEkbW9OTY5Wz7B41gFESusAAIBvEF/qyL7bVZor9JsmBeKldQAAwLmdSR0TM4/fE0PqSHrurU6TDpkmBeKldQAAwDkdPHjo496jS6njyneiSB1J562L06Q506RAtLQOAAA4l6+kjkwcreM3C8vTpFoHECmtAwAAzqEmdfx2YxKH7uemJkZMkwIx0zoAAODsalLHaxvjeNWRZHd1leZG+/u0DiBeWgcAAJzV6dRxYmLmyutiSR1J9vJKcbgw5AwLEDGtAwAAzibS1JH0fFCeHjdNCkRN6wAAgLOoSR0f7okmdSSd15kmBWKndQAAwNetTB3bN2/MRpM6ku7X55emSQ/5loFYaR0AAPA1Naljb0SvOpLMxq6ZSdOkQNy0DgAA+Krl1DE0cGKitP3mmFJHkt1SKZkmBSKndQAAwLlTx8z2L6JKHUnPTyrT4wP5XK+5DkDrAACAVksdg9VXHQ8+ko0pdSSdD5RnxwZNkwJaBwAAtGLqmJzZ/pvIUkfS/er88hkW3zSgdQAAQKuljtL2K2JLHcm+N6cmR6tnWDzrALQOAABotdQxs/3lA7Gljuz+rtJcod80KaB1AABA66WO0vbro0sdSc+zlaJpUkDrAACA1kwdd8SXOpLOJ6rTpHnTpIDWAQAArZc6frQrvtSRdL68YJoU0DoAAKC1UkffUup4vyPC1JG0PTc1MWKaFNA6AACg9VLHT6NMHdmOpWlSrQPQOgAAoKVSR3H7q1GmjqTn8kpxeGAo5wwLoHUAAEBrpY6r4kwdSc/t5emxwXzONCmgdQAAQMukjpHJ4vb7dsaZOpLOD09Nk2odgNYBAAAtlDp2R5o6ku7fLyxNkzrDAmgdAADQOqnjsWhTR2bj+pnJUdOkgNYBAACtlDo+Xxdt6kiyWyql4cJQn2lSQOsAAACpI4pp0rvK0+MD+VyvuQ5A6wAAAKkjhmnSd8qzY4OmSQGtAwAAWid1fGdnxKkj6b5vfmLk+LEjh02TAloHAAC0Rup4vSPm1JFpf3NqcrR6hsWzDkDrAACAlkgdfxZ16kiyG7pKw4V+06SA1gEAAC2SOl7vyMScOpKeqytF06SA1gEAAC2ROk4svuqIO3VkOq+tTpPmTZMCWgcAALRE6rhxVxK57jvmT544Xj3D4qsHtA4AAIg+dfxZR+ypI7PvLdOkgNYBAADRp45ji6lj+3eiTx1J9t2u4pxpUkDrAACAFkgdpe3rdkafOpKev6xOkw6ZJgW0DgAAiD11FLc/1gKpI+m8dXGaNGeaFNA6AAAg8tRx5X2tkDqS7gcXlqdJtQ5A6wAAgKhTx1W7WyF1JPt+PDUxYpoU0DoAACDy1FG68tXWSB3ZjvUz1WlSrQPQOgAAQOqIYpr0vUpxuDpNqnUAWgcAAMScOr7VIqkj6XylPG2aFNA6AAAg9tTxo3dbJHUk3ZtNkwJaBwAARJ86rn+qVVJHpu33pkkBrQMAAKSOeKZJD/xwZm7UNCmgdQAAgNQRyTTpryrF4cJQn2lSQOsAAIBoU8fLLZQ6ks4d5enxgXyu11wHoHUAAECkqeOKVkodSfcN5VnTpIDWAQAAEaeO37RU6kjaHptfmiY95OcA0DoAACDG1PFga6WOzJ43ZyZNkwJaBwAASB2xTJNuWV8yTQpoHQAAEG3q+GJ/a6WOpPPpimlSQOsAAIBoU8fNrZY6ku57yrNjg6ZJAa0DAABiTB3bWi91JG3vz59cOsPiZwHQOgAAILLUceXe1ksdmfaH5idHq2dYPOsAtA4AAIgodQxUX3XsfarlUkeS3dBVGi70myYFtA4AAJA64pgmfbZSNE0KaB0AABBX6ugfODFR2ra5FVNH0v1EdZo0b5oU0DoAAEDqiGOa9IoF06SA1gEAAFJHNNqfm5ocMU0KaB0AABBb6vjk3dZMHdnd60tzhf4+rQPQOgAAIKrUsblFU0fS+VKlODwwlHOGBdA6AAAgqtSxu0VTR9J95+I0ac40KaB1AABARKnjk5ZNHUnb3lPTpFoHoHUAAIDUEb59l01NmCYFtA4AAIgrdezMtGzqyP7Hrpm5UdOkgNYBAAARpY7NHa2bOpLO5yvF4cJQn2lSQOsAAIBYUscnrZw6ku4PytOmSQGtAwAApI5opkm/a5oU0DoAACCm1LF5V0unjsy+dfNL06SH/GAAWgcAAASfOma2bT7Q0qkjyTzy+MykaVJA6wAAAKkjEj0vVkqmSQGtAwAApI5opknvKk+PD+RzveY6AK0DAADCTx17H8m2eOpI2h4oz5omBbQOAACIJHXsafnUkez76fzEyPFjRw6bJgW0DgAACD91ZFo+dSR7HqpOkx4zTQpoHQAAEH7q2OhVR9Kz1TQpoHUAAEAUqePKLzZ61ZEk3VdXTJMCWgcAAESQOrZ90S51VKdJ7y7Pjg2aJgW0DgAAkDqikNl3/fzJpTMsfkAArQMAAAJOHQ9u1DkWW8fG56YmRz8zTQpoHQAAEHLqKG37jVcdy9Ok+7tKc4V+06SA1gEAACGnjiuv8KpjWee9laJpUkDrAACAYFPH0HLq8Krj1DTprdVp0rxpUkDrAACAgFPH9VLHafu+WFieJtU6AK0DAADCSx2DUsdXbLxmanLENCmgdQAAQKipY7J05R1SxxnZ3bfMVKdJtQ5A6wAAgGBTxx6pY8U06UuV4vDAUM4ZFkDrAACAQFPHt6SOmmnS28vTY4P5nLkOQOsAAACpI4pp0utMkwJaBwAABJw6fip11Gp/fWrCNCmgdQAAQKCpY/tVj0gdtdOkHT+cmRs1TQpoHQAAEGbquE/q+Oo06aOV4nBhqM80KaB1AABASKmjb/lVxwFxo1ame0d5etw0KaB1AABAkKnjPqnj69OkvzVNCmgdAAAQZOoobr9vl7Tx9WnSq+aXpkkP+WkBtA4AAAgrdTwmdZxlmnTXH6YmTZMCWgcAAASWOkYmS9vXdSgbX9ezpVIyTQpoHQAAEFzqKH6+bqewcRbdT5enxwfyuV5zHYDWAQAAQaWO70gdZ58mvbY8e2LQNCmgdQAAQGCp4/XdssbZp0nvmJ8YOX7syGHTpIDWAQAAQaSO/ODIXPHz77yrapxV5pHnpiZHq2dYPOsAtA4AAAgndbz+lKpxjmnSrbcUTZMCWgcAAASWOv5M6jjnNOnVlaJpUkDrAACAYFLH8Wrq+MF+TeNc2p4oz44N5k2TAloHAAAEkzq2/2CDpHHuadIH50+eOF49w+KnBtA6AAAg3anjyOnUkZE0zmnPt02TAloHAACElDp+d+NWQePcsvtvKc0V+k2TAloHAACEkjp+L3V84zTp31SnSYdMkwJaBwAApDt1HD6dOrboGd84TXrn4jRpzjQpoHUAAEAYqeNFOeObp0k3LyxPk2odgNYBAADpTx03/lLN+EaZja9PTYyYJgW0DgAACCF1TP/uxl+pGeeZJt25fqo6Tap1AFoHAACEkDoeFTPOo/O9SnG4Ok2qdQBaBwAApDt1DE//7sbntYzzTpN+UJ42TQpoHQAAkPrUMVpNHZdLGeefJn3NNCmgdQAAQCCp4z0l4/w23rc8TXrIjw+gdQAAQLpTx0tCxgWcYen44czcqGlSQOsAAIDUp45rXhAyLmSa9NFKcbgw1GeaFNA6AABA6ohimvSu8vT4YD7Xa64D0DoAACDVqeNeGePCpknvMU0KaB0AABBA6nhWxbjAadIfzZsmBbQOAACQOqKZJt311sykaVJA6wAAgFSnjr+65moR4wL1bKmUTJMCWgcAAKQ9dWREjAudJr2tMj0+YJoU0DoAACDFqeOy26SOC7bv7vLs2KBpUkDrAACA9KaOa56WOi5imvSK+YmR48eOHjZNCmgdAACQxtQx+1eX/UTquIhp0gPfnpocrZ5h8awD0DoAACClqSOrYFzENOmG9aXhQr9pUkDrAACA9KWOzxZTxw6p42J0P1spmiYFtA4AAEhf6shJHaubJr21Ok2aN00KaB0AAJCy1PGp1LG6adK98ydPHHeGBdA6AAAgnanjS6njIh34gWlSQOsAAIA0po5CNXV8IHVcpOxTj5fmCv19WgegdQAAQMpSx/jsX1/2M6njoqdJX6hOkw7lnGEBtA4AAEhd6vj27T3axUVPk76yOE2aM9cBaB0AAJC61PGK1HHx2q9bME0KaB0AAJDK1PGM1LEKex6bmhgxTQpoHQAAkLrU8WOpY1XTpO++OWOaFNA6AAAgdanjv/z4zk7hYhU6L68UhweG+kyTAloHAACkKXX8tdSxSm1flqdNkwJaBwAApC11vPFzqWOV06TvmCYFtA4AAEhf6rhV6ljtNOm35pemSQ/5mQK0DgAASEfqOPnX37u1W7RY5TTpzrdmJkdNkwJaBwAApCx1ZFSLVU6Tvri+NFwwTQpoHQAAkKbU8YRXHaufJn26PD0+kM/1musAtA4AAGhm66hNHV51rH6a9KPyrGlSQOsAAIA0pY672xSLS5gmvWJ+YuT4sSOHTZMCWgcAAKQhdfyXJ6WOS5HZ9e35ydHqGRbPOgCtAwAAUpE6PpI6LkXP1sdLw4V+06SA1gEAAKlJHbY6LkX3s5WiaVJA6wAAgFSkjrFq6tgnV1ySfT8vz44N5k2TAloHAAA0OXX0V1PHw9dKHZdo4+b5k86wAFoHAABIHbE48PqUaVJA6wAAgJSkjrf32eq4RNn9N5XmCv19WgegdQAAQApSR7tWccnTpO9VisMDQzlnWACtAwAAmp467pE61mCa9IPy9NhgPmeuA9A6AABA6ohimvSGBdOkgNYBAAApSB2b7mm31bEGHnl1amLENCmgdQAAQNNTxwMbdYo1kNm9aWZu1DQpoHUAAEATSkdN6nhH6lgTnY+uLw4XhvpMkwJaBwAASB0xaLurPD0+mM/1musAtA4AAGha6pja9MBGWx1ro/0e06SA1gEAAE1MHZ8tpo63vepYs2nSO+aXpkkP+SEDtA4AAGhS6nj4WqljzaZJd741M2maFNA6AACgaalj/OTUwx9JHWum55frS6ZJAa0DAACamjqekDrWcJr06fL0+IBpUkDrAACA5qWOW6WOtZwmvbY8a5oU0DoAAKB5qePJn0sdazpNesX8xMjxY0cOmyYFtA4AAGhC6vjrJ++UOtZ0mrTjDdOkgNYBAABNSx1TTz4jdaztNOmWimlSQOsAAIDmpY5X2uWJtZ0mvbpimhTQOgAAoDmpY3bqyZ9JHWs9TfpEeXZs0DQpoHUAAEBTUsf9UseaT5M+uDhNetQ0KaB1AABA41PHDqljze28Zmpy9LNjpkkBrQMAABqeOr63Y580sdayW28xTQpoHQAA0JzUcZfUUYdp0mcrRdOkgNYBAACNTx3zT3rVUZdp0lur06R506SA1gEAAI1NHf4BS72mSffOnzxx3BkWQOsAAIAGpw6vOuo1Tfq6aVJA6/ARAADQhNTxpdRRp2nSH5aGC/2mSQGtAwAAGps67pc66qP7XtOkAFoHAACNTx0fSB31mia90zQpgNYBAEDDU8fPpI562fOhaVIArQMAgIamjpNTT74iddRNx7p506SA1uEjAACgsanjmTZJom7TpBseKs0V+vu0DkDrAACABqaOjCZRt2nSF6rTpEM5Z1gArQMAABqVOu70qqOe06SvLE6T5sx1AFoHAAA0JnU8fKdXHXWdJv3ugmlSAK0DAIA6t46VqeNWrzrqKdNx1dTkiGlSQOsAAIDGpQ6vOuraOjb8YcY0KYDWAQBAo1LHJq866pw6Ol9aXxw2TQpoHT4CAAAalDqekDrqbN8H5WnTpABaBwAADUodd0sddZ8mfcc0KYDWAQCA1BGPjvdnJkyTAmgdAADUPXWMnZza9JHUUX/7N5kmBdA6AABoTOq4Vuqov873KtVp0j7TpIDWAQAA9Usd/VJH46ZJd5gmBdA6AABoROr4g9TRmGnSe0yTAmgdAAA0InW8LXU0Qqbj+qmladJDfgABrQMAAOqYOu6ROho0Tfq9mblR06QAWgcAAPVIHYdOp46HHpA6GqPn+UpxuGCaFEDrAACgLqmj91TqeEfqaNQ06S/K0+OD+VyvuQ5A6wAAgLqkjgGpo6FzHRuvNU0KoHUAAFDf1DHz0A1SR8N0XDFvmhRA6wAAoE6p45jU0fB3HfuvmZk0TQqgdQAAUMfUcdNrUkcDp0kfvWXaNCmA1gEAwFqnjoMrUsd3pY4GPutoe7o8PT5gmhRA6wAAoG6p4zqpo5E23l2eNU0KoHUAAFCn1DExc9OHUkdjp0m/WJomPWyaFNA6AACgLqljn/zQUPt/YJoUQOsAAKB+qeM6qaPR06TbSqZJAbQOAADWOnUc9aqjSdpuM00KoHUAAFC31PGJ1NHwadInyrNjg6ZJAbQOAADqkTo278uID42eJt08PzFy/NhR06QAWgcAAGuUOj4+kzrapYfGT5Oum5oc/eyYaVIArQMAAKkjBtlf3VQaLvSbJgXQOgAAWPPUsVfqaLxM99WVomlSAK0DAIA6pI7NG5WHJmj/+cLs2GDeNCmA1gEAwBqmjhPVVx1SR1Psum7+5InjzrAAaB0AAEgdcXjqVdOkAFoHAAB1SB17VIfm7HVs2VSaK/T3aR0AWgcAAGuZOm6WOpqk8y/XF8cHhnLOsABoHQAASB1RTJPeXq5Ok+bMdQBoHQAArGHqeERzaJZH3lkwTQqgdQAAsMap44Dk0DS775iaGDFNCqB1AAAgdURi6xszpkkBtA4AAC41dRw6dFjqSMc06Uu3FIdNkwJoHQAArGHq2CU4NNG+L8vTpkkBtA4AAC49deSO9Q+MTczc9EWH3tBMe942TQqgdQAAcKmp4+MzqWOv1NHkadKXl6dJD/nJBNA6AAC45NTx0If+AUuzp0kvm5kbNU0KoHUAAHBJqeNI7tPF1PGH16SOJut5b31xuDDUZ5oUQOsAAODSU8c/uEHqaPo06Q7TpABaBwAAa5I6Ts48/IDUYZoUQOsAACCe1PH2Aamh+dOkf26aFEDrAADgklNHYezkzJMfSR1pmCa90TQpgNYBAMCapI67HxEa0jBNus00KYDWAQDAGqSOh6WOlEyTfj49PpjP9ZrrANA6AACQOmKYJr3WNCmA1gEAwKWljsVZ0rttdaRkmvRB06QAWgcAAKtOHb1SR+qmSX9gmhRA6wAAYHWp49CZ1OECS2qmSV8yTQqgdQAAcMmp41qpIy3adpRNkwJoHQAArDZ1HFtOHbs0htRMk35kmhRA6wAAQOqIaZp03jQpgNYBAIDUEY0t62YmTZMCaB0AAKw2dUzMPPy21JEi2ZduMk0KoHUAACB1xDNNeld5enzANCmA1gEAwCpTx6Z7pI50TZPebZoUQOsAAGD1qeNhqSNt06Q3myYF0DoAALi41HHQqw7TpABaBwAAcaaOBzrEhZRNk75nmhRA6wAAQOowTQqgdQAA0Mqp4+hy6ninIyMumCYF0DoAAIgkdfyD30odKZwm3bs0TXrYNCmA1gEAgNQRwzTpY6ZJAbQOAABWlTpukDrSOE360qaSaVIArQMAgAtOHR+fSh1/kDpSqfsXpkkBtA4AAFaTOl7ryAoL6ZPZeHd51jQpgNYBAMBFpY4TUkeKp0k3z0+MHK9Ok2odAFoHAAAXkzr8A5aUTpPeZ5oUQOsAAGAVqcOrjrROkz5smhRA6wAA4CJTx0PXSR3pnSZdb5oUQOsAAEDqiMbGJ0yTAmgdAABIHRFNk35imhRA6wAA4GJSR+mhD6WONE+TXlWdJj1mmhRA6wAA4AJTx01SR5plXnrSNCmA1gEAwMWkjs1SR7qnSbebJgXQOgAAkDqimiYdGzRNCqB1AAAgdcRh54eL06RaB4DWAQDABaWOvVJH2qdJX52ZHP3MNCmA1gEAgNQRh5e+Z5oUQOsAAOD8qWOomjq23Sx1pF3nT9abJgXQOgAAuMDU8YXUEcA06e9MkwJoHQAAnDd1DEodoUyTXmeaFEDrAADgAlLHZGnbg1JHCNOk35oyTQqgdQAAcCGp48+ljiCmSb9dGi70myYF0DoAADhf6viN1BHENOkvtpsmBdA6AACQOmKRab+1PDs2mDfXAaB1AADwjanjyiukjmCmSU+eOO4MC4DWAQDAN6eOl6WOUKZJf2SaFEDrAABA6ohomvQy06QAWgcAAFJHNHqevrJomhRA6wAA4JtTx/VSRzD2mSYF0DoAADhf6rhD6ghHxw2mSQG0DgAAzpM6dkod4dhwvWlSAK0DAACpIx6X/6A0V+jv0zoAtA4AAM6ROn4kdYQke9tNxeGBoZwzLABaBwAAZ00d29/fmREQAtL2zOI0ac5cB4DWAQCA1BGDAw8smCYF0DoAAPh66uirpo7i9vd3Sx1h2f/g1MRIdZr0kB9lAK0DAICvpY5v7RYPAvPouhnTpABaBwAAZ08dn7/6rnYQ2jTps5uq06R9pkkBtA4AAKSOGHT/7PNp06QAWgcAAGdPHU9JB8HZc61pUgCtAwCAc6SO/cpBeJ76wjQpgNYBAEBt6ji2NEsqdYQ5TfrYzNyoaVIArQMAgK+ljp9KHSHKXL2pOFwwTQqgdQAA8JXUceX7G3SDIKdJb1+aJu011wGgdQAASB1SRwzTpG+bJgXQOgAA+HrquEPqCNR+06QAWgcAAF9NHaUrr5c6QvW8aVIArQMAgK+mjm1SR8DTpA+bJgXQOlLl//t7//xv//YfAgAp8n9v/fut4de//vUf//G/+jd/8a/v+Xc3/6enNINQdT794Gv/+i/+zR//+tdr+/Pxn/1HKkRP66Be/vf/nPEHNACk7H+Tt8SfzplsT2d3W/uenRsevfdPvv+znb73YLXfdufVj+4/0N7W478rgYujdVAv//g/+v0CAKQOVq/jT17501+++8i+bq0D0Dq0jpT4Pzb6/QIApA5Wb8Mr9//Nlt179nVntQ5A69A60uH/3OfPJACguanjfqkj6C/z+e/f9dLWjo1tnd51AFqH1pEO/++/7/T7BQBIHaxa573ff/ryDbs2tnVmfRiA1qF1pMK//Wf+TAIAGlw6llPHI9XUseP7X0odYTNNCmgdWkf6zrD49QIApA5WzzQpoHVoHak7w/K3fr0AgGaljj/d8f0/kTpCt+GZpWlScx2A1qF1pOYMS7tfLwCgOanj+Wrq6PD349C/0dPTpM6wAFqH1pES/7TNn0kAQJNSx59IHRFYniZtN00KaB1aR2rOsPxvzrAAAE1KHV51RKH96aVpUnMdgNahdaTmDMv/or8DAM1JHV9KHVHo+NI0KaB1aB0pO8Pyz/2ZBAA0PHXsXkwdd+3yHyIRfKkbXlmeJjXXAWgdWkdazrBs9NsFADQ6deyUOiJyuWlSQOvQOtJ2hmWf3y4AoMGpw6uOmHT+aXWatMM0KaB1aB0pOsPS7bcLAGhg6ti39Krj/u/fdUDqiMLpadJOXyigdWgdaTnD0uO3CwBoaOrYLXVEpeP+202TAlqH1pEq/8QZFgCgsalj+VXHI/5iHImtr9z/gmlSQOvQOpxhAQBaN3Xsljoi+2ZNkwJah9bhDAsAIHV8/xdSRzSWpkl3mSYFtA6tI0Wto80vFwDQ8NSxR+qIxulpUnMdgNahdTjDAgC0YurYuvgPWKSOiFSnSV80TQpoHVpHms6w/HtnWACAhqWOnUupY6O/FEdk6zP3v7Blp2lSQOvQOpxhAQBaMXUsver4hdQRlfdMkwJah9aRtjMs/8GfSQBAg1LHzq2XPyt1xKbzatOkgNahdaRtmrTd7xYA0JjUsbzV4QhcXNp/sTxN2qlhAVqH1pGW1tHtdwsAaFDquPzZ+//XX7T7G3Fc369pUkDr0DrSd4al0+8WAPz/7N1rcJVl3u/5AAM4MVuInFTSggcEBiRaoKBy8Ik0W33qqd6gj9Ajpnd3O73raQR1YmT3WE85u6tmMuPI2Na8coq9S50qeWbvquyqVHVNSzLkQLJyqBxXknXKSoi2exynnPfjm3ZcKweCDaw7QCBr3Z/v+26zrvt//f/3+nKt34WbpDqWP/x3VEfBkY0mPSaaFADXwXXMo2tY/t41LAAA4KapDqc6CpCTf/eBaFIAXAfXMb+uYfnvZEgBAIA5Vx3FU6qjxtfhQqNKNCkAroPrmG/8W9ewAACAm6Q6fkd1FCLT0aTiOgBwHVzHfOG/rLG1AAAA1YFrZsvDL/2rD0WTAuA6uI55dQ2LaFIAAHCTVMeDRb4MF+BDXvzSw1+JJgXAdXAd84r/WjQpAAC4OarjgyJLUogsPfWgaFIAXAfXMa/4f/69DCkAAEB14JqpzkaTbhFNCoDr4DrmD//3PzOUAAAA1YFrpmYqmrTcsQ4AXAfXMW+uYbGzAADAXKqO01RHYXNUNCkAroPrcA0LAAAIleqYPNXxOtVRqExFk1aK6wDAdXAd88Z1iCYFAABzqDomT3XsozoKlmw06TbRpAC4Dq5jPl3DIq4DAADMnep4bEp1+BpcsI96/9+9vnTx0WLRpAC4Dq5j/lzD8veGEgAAmDPVMXGq4++c6ihgij44tfzAR6dLi8R1AOA6uI55cw3Lf2coAQCAuVIdk6c61ssHK2Aey0ST7hVNCoDr4DrmEf/tfzCUAADAHKmOyayO5VRHIfPRSw9/JpoUANfBdcwr/q0TpQAAYI5Ux2NvZX/AQnUUNgc+nYwmda4DANfBdbiGBQAAFLjqOP3WqpNUR+E/7n/1d/tEkwLgOrgO17AAAICCVx1F2VMdJ5ffR3UUOpWiSQFwHVzHvLuG5d8bSgAAYC5Ux+kJ1bGf6ihwjn8nmhQA18F1zDP+L9ewAACAOVQd/4rqKHT23jcZTcp1AOA6uI554zr+B/sKAABQHbhmPvn0X0xEk7qGBQDXwXXMF/6r//yfAQCA+cL/9p8VBH/zN3/zL//3f/4f//XbL24u9fW34O3Wd6/+r//xn//Lv/mbuSqnv//vdQag4OE6AAAAMI85c6a27mx90/m2zsGePz/5aTEVUPAUnbiQam89f+5s7Rn1DwBcBwAAQMGqjo7IYM+flzxNdYSAo9+mh/pam+u5DgDgOgAAAApbdaT+vOQlqiMMrLw9Odzf1lxfR3UAANcBAABQ0KojRnWEhP0vxHsj3Y0NXAcAcB0AAAAFrjp+R3WEg0+fSQx2tjQ1+AkLAHAdAAAABa06VlAdIaHyxIbUQJdoUgDgOgAAAApbdaRXvEt1hITTokkBgOsAAAAofNXx5xUPUx2iSQEAXAcAAEChqI70iu+ojtCw/GvRpADAdQAAABS66li7uZQCCA3rRJMCANcBAABQuKqjpaOf6ggXFeXPXUi1t4omBQCuAwAAoBBVRyPVEUKOvpEe6usQTQoAXAcAAECBqo7eVHrtg1RHmDh4OBNN2iiaFAC4DgAAgEJVHV9THeFi/QrRpADAdQAAABSo6midUB01vv6HKq9jt2hSAOA6AAAAqA4UDpXvX+gRTQoAXAcAAEDhqo7XqY6wRZO+OBFNWldrLwAA1wEAAEB1IP/5ZGtyRDQpAHAdAAAABas6inz3Dxv7lkRFkwIA1wEAAFCoqmMf1RE+Pv5ZYqBLNCkAcB0AAACFqDpeoDpCeAtL5ZuiSQGA6wAAAChI1ZFIv7CvssJ3/9Cx5f6YaFIA4DoAAAAKUnV8va/SF/8QcmCXaFIA4DoAAACoDhQODz4Z7e0UTQoAXAcAAEDhqY715b72hzKv47WfZ6NJxXUAANcBAABQUKpj9Ot9VEc4KXpUNCkAcB0AAAAFqDrWrq/yrT+cbHtHNCkAcB0AAACFpzq+Xl/tS39IWbogORIRTQoAXAcAAEBhqY61VEd4+e7XmWjSJtGkAMB1AAAAFJDqcKojzNGkJ36eEk0KAFwHAABAQamOL1+gOsIcTXrbl6JJAYDrAAAAKCjVseFlqiPMHDscG85Gk1IdAMB1AAAAFIjqeGq5G1jCzMkX4qJJAYDrAAAAKCTVsYDqCDfvPh8dFE0KAFwHAABA4aiOl6mOkHNkdSaaVFwHAHAdAAAABaI6nlpPdYQ8mvT+tGhSAOA6AAAACkd1vLyv3Lf9kEeTbo0N94smBQCuAwAAgOpAgXBoRTaaVFwHAHAdAAAA+a86UhteeJ3qCD0v7YkOdrY0NfgJCwBwHQAAAPmvOr7+gOoIPdV3iSYFAK4DAAAg71VHU0tH9lTHv6A6UPTOl6JJAYDrAAAAyHfVcT6rOtZurvRNH28tEE0KAFwHAABAYaiOFVQHJqJJe0WTAgDXAQAAkOeqIzKY2rDiO6oDokkBgOsAAAAoFNXxn1Y8THXgBypEkwIA1wEAAFAIquPPS94t8jUfokkBgOsAAACgOlBgbBNNCgBcBwAAQCGojvuoDkxwUjQpAHAdAAAABaA6XqI6MMl9okkBgOsAAADIe9Xx5NNUB6Z47ueiSQGA6wAAAMhr1dHz5yefrvENH5NUvi2aFAC4DgAAgDxXHa88QHVgmi2iSQGA6wAAAMh31XGK6sBFli6Jj4gmBQCuAwAAIN9cxwzV8TzVgZm8K5oUALgOAACA/FYd66gOzOSIaFIA4DoAAADyWHX8p+d311T4eo+LlB8WTQoAXAcAAEAeq449u0t9u8dMjj4lmhQAuA4AAIC8VB1tkQGqA3/NgYloUq4DALgOAACA/FQdxb7b41K+E00KAFwHAABAvqqO2J6HqA78mHtEkwIA1wEAAJCvqmPHx1QH/iqa9G3RpADAdQAAAOSV6qg929B0vq2T6sDlOf2yaFIA4DoAAADyUnUkd3x83Bd7/BWPiyYFAK4DAAAg31RH84TqWEN14DJszkSTdosmBQCuAwAAIC9Ux5kZquM1qiMIxTVh+8QnstGkTeI6AIDrAAAAyCfVMZTcsfExHiMAx5fvDVs06e0bRJMCANcBAACQf6pj2cbTPEYQ1fH0kY/C9pFfiA33iSYFAK4DAAAgX1THuQnV8cwjVEeg7/0v/eFE2FbqQ9GkAMB1AAAA5I3qqLuoOo7yGLmpKH7pDwufDltex4OT0aRcBwBwHQAAAHmkOk5QHYFiSe/7w8L3lleF7FM/ko0mFdcBAFwHAABAPqmOP23hMQKqjoV/OFARrk9ddVg0KQBwHQAAAPmkOtqHkt/cs6WCyAigOt79w8KFC19dHLaIkrWx4X7RpADAdQAAAOST6jjiVEdw1bEwdKv1ySvZaFJxHQDAdQAAAOSP6tjGYwSg9N0/LNy5cOHCU6Uh++DfLYsOdrY0NfgJCwBwHQAAAHmhOuLbjxzjMYKojodX3Du+c+fOhevLQ/bJn1stmhQAuA4AAIB8Uh13UR3BTnWsWDQ2Nja+8x+Xhi2adMEF0aQAwHUAAADkk+p4i8cIojpeWvJFLJmMje08vCpkH/30b0WTAgDXAQAAkEeq4/29PEYQ1fHpKxfiiVQiPrrzrrDdWbN0R7w30i2aFAC4DgAAgPxQHZ9/xGMEUR2n9vw5MTQ8MpSI7VxXHLIP/9L2hGhSAOA6AAAA5rfqOEt1zFJ1rNsRS40MDgyOpGKL9lWG7NP/pCTV3iWuAwC4DgAAgHmrOmovqo5v7qI6AqmOh5bFenrb+/vbe3tiy0IWTVpRvjY91NfaXH+21u4BAK4DAABgfquO5DN3yeoIpDo+Lov1DPZ3dnX2D/ak7whbNOmWXyWH+9saRZMCANcBAAAwf1VHU3Nb58BQ8pkjVEcg1bEmozoirR0drZHB1Oj7W0L2+Z/9JiqaFAC4DgAAgHxQHcuojkAUv1YW6xmIdHS3dHdEBhNjoYsmXbc6MdglmhQAuA4AAIB5qjrqplXHjnveqiAyclJdvLEsmVEdLc3NLR2R3uh46KJJXyzpaW8VTQoAXAcAAMC8Vx0njlEdAVTH8QnV0Xa+sanxfEf/SHzZ0upwLUHl87Ghvo7m+jrRpADAdQAAAMxH1VHfdD6rOvY8QnUEUR2nT2xP9gx0tp1vOneu6XxH33Bs6+KQrcGxXyZHRJMCANcBAAAwH03HJapj4zaqI4Dq2PKn7cmhrOqob/hh7Vrbh9KfbwnZym1aHe3t7G4STQoAXAcAAMD8VR09VEcwqrYcmVAdzU31Z39YvJaugdTY7rBFk35ckhjoamkS1wEAXAcAAMA8VR2RjOp4bQvVEeBUx7Fp1dFw9ofVa2zpHEyM7asM2dq9/YVoUgDgOgAAAOa76lhDdQRRHW/dNUN1ZFxHd6Q3vv1AyKJJi5ZNRpNSHQDAdQAAAMxD1dERGeiJ/ebjo1RHgB+wfPT+z+JD7ZOqo7b2bH1zW/9wclfYokk/eiI+EhFNCgBcBwAAwHxWHQ+dpjoCnOpY/Pmk6jjXcLa29kzt2XPNrX1D6Te3hGwh1t8bHcxEk/oJCwBwHQAAAFRHXquOVXfOUB1nzmRcx/mu9hBGkz7yRWqgq0VcBwBwHQAAAPNSdQz2xJ7ffZzqCKA6Vv6kLD48oTrqMqrjTG1DUzaadH1RyJZiQVo0KQBwHQAAAFRH3quOg49mVEdX96Tq+GEV6xqy0aSrHw9bNOm9seF+0aQAwHUAAADMW9WxrpjqCKA6Pnzj55eqju/P1NU3ZqJJF4QtmnTVznhvpK2xgesAAK4DAABgnqoOIiOA6nj8xdXRH6mOzDUsoYwm/WAsOtjZIpoUALgOAACA+ak6TpU61RFAdRy4+8eq4/tsNGlrCKNJq4+MpQa6xHUAANcBAABAdeTxt/ul9/9tdLjvEtXx/XQ06b6QRZNW/UN6qK+1+dzZWrsJALgOAACA+aU6UrHnH6ihOoKojndKoiN9Xd2NM1THdDRpWciiSSuKnxBNCgBcBwAAwHxVHU/XEBkBVMehw5dRHdPRpC+ELJq0+uB4vDfSLZoUALgOAACA+ag6ioiMIKpj64aM6mi5VHV8PxVN+m3IokmrvxtPiCYFAK4DAABgXqqOl6iOID/ZOLRrNDrS1/pj1TEdTfpQyKJJq+4aS7W3iiYFAK4DAABgvqmO9J6XKomMAKrjqwWjicuojvBGk5avzUaT1teJJgUArgMAAGB+qY77qI4gP9j47AqqYzqadPXjVSGLJr03Odzf1iiaFAC4DgAAgHmiOhpbOvoHU+lX3qU6gvxeY9OC0URvRnXU/0h1TEeTfv1RyOzPh6JJAYDrmK8Uzrz1LJWiYvQEAGNitqqjN/XnJ9+tdNlsgJ9rXFl1ZKNJO/qG0o+GLJq0avOYaFJDGzC0uQ6d0n4A1+EBAHbmfFIdrf29qS+XfOdUR2DV0Z9RHWd/rDpCG01a/pxoUjMbMLO5Dq3ShoBatP6AnTn/VMdmpzqCfKv/7MqqI7zRpJUvp4f6OkSTmtmAmc116JU2BBzrsP6AjTmPVMeGtQ+6bDY3FeVfXUV1TEeTLvqkOlzLIprUzAbMbK5Dr7QjoBatPmBfzjvV8TXVEYTKZ3ddRXVMR5MuEU0KQxswtLkOzdKWgFq0+IBteStVR2LDC/uojutXHd/X1k1Ek74RsmjSctGkhjZgaHMduqUtgdAMbosP2JX5ojqeojpuhOqYjCbtGf1YNCkMbcDQ5jp0S3sCatHaA3blrVQdC9ZTHUFUx6GtV1UdE9GkXYOJsdfDtZ4VlU+JJjW0AUOb69AubQo41mHtAZtyPqmOXcupjhuhOqaiSaP3HqgKl+s4/gvRpIY2YGhzHfqlTQGuw9ID9uStVx0Nk7GkJVRHUNVx4eqqYzKadCT5/N5wLU3VQdGkZjZgZnMdGqZtAbVo5QF7ct6ojsSGrfupjhujOqaiSWN3Hw3X2ogmNbMBM5vr0DHtCzjWYeEBW3K+qI6+3sSGO6iO4Kqj76qqYzqadGPIokkrj4gmNbQBM5vr0DLtC3Ad1h2wIeeP6viM6gjybf7kHTlVR8Z1NLV0DSTGNteEa3WKRJMa2oChzXVomTYG1KJlB2zI+aE6RlIlh5+lOm6U6piOJl20tDxUqyOa1NAGDG2uQ8+0M+BYh2UH7Mf5ojoSG26nOgKrjpFcqmM6mvRXH1WEanlEkxragKHNdWiadga4DqsO2I7zRnW8c6hSfQRRHYc3BFAdGdeRjSa9fUu41kc0qaENGNpch6Zpa0AtWnTAdpwvquPVk5UVCuTGqY6paNI/HQ/XAhXdMyqa1MwGzGyuQ9u0N+BYh0UH7MZbqDrOzlAd6mNWqqPhaqpjKpo0NfZuyKJJaxaIJjWzATOb69A3bQ5wHdYcsBnnh+qQ1RFMdZSkgqiOTDRpU3dnb3T8UHmojstUHL9XNKmZDZjZXIe+aXdALVpxwF681aqjN/HlO1RHUNURDaQ6JqJJIyPx7YurQ7VEVR+KJjW0AUOb69A47Q441mHFAVvxFquO/t7EhbcPUR0BVUcimOqYjCYdjm0NWTRppWhSQxswtLkOjdP2gFq04ICtSHXkj+p4O+ipjovRpO+HL5q0RzSpoQ0Y2lyHzml/QC1ab8BOvMWq4/CzVEcAyk/eHlh1ZF1HNpr06Zpw3W5Ts2tUNKmhDRjaXIfWaX8gDFPcegM2ItWR91TMSnV8f6a2oamlczA6vqkyXMt0+peiSQ1twNDmOrROGwRq0XIDNuItVh13fEV1BGB2qiNzDUs2mvSJ8EWTRkWTmtmAmc11aJ62CBzrsNyAfXhrVccmqiOQ6nhnUnWcC6I6JqJJ+4djL4cxmrRLNKmZDZjZXIfuaYuA67DYgJlwy1TH6NZNRRUq5Marjslo0vSbIYsmrTkhmtTQBsxsrkP3tEegFq01YBfeWtWx36mOYKrjb2ejOi5Gk64rDddKlW6NiSY1tAFDm+vQPm0SONZhrQED4daqDqc6gqiOV2d1qmM6mjQxvjxcLql6S1lyRDSpoQ0Y2lyH/mmTgOuw1ICBcKtUR3rX/hoVEkh1zO5Ux0Q0aXekNz6+KlzRpOUHRJMa2oChzXXon3YJ1KKVBsyDW6k6llMdAaiaveqYjiZ9MmTRpEW/G0sMdLU0ieswtAFDm+vQQO0SONZhpQHz4OarjhTVMXeq4/vas+eaW/uG0n98LFyLVfq+aFIzGzCzuQ4t1D4B12GhAePglqmOBeupjrlSHdlrWDLRpA+FLJr0+AuT0aRUh5kNmNlchxZqo0AtWmfANKA6Ckh1XIwm3ReyaNK9i+IjEdGkZjZgZnMdeqiNAsc6LDNgGNxU1dHU0pFVHfuojiBf3q9JdUxHky46WBWq5ar8bDw62NndJJrU0AYMba5DE7VT4FiHVQbMgpuoOs5nVEfsqdepjgBUnXznWlRHNpq0rX84+XzIoklr1o2lBrpaxHUY2oChzXVoorYK1KJFBoyCm6060i+/XlOhRnJSfehwybWoju9rz9Zno0lfPB6uBSt+NC2a1NAGDG2uQxe1VVD4A90iA3bffFMdkcFU+uUHS5VIANWxaWtJ4lpUx3Q06cchW+ejv40N94smNbQBQ5vr0EXtFahFawyYBDdddbxAdQRSHfsXbLgm1TEdTTq2PlzRpFUrn4j3RrobxXUY2oChzXVoozYLHOuwxoBBcJNVx2aqIwAVy1++kOi9FtVxMZp0ZbiiSYvWjyUGO1uaGvyExcwGzGyuQyO1W8B1WGLAILiZquNrqiMI1evXjiZ6+1tbGutnqzpmRJOGKxWldM1YSlyHmQ2Y2VyHRmq7QC1aYcAcuNmqY+13VEcQ1bFvyTWrjulo0ruLw7Voj92fHurraK7nOsxswMzmOnRS+wWOdVhgwBS4eaojtoLqCKQ6Xl+SnlQdZ2etOi5Gk4brYt+Kt/Ykh/vbGkWTGtqAoc11aKX2C7gO6wuYAjdTdbxLdQSg/IPrUB3T0aTj6yvDtWoHxqOiSQ1twNDmOrRSGwZq0fIChsBNVh2/K1YjuancvCSdumbVMR1NOr4qXNGkNd+NJQa6RJMa2oChzXXopTYMHOuwvIAhcNNUR09syX3FFYokJ0XfXZfqyEaTdvQPx371WKiWraL4T6M9okkNbcDQ5jo0UzsGXIfVBcyAm6o6XqI6AlDz7pPXpTq+rz17LpTRpFvuiGWjSetqbTwzGzC0uQ7d1JaBWrS4gBFAdcwfSu/7bTo1GOm4ZtUR1mjS6sVl8ZGIaFIzGzCzuQ7t1J6BYx0WFzACbp7qeJrqCEDx06/EMqrjfNM1qo7QRpNWfjUeHezsbhJNamYDZjbXoZ/aNOA6LC1gAMyh65ihOp58gOoIojpOPR/ruS7VMR1Nuihk0aSln46lBrpaxHUY2oChzXXop3YN1KKVBfR/qmMecXzddauOi9Gkx8O14qc/T4smNbQBQ5vr0FDtGjjWYWUB/f+mqY5XTlEdAXjsoT3XrToy0aTns9GkpeFavLcWxIb7M9GkVIehDRjaXIeOatvAsQ4LC2j/c6w6Bnpiv153XJHk5vSaHdevOi5GkxaFSi9Vf7g63htpaxTXYWgDhjbXoaPaN1CL1hXQ/edWdbRlVMfz645Xq5KcHN24I9YzcJ2q42I06fLKUK1e0frxxGBnS1ODn7AY2oChzXVoqfYNCne6W1dA9583quM3u4upjtyc3rgsef2qIxtN2hbpje9cHK5o0uKHMtGk4jrMbMDM5jr0VDsHatGyApr/TVEdTnUEVx1t16k6QhtNuuXR9FBfa3M912FmA2Y216Gp2jpwrMOyAnr/XKuOPVRHcNXRed2qYyKatL0nfX9NuBZw8YrkcH9bo2hSMxsws7kOXdXWAddhUQGtf25UR+3ZhqbzbZ0Z1fEQ1RGAx26U6shEk7ZMRJOGagGrDtwb7410iyY1tAFDm+vQVe0dqEVrCuj8c6w6kjseeozqyM3xRy5RHde1+Nlo0uj48vJQrWDRg2OiSQ1twNDmOrRVeweOdVhTQOefU9XRPKE6PqY6ZqU6Gq5TdUxFk0bDFk16fM1oT3uraFJDGzC0uQ591eYB12FJAY1/rlXHmtNUR4Dv6RufyaqO5utXHdPRpL8sDVc06bY30kN9Hc31dbW2oKENGNpch75q90AtWlFA37/BquPMlOoYojoCUVH8yEXVUXu9xxImo0lHXw1XXMdfVq1IjogmNbQBQ5vr0FjtHjjWYUUBfX+OVccyqiMIN1R1TEeTrqkM1SJWn7w3IZrUzAbMbK5Da7V/wHVYUEDbn2PV8cxrR6mOm6w6QhtNWrN5LDHYJZrUzAbMbK5Da7WBoBYtJ6Drz4nqODepOjZSHQEoPfHMdCzp9auOqWjS+M7F4Vr846+JJjW0ATOb69BbbSA41mE5AU1/blRH3ZTq+IbqCKQ6HrmhqmMqmjT9TciiSY/dFhNNamgDhjbXobnaQeA6rCag58+p6tj+CNURRHXc2FMd09Gk6bBFk64UTWpoA4Y216G52kJQixYT0PLnUHW0DyW3n9hCdQRRHd9Mq466G6E6pqNJP64M1UJWHVodFU1qaAOGNtehu9pCcKzDYgJaPtVxq6m50apjRjRpVbhW8ruxxEBXS5O4DkMbMLS5Dt3VHoJatJaAjj83qqOM6gimOrbfYNUxFU0a3flRuB7AYxtFk5rZgJnNdeivdhHUoqUENPy5VB33bKM6gqiOqVMd9TdKdUxFk8a2l4ZrLfe+KJrUzAbMbK5Dg7WLUNiz3lICGv4tVR3xsiPbqtRJLiqKTmyP3WjVMR1NergyXKt5cElyJCKa1MwGzGyuQ4O1jaAWLSSg3VMdt5CiP5XFegYiN1Z1ZKJJz2eiSTeWh2oxqz5bFO3t7G4STWpoA4Y216HD2kZwrMNCAtr9jVUd3ROq4xjVEUB1ZE913GDVMRVNmhjfF7Jo0ndFkxragKHNdWix9hG4DusI6PZzpTpWP0d1BKByTlRHNpq0O9Ib37kqXIEppx8RTWpoA4Y216HF2khQi5YR0OznQHV0tQ/HS+6iOgJQ9Mg3c6E6pqNJnyitCNV6iiY1tAFDm+vQY20kONZhGQHNfs5Ux/tvUR25qdw4N6rj+9qz9c2tfUPpXZXhWtBPRJMa2oChzXVosnYSuA6rCOj1c6U69lIdt1B1TEeT3hOyaNL994omNbMBM5vr0GXtJahFiwho9XOiOj6nOoKojv/zmblRHdPRpGMPhiya9KWxlGhSMxsws7kObdZegmMdFhHQ6udAddxJdQSgaM2yjOrouPGqYzqadNHBcEWTHj0hmtTMBsxsrkOftZnAdVhCQKOfC9Xx5kdUxy1VHZlo0sa2/uHkvcXhch0f3R0bzkaTUh2GNmBocx36rN0EtWgFAX2e6rjpquPjHbGewblRHd/XZq5h6RtKrw1XXMdfHl8SF01qaAOGNteh0dpNcKzDCgL6/I1WHRt+QnUEUR0PzaHqyEaTtrb3jN4VrkdRtbwkOiia1NAGDG2uQ6e1neBYhwUEtPkbrDq+XUx15KRiTlXHRDRp12Bi7N1wPYvST0WTGtqAoc116LT2E9Si9QN0+RunOhozqiNKdQSiZvdcqo6paNLo+OMhiya9RzSpmQ2Y2VyHXmtDoZDHvvUDdPlbozoepTpuveqYjCYdSd77WEWo1nXx/bHhftGkZjZgZnMdeq0dBbVo+QBN/kapjr6M6lhFdQRRHXvmVHVkXEc2mvS3leFa2KWiSc1swMzmOjRbOwpch8UD9Pgbqzq+eGNVuVLJrTrWXaI65uBYx1Q06bchiyZdvyg62NkimtTQBgxtrkO3taVQoIPf4gFa/K1QHX+kOuaD6si4jqaWroHE2NPhiusofWA0E00qrsPQBmxzrkO3taegFq0doMPfKNVx20qqIycVNafmWnVcjCY9GS7XseVIWjSpoQ0Y2lyHdmtPwbEOawfo8DdEdbR09Y1Ex16kOgJQ+sCcq47paNKdR8MVTbrqVdGkhjZgaHMd+q1NBa7D0gEa/I1UHQepjvmhOqaiSWM/rQzX4p58Mt4baWsU12Fow9AG16Hf2lVQi1YO0N9viOq4m+oIpDqevwmqYyqa9O5w/YSl6vUNE9GkfsJiZsPMBteh49pWcKzDygH6+/WpjtaM6rj/Q6ojgOp4+iaojulo0gu7QxZNunssNdAlrsPMhpkNrkPLta/AdVg4QHu/MarjE6pjvqiOTDRpU3dnb3T8q3DFdWx7Pz3U19rMdZjZMLPBdWi5NhbUomUDNPfrUB31k6rj1cepjgCq46WbojomokkjI/Gd28LlOg4eTg73t4kmNbRhaIPr0HNtLDjWYdkAzZ3qKDDVMR1N+svKcC3wpj3x3ki3aFJDG4Y2uA5N184C12HVAL39ulXH6DsHqI75pDqmoklvD1dcR/nDixKiSQ1tGNrgOjRdWwtq0aIBWvt1qI6zU6c6bqc6gqiO+26S6piKJk2NrQnXT1iKXxvtaW8VTWpow9AG16Hr2lpwrMOiAVr79aqO0cNLqY75pDq+P1M7GU26P1xLvPfb9FBfR3N9HddhZsPQBteh79pbcKzDmgE6+3WojsTo4ZNUx7xSHVPRpMmdb4VrjR/flRzpb2sUTWpmw8wG16Hv2lzgOiwZoLNfh+roTYzecYjqCKA6fvfKTVMd09Gk71WGao0rlu+IiiY1s2Fmg+vQeO0uFOo7gBUD9PWbpDr6exOjW6mOQKrj1zdRdUxFk74drkWu/HQsMdDV0iSuw9CGoQ2uQ+O1vaAWLRigrVMdc0xF6QM37wcs09GkiS8+DtcyP3ZCNKmhDUMbXIfOa3vBsQ4LBmjr1686nqU6clO8bs9NVB3fn6mbiCZdtClcy7z4tthkNKldamjD0AbXofXaX+A6vDUBuvq1qo5dX1EdAVTHxztupuqYjiZ94li41vnQy/GRiGhSQxuGNrgOrdcGg1q0XICmfl2qYxPVEUB1bNwR6xm4eapjOpr0V5WhWueKB8uig53dTaJJDW0Y2uA69F4bDI51eGsCNPVrVh0LqI4AHL/nm5usOiajSS/cH66FLto9lhroahHXYWbDzAbXofvaYuA6vDYBevq1q479VEduip/bnuwZiLTdNNUxHU1asjtcK330rrRoUjMbZja4Dt3XHoNatFiAlk51FJ7qyESTNnZHeqOrvwrXUq+8Pzbcn4kmpTrMbJjZ4Dq0X3sMjnV4awJ0dKpj7lTHXWXJnoHOm6k6JqJJ+0eSvwxZNOmmtdHeSFujuA5DG4Y2uA791yYD1+GtCdDQqY65VB3bk0M3WXV8XzsZTfrTcD2h6t+tTgx2tjQ1+AmLoQ1DG1yH/muXQS16awL082tRHU/tr1ItOSm9qyyrOpqbGjKq4yY9p8lo0g0vhmuxa9ZkoknFdRjaMLTBdWjAdhkc6/DWBOjn16Q60k9tqlYts1IdtTftG/iZ2oamlq7BxOqQRZNuezM91NfaXM91GNowtMF16MC2GbgOb02Adn4NpzpeoDrmreqYjibd/my4lvvxw8nh/rZG0aSGNgxtcB06sG2GwnsbsE6Adn5TVIcfsOSkoub9W6I6JqNJh5PLtoVrwdc/Ge2NdIsmNbNhZoPr0INtNDjW4bUJ0M2vQXW8THUE4Fapjqlo0vSKylCtd/WpksRgl2hSMxtmNrgOPdhOg1r01gRo5rNXHReojlmrjjM38ev3ZDTpUMmj4Vrw0j+N9rS3iiY1tGFmg+vQhO00cB3emgC9fPaqYwHVMZ9Vx0Q0aedgouxUuFZ87xuxob6O5vq6WhvW0IahDa5DF7bV8L2fsHhrArRyquNGU3TLVMdUNGl82aFwLfnJXckR0aSGNgxtcB26sL0GteitCdDJZ606NlAdgVTHXWXJnluR1fH9xWjS57dUhGrNN/8m2tvZ3SSa1NCGoQ2uQxu21+BYh7cmQCcPpDoaMqqjrzexYRfVcVNVx5lJZvE/qT1b39zaN/Tl1+WhWvOqh0pSA10tTeI6DG0Y2uA69GGbDVyHtyZAI5+N6ijZ9Vm5cslJ5ZEbojomLEftD8xGd2SjSbvaU3/7k3AtevH7oknNbJjZ4Do0YtsNatFrE6CPz1Z1pEq2Uh0BKLphqqO2trYuw4TuCOo6JqJJv3k6XKu++O7YsGhSMxtmNrgOndh2g2MdXpsAfXyWpzqojkCq454boToypqOu7uzZhgxnM7ojoOyYiibdczJcy/7VguhIRDSpmQ0zG1yHVmy/gevw1gTo4sFVx0iqZOtXVEdw1XH+OlVHxnQ01J8719R07lx91nYEkx1n6uqbO/qHY0u2hGvd79sRHexsCX00qQ0IQxtch1Zsw0EtemsCNPHgqiNRcgfVEUR1nCiL3RjVcbbhXFNj8/kfaG46V98Q0HVk4zoy0aS7KkO17uWPbMhEk4Y9rsMGhKENrkMvtuHgWIe3JkATn5XqeJbqyE3NI9tjPQOR61MdmaCOHxa+qbmlu62jtbWj+3xjU1Z2BHUdXQOpv30/XAt/+s20aFJDG4Y2uA7N2I4D1+GtCdDDA6mOc5Oq4/Cz5RUKJhdFj2xPTqiO+rN116E6Moc6GlvaWjsj/X3/3z//bzpamjP/h8FcRzaaNLrsvnCt/MrbY8P9mWhSqgMwtMF1aMa2HNSityZ4a0IQ1RHNqA71kpOajd9ct+rIHuo4W9/U3N0aaR/s/X//p/v+w3+MtHY3nwt2sCMTTdoW6Y2/sjRcS7/863hvpLsx1HEdNiAMbXAdurEtB8c6vDUBWvisVMchpzpyUlHz2g1RHROHOjo6+3qHUv/HT/5ZZfXfj/S3tjTWnw3mOiaiSdceDdfan/omkY0mDe9PWGxAmNngOvRjmw5ch9cmQAeflep4+1Clesn5dftoVnV0Xo/qyN40O3moY2AokXzyf9lW8ZfqVUMDkY7zga4YmYgmbe/58o5QncOpqDxyIRXuuA4bEGY2uA792KZDgb4bWBpAB58r1fEO1RHg6/aWu75JDl2v6pg41HG+rauvN5Xc8OL+osz/c83/ONLe1d1YX1cbyHW0dA2kVj8XrtXfclt6qK+juT60rsMGhJkNrkNDtuvgWIe3JkD/npXqeJXqCMC2u8quU3VMHuo419zSGhkYjqb3rPmoOvt/Xf6vE72RjuYghxamokl3/C5cq//4HcmR/rbG0EaT2n8wtMF1aMi2HdSityZA+56d6jhJdeTm2PsTqqO5qeGaVcfETbPZQx09ybHD+0on/7+rXkoOtbcGCqOYiiZ9MmTRpK8viYY5mtT+g6ENrkNHtu3AdXhrArRvquOG89bnN0B1TIaSRtqHE+nt96ysmvo/r/5wLDHYGeib/FQ06ddbQrX8FWvKEgNdoY0mtf9gaIPr0JLtOxTu24F1AXTvOVEd9y+lOnKz986y+FD7hOqovZbv21OHOpq7W/sHe+JjT313fMY3+ZrV8ZH+juYAv9CYjCZNbw3XvTk1n4/2hDea1P6DoQ2uQ0u28aAWvTUBmjfVccP56M1J1XHu2lXH1E2z7SOp2Oo7l868RqWi/P50sK/y2WtYMtGk74frARy7P5aNJg2Q3upVBjC0wXVoyjaeUgxnMRqp8NZEdVAds1Md366+qDrOnLmGJZ++abZ/YCg6uuTUlktPZZSfGgv2E43JaNLEjqfD9QSWLkiORMIZTWr7wcwG16Er23rgOrw2AXp3YNXRRXUEZfGjq+PDE6qj7tpUx9RNs519van0hts+K/rRf6Hq8fFg0ZuZaNLuTDTpoXA9god/He3t7G4KYTSp7QczG1yHrmzvQS16awJ07tmpjrsPUB0BVMdtGdXR1X2NqmP6UMfETbOjz388edPsDKqPb08PBwnsmIomfflYqB5B9Ym/TWXOvYQvrsP2g6ENrkNbtvfgWIe3JkDnpjrmQHXcfZ2q45KbZhe9ur70r/8bFZXvBAvsqD17rrm1b+jLw0WhegY1b4Q0mtT2g6ENrkNftvnAdXhrAjRuquPGs+rukutUHTNvml124uJNszMp330hEeDgwlQ06d++Ga6HsPft2HCwe2q8xwCGNrgOfdnuU4tUB+CtKZyqozurOl6kOnJTsfidkui1q46LN812ZW+a3bX5+OX/O1UnAwV2TEeTPhCux/DsC/EwRpPafzC0wXVozHYfHOvw1gTo27NSHRtefJzqyM2qw9epOi7eNJuIlX3+ePkV/jvVp3+ZHO5vy3VyYSqadMln4XoML/0mOtgZ4JoarzGAoQ2uQ2e2/ZRi+IrRSIW3JqqD6pil6ti6ITrcd42qY+ZNs4ND8bEVn2658n+p6HCQwI4zdfWNbf3DyQUfheoxVB8pyUSThiuuw+6DmQ2uQ2u2/1D4rwnWA9C2qY5bwOIFX2RVR+O1qY6ZN83GSt549mp5opUPjQW4aaT2bH0mmjR9uCZUz6H0xXTookntPpjZ4Dr0ZhsQjnV4bQJ07Vmqjts+oTpyUrH467HoyDWqjktumh2Kjj7/0N7qq/3Hyp8dj/Z25gjsyEaTtranSt6sDpdz2hq6aFLbD2Y2uA7N2Q6EYx3emgA9m+qYi2/YK764DtVRW1fXUN84fdPs8pqKq/7Hqo8+kQnsuHr85nQ06bpwPYlNa4MEt3qFAQxtcB2asx2oFsNWjEYqvDVRHRdVxxe3fUh1BFEdF65LdZytv3jT7COrqnL952q2pof6Wpuv+juN6WjS/eF6FKd2JMIVTWr3wdAG16E724IIxYuCxQC07BumOoajX9x2kOrISfWqCdXRcg2qY+qm2fNt2Ztmv9j6YHHu/2DRmrGc+ZvT0aSLQ/UsKu7MRJOGKK7D9oOhDa5Dd7YHoRa9NQE69qxVR7mSyak6Vq7NqI7Wa1Qdl9w0e9fjQRa8fFM2sKPpaj/UqK2rb+7IRJOWhkp1lL6aPfJSHxbXYfvB0AbXoT3bg3Csw1sToGPPUnX88WB5hZrJQdXKFdeqOrKHOmbcNPv1S0eD2ZVtTyRHrh7YMR1N+pNwRZOu2pU7ysT7C2Bog+vQoG1CpRiyYjRS4a2J6rioOsb+6FRHANXxyfWojqmbZtszN81+e6gy4H+0dEF6qK/jaqcXpqJJn9kdrsexfEmIokntPpjZ4Do0aNsQatFrE6Bfz1p1rKQ6clL++NoLiWtSHT++afa3u48FPkRT9MhYjlSKyWjS6JLl4Xoeu59JDHaFJJrU7oOZDa5Dh7YN4ViHtyZAu56t6riN6gigOg6smFQd9bNWHTNumk0lN9y9vCbwf7WifPl4NHvbSN2VXcdkNOmqUD2PqkdLetpbwxFNavfB0AbXoUXbh+A6vDUBujXVMReq4+SKC4nea1UdZ+vPNbd0RAaGo+kdry2eTa5G9d4nkiORq8VSTEWTvl0cqgdy/I5Y9sc9dbVeXgBDG1yHFm0jqkW16K0J3powQ3W0D0fH3lhZpWZyUXkoozr6Z686Lr1pNvnFHa/PUkkUvzz1nf7y/9HJaNKeDY+GK5r0wxdyhbZ6dwEMbXAderSNqBTDVIxGKrw1UR0zVccfqY4AquOrJVOq4+xsVceMm2bTZUc+nO0ZmpoTY6mr/VYjG03aNZh45qFwPZLNv855Ga93F8DQBtehSduJSjE8xWikwlsT1TFTddy2iurIrTo2XZvq+NFNsxde+N3p2f+39109sGM6mnR9uJ7Jn36eGuhqaSr4uA67D4Y2uA5N2k5EmF4YLAKgV98o1VGtZnLqhuUrvrxG1XHxUEcqtvrNk5Wz/49XLb43frXAjolo0pHkgoOheiblh78MQzSpzQczG1yHNm0vwrEOr02AVh1cdTRTHcFVx/ol16I6pm+a7Z64aXbJum0V1/Bfrzh+9cCOqWjS2x8L1UPZ9lRsuD+zKlQHYGaD69CnbUalqBjNVHhtojqojtmqjn3XqDomDnWcb+ucuGl2U1HFNf33a46MXuUEw1Q06YVvw3WZzqEl8d5IW2Nhx3XYfDCzwXXo0zYjQvbOYAUAjfrGqI4KRZNTdTy45MvUrFXH9KGOltbMTbOje9YsvkatVFH5wVgiG9hxBdcxEU36zcfheiwPLLvKonhtAQxtcB0atd2oFENUjEYqvDXhEtXx4io1k1t1bL421TF1qKOrr7cn+cXhfaXXrJWqVu2MXjmwYzqadF+oHkvFtyWp9q7Cjuuw+WBog+vQqG1HqEVvTYA2TXXMiep4+MnZq45LD3Uk0tvvOXgdl91UHF9ylcCOiWjS4fiucEWT1ixIZ9ekgF2HzQdDG1yHTm07guvw1gRo09egOvyAJbfquO+3/ynV298xS9Vx6aGOBQ9fX2xo6XNXDuw4U3t2Ipr0/nBFky5ekhzuv/LlNF5aAEMbXIdWbT8qxZAUo5EKb02YqTq+cKojAOWfvvLn1ODsVMfMQx3tw4n06juXVl7fX1H04JUDOyajSVMb7gxXNOnyPdHeSHcBR5PafDC0wXVo1TYk1KK3JkCTnq3q2EB1BFEdp57/c2ow0nG+aTaqo7aurqF+8lBH/Iu19x293j+jauUT2TtHLneIIRtN2jmYeOa/CNejea0sMdDV0lSoP2Gx92Bmg+vQrO1IONbhtQnQpGerOuIlt1EdAVTHuj3XpDrO1p9rbumYPNTxSeV1/x0Vp1++YmDHZDRpfMXyUD2a6ts3XOUeXu8sgJkNrkOztiWVomKEekEIVccbsjpyU7V7R2yWquOHRf5hleubzrd19Q/2xL9Ysvn0jVjo0nuuGNhxpq6+ua1/OHlHuORV8ZLYcNb+nLGz8b1z5ADXofVoPWpRLUK9gOqgOgKe6nhoWaxn1qojG0ra0tHZPpJI3vvmysob8qcUvT4Z2PFXX+0zcR3NrX1D6duOh+rhHNwTv/I1vDCzDW2A69B7dB6lqBihXhA61bH6UaojwKmOj7fPUnVkD3VkQkm7W/sHh+IXnt98/Aatc9Wqe6/w1T4bTdo1kCp5ripUT+e77dErpbXC0DazAa5D79F6lKJihHpBKFVHNZWRUy+8VjZ71XHxUEcqee9tiytv2F9zdNcVAjsmo0mjez4N1+N5vyQ10NVSsHEd4DoArkPr0XlgDEK9qBdQHTdedWxcPTvVMX3TbHdrZGAoOrrspeM3cJmLT1whsCMTTdoW6Y2/sClcj2dFeqivtZnrgH+fALgOvUfnUYqKEeoFVEf7cLzsW6pjTlRH5qbZcxM3zaZiiw4/XnQj/56ifVcI7MhEk3b0DyffWRyq53P0V8nhfnEd8O8TANeh92g98N0VXptAdWRUx8+/ldWRm/JrUR3Zm2ZbIwPD0dGyj4/e2PiMqpVllw3syMZ1tLb3pL8tDtUDOlQW7410NzZwHTC0Aa5D69F51KJihHoB1VH2E6c6ApyiyKiOgeCqY8ZNs329PckvXv6q9EYLpS1bLxvYcab2bFNLJpr0kXBFk65bnRjsEk2KgpvZhja4Dr1H54ExCPWiXkB1zB/VMRlKGmkfTqSfOPJW+Q3/m4o3Xjaw40xdQ1N352D0+XfD9Yju3nD5+BIY2mY2wHXoPVqPUlSM8NqE0KmON6mOnFTUTKiOtknVEWCBL9402xP/4rf7iudgkYvWj18usONMXX1jW2QkuuBQuGzUT6dOudjg8I4HcB16j86jFhUjvDYh3KrjZ28upjpyUrpxdXJ2qiN7qON89qbZ2L1/XFU5F4Eo1ZcP7KjNRJP2DcXu/ihUz2jvL5KXSy+BoW1oA1yH3qPzKEXFCPUCqgN/TfGsVMePbpq9sOzp03O0xttuv0xgx1Q06ejnpaE6erO8JNrb2d0kmhQFNrQ9THAdWo/WA7UI9aJeMGvVcSfVkZvjj5QkewY6A6uOyUMd2Ztmk4sOH6iZMwfz2mUCOyajSRMla8L1aB/5IjXQ1SKuA/59AuA69B6dRy0qRnhtQohVR2dGdXxOdeTmsUdKkkNBVcf0oY6pm2bXbJu721AuG9hxpq6hsbuzN/rkg+F6TE+lRZPC0Aa4Dr1H54ExCPUCqoPqCMLpP02ojuamhiCqY8ahjsxNs5tKK+buT6teueyvAzuy0aT9I8mtS0P1mGp2xob7M7/noTrg37MArkPr0XrUolqEekE4VUdbZ/tQ/GfvL676C3Jw9MhF1VGbQ3XMPNSRvWn2ro/K5/SPO3b/RGDHzMMMk9GkyT++FarntHI83hvpbhTXAf8+AXAdeo/OoxQVI9QLqA5cnS2zUh0zD3XEv/jtB8fn+NzM8Y9HUz/64cZ0NOmRmlA9qO/GJn7O4ycsMLQBrkPv0XmUomKEekGIVcddVEcA1fHchqCq40eHOmL3vrGyaK7/vMsEdpypbWhq6RpM/Hx3qH6fVP3mWEpcBwpvaHuY4Dq0Hp0HxiDUi3rB7FTHR1RHbtXxeUl8qL2zrflcANVx6aGOX316dO5lQ/XBPT8O7MhGk0Z6o0v2hepJlb+Snrx+1z6Hf58AuA69R+dRiooR6gVUB67Itjs3XFQdZ85cdW2zhzrONbd0TB7qWHpTfkLy1t2xya/4Z6ZdRyaadDh5+PEwPamK04uSI/0/SmmFoW1mA1yH3qP1KEXFCK9NCJXqeI7qCKA6frIhOak66nKpjtq6uob67KGOwZ742LIPKm/O+h5fM3rpTatnas9mo0nT324L06OqPjQeFU0KQxvgOrQenQfGINQLQq06jlAdAVTHo9OnOq6uOqYOdTROHep4Z9vNysoo2vejwI7JaNLU6MZQRZNWrRtLDHS1NInrgH/PArgOvUfnUYqKEeoFIVUdZUf2Uh05OfbihuRwMNWRPdTRdL6tqz9zqOOX95XftD+y4pNllwZ2ZKNJOwcTZZ9WhOlhld/9o/MtMLTNbIDr0Hu0HqWoGOG1CVQHfqw67l4UH27v6s6lOmYc6uhsH0nEFu3aezP/zL33XxrYMRVNunZ5qJ5WzbLYcHYZqA4Y2gDXofXoPGpRMUK9IJSq4x6qI4DqeGdDQNVRW5s91NHd1T84FB/7xe7Km/p3PvbapQcapqJJXz0YpqdV/dHO6I/uo4GZbWgDXIfeo/MoRcUI9QKqA5eojju+CKI6zkzdNDt5qKNkwcqb+3dWFL2+aGZgRzaatLVvKP3mljA9rqr149HsKvgJC/z7BMB16D1aj1JUi1AvCKPq+NNbVEdOtu36IhpIdUwc6mjubs0c6riw7LWbHghafWBPvPfiiYapaNKxcEWTVm4cSw10tYjrgH+fALgOvUfnUYuKEV6bQHXgCqrj5aCq4+KhjlRs9YKltyAP9KNXJ5Mqsl/zp6NJn64O0wMr2poWTQpDG+A69B6dRykag1AvCKvqOHGM6sitOlaMBVAdlx7qiF54/kTxrfhjT2+cGdgxGU0aXxGqaNKK4idiw/2iSVFgQ9vDBNeh9Wg9UItQL+oFuVRHN9URWHX8diw63NfV3ZhLdVxyqGPrpluztEWbxxIXoyqmoklv/zBMT6xq5Xi8N9Ld2MB1wL9PAFyH3qPzKEXFCPWCMKmOrvah+Op7qI7cbPlpANUx81DHwFD0wm/vOX2L/tzqpTuygR3Z7/nZaNKOTDTptjA9svIHZ/oeGNqGNsB16D06j1JUjFAvCIvqGI6vPiKrI4DqeCWY6pg61NHXm4qtvmN5+S37gxe/czGwI6TRpEVHRlPiOlBoQ9vDBNeh9eg8MAahXtQLgqiO51w2m5ujAX7Akj3UcTZ7qCOSOdTxypFjt/IvfuRiYMdUNOnqcEWT1ixID03oHlvezDa0Aa5D79F5lKJihHpBmFRHyV0flf8FOTgdTHVkD3Wcb8sc6kiWvP160S39on8xsOPMVDTpklBFk1Yf/UVypH/63l0Y2oY2wHXoPTqPUlSMUC8Ii+p4f7FTHTk5viKn6rjkUMdw9MtXjiy+xd/0T5ZNBXOemYomffuTMD21qgPjUdGkKLSh7WGC69B6dB4Yg1Av6gVXUR2NE6rj88VOdeRWHV8HUR0XD3X0JEvefvBWJ2NULH578sLV2ovRpMfC9Ngq7xtLDHS1NInrgH+fALgOvUfnUYqKEeoFIVId0ZI7qY7cFP/DWHS4/WqqY/pQR8vEoY4996ysuOV/9tE/TQd2TEST9oxuLA3Tc6v5/GJiCQxtMxvgOvQerUcpKkZ4bUIYVEffcLTkzVVUR87zEaULxuI5VcfkoY6uzKGODYc3F8+Hr/rvfpE91vDDX12XjSaNbghXNGnp2phoUhjaANeh9eg8alExQr0gZKpjw7crqY7c35gXjF9ddZzJqo7pQx3pHfccnBcRKNXPLpsM7KidiCaNPhmuaNJji2IjEdGk8O9ZANeh9+g8SlExQr0gJKqjpatvJLrhUaojgOrYNXGqo/nKquPSQx1bNx+fJ3/6ysMTgR1n6yaiSeOHHw/Tkys/NB7t7exuEk0KMxvgOvQerUcpKkZ4bUKIVMfB8oq/4OrUbB2/quqYPNRxLnOoo304kf7myCfzRiBtOTKZV1F39lwIo0mLTo2lRJPC0Aa4Dq1H51GLihHqBWFRHa0Z1fHHDyupjJyq4/BYDtVR+8OS1jedb+vqH+yJb1iw+fQ8+uMn7yFpONsQxmjS0m9Fk6LQZrahDa5D79F5YAxCvagXXF511E+ojgu3PU515D4a8M54fOjqqiP7+5WWjuyhjrLn5tWiVm1aFs0EdtQ31De1dA0mSp4O1W+Wji+ZvHOX6jC0zWyA69B7tB6lqBahXhAO1fEi1RFAddyfUR2dV1IdU4c6mrtbs4c6Xth8dH7dc7LyjmTm2/65+vpsNOmvwxVNunhRvDfS1iiuw8w2tAGuQ+/RedSiYoR6QWGrjrNTquPuA5WyOnKqjhdzqY7JQx2d7SOJ2OrPPymaZx9g23PpzK84ms41Nbf1jyTvCFU0aeX+8ehgZ0tTg5+wmNmGNsB16D06j1JUjFAvCIXquH9p0V+Q68vybePJofbOtsurjumbZrtb+weGoheWPLyler59gtKns+mcjU2N51v7htI/eStMj69md+bDi+uAf58AuA6tR+dRi4oR6gVhUB29iQv3n6Q6clL+x6urjtq6zC+CsjfNpmIltx2omX8foXp/WbQ30tbc2NzSlYkmLQ7T8yt+MT3U19pcz3WY2YY2wHXoPTqPUlSMUC8odNXR35v48p1DVEcuKsq/HU8ODVxNdZytz1xpExkYjn75q3XHqubjpzi4NRPY0dJ8vq1zMLHhpTBFk1ZsWfbDZ29rFE1qaBvaANeh9+g8SlExQr0gBKrjwu1UR4BTHXdeRXXMvGm2tydZcnj/PD0xcez9dE97V3dLS0ekN/qb5WGKaKn6ZDx7CY1oUkPbzAa4Dq1H51GLihHqBSFQHYefpTpyf1N+/+qqY0YoaXr7iVXz9cBE6QNjqYHOju621r7h+B0HwvQEizaPJQa7RJPCv08AXIfeo/MoRcUI9YIQqI7Rw58VuYElp+p4bjzZcwXVMTOUdHAoc9Ps6Xm7oNXLt0d7+1s7Wjvbh2Lf7g3TIyy+ZzRzB41oUkPbzAa4Dr1H61GKihHqBYWvOu7YVPMX5FIER66mOiYOdZxv68yEkq5+88B8Pibzya7kcHtnV1dkMBWyaNKjW2NDfR3N9XW1OoChbWYDXIfWo/OoRcUI9YLCVh1b91MduVXHifFYVnU0NZy9rOqoP9ecCSUdil54ct2x6vn8UY59nu4Z7I9E+noTY0+HKZq0enFZfCQimhT+fQLgOvQenUcpKkaoFxS66kildy2nOnJ/Td54RdUxI5S0LxNKev/+0vn9WUrXjSV62/v7BobjO5aH6SFWbhqPDna2NIkmNbTNbIDr0Hu0HqWoGOG1CYWqOppaOrKqYz3VkVt1rMmojkjb+cuqjslQ0kj7cCK9Y+Oqqnn+YarWfxMfGmwf6O2J7QpVNGnpurHUQFeLuA5D29AGuA6tR+dRi4oR6gUFqzrOZ1XHgn1UR27V8dAM1XHJF+VLQkl74ht2bT4+/z/OgV2x1Mhg73BiNFzRpKcfTQ/1iSaFf88CuA69R+dRiooR6gWFrDoiWdVR+hfkUh27F8V6BjOqo/6vVMdkKGnmptlUrOzzA5V58HneunMs2jM83BMf23g8TM9x75LkcH9bs7gOQ9vMBrgOvUfrUYqKEV6bULiqYzCVfvkDqiMnFad2ZlRHR0Z11M1UHdOHOiZDSVec2pYPV/dWlO4ejyV6ehKxRU9Xhug5Vh1YFO2NdDeK6zC0DW2A69B6dB61qBihXlDIquOFB6mO3Grg053JK6iObChpYzaUNJUseXF/UUVefKKq1385Go9Gk2O/Wl4RogdZs3ksMdjV0tTgJyxmtqENcB16j86jFBUj1AsKWHVspjpyq453r3iqY0YoafTL519bXJ0vn2nprvF0Mpke3/p4mJ7k8ROjPe3iOmBmA1yH1qPzqEXFCPWCQlYdsa+/K6YycqqO73YmU5dRHVM3zTZ3d2VDSe/YXJo/ZyTeunPn2Ojo2M433wrTozz2dmyor6O5vq5WIzCzDW2A69B7dB61qBihXlCQqqMntuJdqiO36ti8M30F1TF5qKOzfSQR++b9x6vy6FOV7t65c3xs586Pw1QBFSu3x0cibY2iSc1sQxvgOvQenUcpKkaoFxSW65ipOn5HdeT+frxvZ+wyqiN7qGPqptmh+IUXTp3Oq49V/fq/2blzfOfCzeUhepaV+8ejg50tTaJJDW0zG+A6tB6dRy0qRqgXFKrqWPIS1ZFbday/7KmOGTfN9vWmYqv/uKkyzz7YgTsW7ty58B+fDdPDLF43lhroahHXYWYb2gDXoffoPEpRMUK9oGBVx9PHqYycqmP5otEZquPMtOmYOtSRvWn2yY178+42k2PvL/yB21eG6WlueTM91NfazHUY2oY2wHXoPTqPUlSMUC8oRNUx0BN78gGqI7fq2LQofVnVMXGoo60ze9Ps2w/W5N9Hq9mdcR13bQvT01z8QnK4X1yHoW1mA1yH1qPzqEXFCPWCAlQdbVnVceoxKiPnl+OvFo2mevsvVR3ThzpaWiMDw9Ev9xxZWZ2Pn+31f1y4cOG6MF05XHVydbQ30t0orsPMNrQBrkPv0XmUomKEekEBqY7asw1TqmPd6Yq/4OpUP/tE+nKqY/JQR1dfb08yc9Nsfn66xw8vXPje+qoQPc+a78YSA10tTQ1+wmJom9kA16H3aD1KUTHCaxMKTHV0DvTEfr2b6sh9DOCzCdXRMkN1nJm8s3fyUEd62ZGD+WoLtry/cOEflobpgZ5+ZLSnvfW8uA5D29AGuA6tR+dRi4oR6gWFpTqaM6oj+fzuo1RHLsr3X051XHqoY+vm/A09KXrovYV3Lw7TE/3o/thQX0dzfV2tdmBmG9oA16H36DxKUTFCvaDQVMdvHqI6clK5/BcTqqNxWnVceqgjkd5+5MPy/P2AFfv+aeGJ0yF6ohWPvxIfiYgmNbTNbIDr0Hu0HqWoGOG1CYWnOoaSez7eUv0XXP17ceX6y6iOmYc64hsWbM5vU/DJOwvvqwnRMy1fvig62NnSJJrU0Da0Aa5D69F51KJihHpB4amONVRHTope/0U6NTjzByyThzrONbd0RNqHE+nVd31Smd+f8ehdCz8LUyUUrxtNDXS1iOswsw1tgOvQe3QepagYoV5QcKpjx8ZtVEeuUx1Fm8vSqcHIxRtYsqajrqE+c6ijf7AnvmHt5rz/HVD5Q08dDNNT3XZneqivtZnrMLTNbIDr0Ht0HqWoGKFeQHWEkJqHV8dmqo4zU4c6GicOdcRW3/lhUf5/zH0n3grTUz24KzncL67D0Da0Aa5D69F51KJihHpB4amOR45RHTlVx0tlsZ5LVUf2UEfT5KGOL5Z8d7QQVvHg8uMheqoVm8qivZHuRnEdZrahDXAdeo/OoxQVI9QLqI7wqY5Tl1EdU4c6RhKx1Y8eLCqID/rYtqIQPdai340lBrpamhr8hMXQNrMBrkPr0XnUomKEekFhqQ4/YMn5z/81u3+sOmprZxzquPD8facLZBHLy8NUDacfGe1pbz0vrsPQNrQBrkPr0XnUomKEekEBqI46WR2zUR2lH/+V6sjeNNvS0Zk51FFy98Eiq5SPLH4xNtzX0VxfV6srmNmGNsB16D06j1JUjFAvKBjVsWyjy2Zzq46NZbGegRmqY+JQR3N3a//gUHxs2QOPVVmlvOTkkvhIRDSpoW1mA1yH1qPzqEXFCPWCglAdmV9fZFXHa1RHbtVxoiw5U3XUzjjUkYqVHP7EoY48peqDkuhgZ0uTaFIz29AGuA69R+dRiooR6gWFojp6ksvWUB25VceRrOpom1AdGS4e6oiObt993KGOfKX0obHUQFeLuA5D29AGuA69R+dRiooR6gVUR7hUx+erk0MDnRdVx8xDHRsWHKissEj5yrE700N9rc1ch6FtZgNch9aj86hFxQj1gsJRHR9THblVx09KLlEddZn1yxzqGBiKjpY9UmwF85gP70gO97c1i+swsw1tgOvQe3QepagYoV5QOKrjqC/qOVXHGxOqo3lKdWQOdfywfn29qdiitSf9fCWvn+7+PfHeSHejuA5D28wGuA69R+tRiooRXptQAKojklEdD52mOnKqjrs3XFQdddOHOiKZQx2/uKvYCuU15fctSgx2tTQ1+AmLoW1oA1yH1qPzqEXFCPUCqiM0quOd8fhQ+5TqqJs81NHV15tKLnplk/XLc45vHO1pbz0vrsPMNrQBrkPv0XmUomKEegHVER7VcXjsEtWRuX6lpTUyMBxN/+LR4xYo3/nojdhQX0dzfV2t5mBom9kA16H36DxKUTXCaxPyXnXElu1+jOqYpeqYPtTRkxz76T5JHfnP0gXJkUhbo2hSQ9vQBrgOrUfnUYuKEeoFhaA6vtl9nOrIpTqOHx6LD0+qjrN1Z6cPdSTSq+/eZn0K4Am/vj3a29ndJJrUzDa0Aa5D79F5lKJihHpBnpqOSdXRkVEd26mOnFSffnt8SnU0nD0741DHF6+8W15hgfKfot0XUgNdLU3iOgxtMxvgOvQenUcpKkaoF+S/6nCqI4Dq2HJ75lRH16TqmDzU0T6cSJe9uNjyFASnn0uLJjW0DW2A69B6dB61qBihXlAYqmP7umKqI5fqOPb2RdXR0FA/dagjvmHJA0UOdRQGq+5ODvdnokmpDjPb0Aa4Dr1H51GKihHqBXmuOsqojtyq46O3x6LTqqM+c6ijI3uoY/uLB5mOQuGzr+O9kbZGcR2GtpkNcB1aj86jFhUj1AsKQHX4tp5LdSw+PKU6ztXXTxzq6B/siW9Yu67U6hTMU363LDHY2dLU4CcshrahDXAdWo/OoxQVI7w2IY9Vx2BGdZRSHTmoWjVTdZybONQxkvjzN7cdcCKmcKh5bSw10CWuw8w2tAGuQ+/ReZSiYoR6Qd6rjgccTMipOg5Oqo7zjefOnWuaPtTxwm4nYgqJbW+mh/pam+u5DkPbzAa4Dq1H51GLihHqBVRHoauOx7dOqY6mc02Nk4c6YtvfOFllcQqJTw4nh/vbGkWTmtmGNsB16D06j1JUjFAvoDoKXXUc2DoWHenLqo6mi4c6vt591NoUFuufjPZGukWTGtpmNsB16D1aj1JUjFAvyGvVsZrqyK06Tu6aUh0/cL574lBH2aPPVlqbwqJ63YbEYJdoUkPbzAa4Dq1H51GLihHqBXmtOso+pTpyqo5nF4xmVUdLc2Njc0vmUMdQfMOK3dskdRQapfeM9rS3iiY1sw1tgOvQe3QepagYoV5AdRS46vjq5dHoSHtnW8v55ubz3a2R9pFUrOyNz4osTcGx94+xob6O5vq6Wo3C0DazAa5D79F5lKJqhNcm5Knq2P401ZGL8k0vjCZG2js7Ws6fP9/SkT3UcWHJ7rcc6ihATu5KjkREkxrahjbAdWg9Oo9aVIxQL8hj1fEN1ZFbdexfMqE6ultaWtomDnWsvm1TjZUpRDbvifZ2djeJJjWzDW2A69B7dB6lqBihXpCvqmPZS6UOJ+RSHct/m1UdrW0tLd3ZQx3RC7/dvbfayhTk016zITXQ1dIkrsPQNrMBrkPv0XmUomqE1ybkqerY85JTHTm//K7/aUZ1RFrbuts6Jg913L/JuhUoxz9PiyY1tA1tgOvQenQetagYoV6Qz6rjPqc6cquOZROqo6Oto7WzL3Oo4/mH9lZZmAJl1aux4f5MNCnVYWYb2gDXoffoPEpRMUK9IB9Vx2/uczoht+r45Wh0uD3S1drR2tWfOdRRcrtDHQXM/hfivZHuRnEdhraZDXAdWo/OoxYVI9QL8lB1pGKv/K7YV9tcqmPfztHo8EB/Z1drVyR7qGPHmr3l1qVwOfWzxGBnS1ODn7AY2oY2wHVoPTqPWlSMUC/IP9WR/O27VEdu1bEoqzoinZ2R/oHMoY6tm4r97KeAKXpuVFyHmW1oA1yH3qPzKEXFCPWCPFUdsSffldWRi8rXF41Fhwb7IpFIf3tvT3T0m417y61aIbPtxdhQXyaug+swtM1sgOvQenQetagYoV6Qd6pjyXdOdeT8N/7N945Ghwbb+/v72weHE7GSBctL3TRb2CzdlRyJtDWKJjW0DW2A69B6dB6lqBjhtQlURwFSUbT53rF4T+9AX1/7QG9PfHT7kbcqLUuB8+5vor2d3U2iSc1sQxvgOvQenUcpKkaoF+Sb6kiv+M5VIrlUR83DGdUxMtjePtA7lIgtWrveoY6Cp/qeDamBrpYmcR2GtpkNcB1aj86jFhUj1AvyUHVIncihOkrve2IsmRruHRzsHU7FR8vulNQRAopfTIsmNbMNbYDr0Ht0HqWoGKFekI+qY+1mpzpy/ft+6dMZ1TE00ts73BONLXrygxqHOkLAyq3J4f62ZnEdhraZDXAdeo/WoxQVI7w2Ic9Ux9ebnerIpTqKTz0xFkv0DI8MDyWSY7+4bW+VRQkD65dEeyPdjeI6DG1DG+A6tB6dRy0qRqgX5JfqeMGpjpyq4/i698Zi0dTQUE8qnh7/6btFeSqHih4r8jRnw5qyRCauo8FPWMxsQxvgOvQenUcpKkaoF+SV6niQ6sipOh56bzwdT6R6UtHY2BPvLK7I18/xwQPbPM7ZuKE3RsV1GNpmNsB16D06j1JUjfDaBKqjAFXHY2veGx9NRhOJaHJ0/FenKvP0c5Qv3vhPh1d5nrPg2OHYcF9Hc31drbZhaBvaANeh9eg8alExQr0gb1THyx9QHblUx+mN742PxeLReDI99sTWfJUFFaVf3f3Lhf+01AOdBc9+HR+JtDWKJjWzDW2A69B7dB6lqBihXpBHqsOpjgCnOh55b+dYOpZMpkd3Lvufa/L0Y1Rt+XTtwh9YXu6RBueBHdHBTnEdhraZDXAdeo/OoxRVI7w2IY9UR+xrsaQ5Vcfxjb/cOT6ajqXHxu/9dwfy9cKaok8+//29GddxX407d4ILojdLUu1d4joMbUMb4Dq0Hp1HLSpGqBfMd9cxrTp6Yiu+K/Z9NpfqWPP7neNjo6Nj4zt/tbE4bz/F61vvHR/74TMs3HjaQw1M8eH0UCaug+swsw1tgOvQe3QepagYoV6QL6pjye+ojlySoPjj3+/cOZaxBDuferY6Tz9F5Ucbnx9NxqPx2NjOb9/yVANz8IXkSL+4DkPbzAa4Dq1H51GLihHqBXmkOl6iOnKqjt2/37lz5/j4zp3vvXk0Xz9F6bP3r06mhkZGhlKx8V0rPdbAbP5NtLezu7GB6zC0DW2A69B6dB61qBihXpAHqmOgJ/bk08d9mc2hOkp3/37hziz/uLk8T3MuyretWzIaHRps7+sbGEmMbl9a7cEG5cjPUwNdLU1+wmJmG9oA16H36DxKUTFCvWA+q47ajOpoy6qOU8eFVOZSHad+vzDjOha+d3hxnn6GippDt5XFUr3tna2tXZH2oeT4+iJPNiCVh7/saW8VTWpom9kA16H16DxqUTFCvWCeq46GSdXx63WPUR25VMfT/2bhwoU7Fy78/cdFebpYVcd2r7gQHRrsb21raelu7e9NjJ3yy6WgHHshNtzf0Syuw9A2tAGuQ+vReZSiYoTXJsxf1XEmozqa2zoHemLP7z5NdeQ6EZFVHT/wD0vzda1qnr1teyw10t7Z0dLc2Njc3TXQM/rcFs82IJt+He+NiOswsw1tgOvQe3QepagYoV6QF6oj+ZuHqI6cquN3E6rj95/na65J9bbdKzbEM4c6upub6uvrm8639g3F3tnr4QbkoZ8lBjtbmhr8hMXQNrMBrkPr0XnUomKEesG8VR11DecyqmMouefjowIqc6mOh/8xqzr+6fXyPP0IRc++uD2WyB7qaDxXf/Zs5un3j8T3rKS5AvJqibgOM9vQBrgOvUfnUYqKEVwH8kR17FizherIpTo2Z1XHe3d/lKdLVXH00xdK4j2D/V1t55vqG+p+oL6xu7M3On6o3PMNRPHa2FBfJq6jVv8ws81sgOvQe3Qepaga4bUJ8111bKQ6comCogf/KaM6/s260jxdqvKDd+1IJ4bbIxOHOupqa38ogKaWroHE2Hc1HnAgPnw+PhJpaxRNamgb2gDXofXoPGpRMUK9YH6rjvah5LJHtlEduVTH61nVsWtpZZ5+gtJ9h1cne3r7pg511J7JxLWcO9/a3jP62nFPOBDvfhPNxnVwHWa2oQ1wHXqPzqMUFSPUC+a56njmT8eojlyqY/0fMqGkR7ZU5ecHqHrr4yVfRocHIq0tzdlDHWfOnPn+hxqob+7oG0r/0UUswXizJDXQ1SKuw9A2swGuQ+/ReZSiaoTXJsxj1dHd2T4U/+YI1ZGLyqzq+MO+mjxdqaKTj34TS2UPdTSea8iqjmwZ1NU3tvUPJ9fu9YiDUL5kdKivtbme6zC0DW2A69B6dB61qBihXjB/VUdX+3D8m7veojpyqY79f1i48L0/rqrMzz+/+vS7C0qmb5qdPNQx4ToaGrsjvfHVB5VAEI79KjncL67DzDa0Aa5D79F5lKJihHrBfFcdP3t/r++5OVXH2oUL//GBx/L09yvlq/60Jz110+zFQx2ZQqhtaGrpHIyO7y/ylAOwvyzaG+luFNdhaJvZANeh9+g8SlExQr1gXquOsjs/ojpyqY7P/mHhe4cP1VTk559fuv/VTChpf9fkoY6LquP7TDhpS9dAauzpUo85AGtKEgNdLU1+wmJoG9oA16H16DxqUTFCvWB+qo7GrOr4+ZuLqY5cxyKefWrh70/sLc/Pv75q27oVFyZCSX90qGPSdWQvYjniIpYAVBy+0NPeel40qZltaANch96j8yhFxQj1gvmsOsq+XVz1F1xddRz6dwv/4fXj+RpK+vhPnsmEkna2nW+sb7jkUEe2GCYuYond7iKWANT8Kjbc19EsrsPQNrMBrkPr0XnUomKEesF8VR19w9HVj66iOnKpjpO7fvntJ3kaZ1F9/MFdlw0lneE6Gtv6R5J79lZ41DlZVRYfiYgm/f/Ze7ffpu7879dRlFClEYkhCYeGM+Gg0ATEoZRykksRZPRoNgcBI4JHnUE/6SmktAouGvWiF89FbkCj+d0hoS3oxXRf+SLalUpixY4Py7Hl47K97OVTA9NHCKk3+5Kbsp+17ITQco4Pay2/Xn/BDP6sz/ubV9f3vQhtQhsA18HqYfMwigwjcGwCjaoOt6I6/vRjF6rjdarj+P/3//yPAb2Wkt7eOpTPpF5QSvrMdagfYhGb9w3yW7+Wze1iIuB2ObjCQmYT2gC4DnYPm4dRZBiBeQFtqo6c+KdVqI7X2oJ9598/ZtbnOw8W8y+rlFLSaNDncb3g/oo6D6UPsWSKR/gQy+tZ+SAbD1LXQWiT2QC4DlYPm4dZZBiBeQENqo5Jp9sbzYntG0+hOl7D6L1VP3XrtZS0//sPfhaTSinp9NTki17qeFouJw36s8WDfIjl9fKoNZ+MeqcnJ+xsEkKb0AbAdbB62DyMIsMIHJtAU6pjYk51XL6H6nidLug6+eEdnRZZmLruK6WkfqWUdMox/mLV8fRp+UMs+a/5EMtraWuWUjHqOshsMhsA18HuYfMwikwjMC+gXdXxLQ0Nr1Ud3d/f0OnVjtHD63e8spR0fiaUD7HEUtInfIjltRyfTUeEkNOB6yC0yWwAXAerh83DLDKMwLyANlXH+eOojtf5goFth3X6pdmxf7/3dymTe0Up6QLX4fQJufTHev2/WkM2FTOJINWkhDahDYDrYPWweRhFhhE4NoEWVUcskm1fugTV8RpsY7d12mFhGzj4QXs6nIi9opT0metwuEKBiDh7g4F4DZazhbDfSzUpmU1mA+A62D1sHkaRaQSOTaBJ1ZHp23Fj0PIbvMZ16PSvf9ONXR3KSx2C8lLH5Kte6niqlpO63MF4prjdxES8msHd+WR0ZnpynGpSQpvQBsB1sHrYPMwiwwjMC2hQdew/zX/Ef/1/xtfp/+w7m87MvdThnHx5Kekz16GWkxa28iGW1/zDDnwk5wSqSclsQhsA18HuYfMwigwjMC+gTdXRdMLKn65Gfflg368d/8mklJc6Xl1KOoddKSeNJvOr+BDLa97zOTYrRgIhF9WkhDaZDYDrYPeweRhFphE4NoH2VMfDi7+gOoxK2wb1pY5oUP3S7Gvur5RGQyknjaXkoWHusLyS0RXFbDzopq6D0Ca0AXAdrB42D7PIMALzAhpUHY+2oTqM+ud417LH6ksd3jd8qUN1HQ5nSIik17aM8g/4yjdmdlBNSmYT2gC4DnYPm4cYZBiBeQGtqQ6XZyYWyT5cfgzVYVDGtn/SLocjb/FShzIcdofLHUiIsyiwV2P+XErFlGpSVAehTWYD4DpYPWweZpFhBOYFtKY6Ok382WpILLdX7s6LqfjbvNTxtFRO6g7Gs8WjfIjlVdi6Z9MRIeSkroPQJrQBcB2sHjYPs8gwAvMCWlIdQiL7sHU9qsOYmNZ/UnzrlzqeLvgQy0o+xPIqRrcXM4mA2+XgCguZTWgD4DrYPWweRpFhBOYFNKU68peOoDqMSf9PvYW3f6lDHZDSh1ikHW38K74C68pilroOQpvMBsB1sHrYPMQgwwjMC2jEdSxQHUPXUB2GZPDE/qKUjUQDb/lSR9l1OH2xnNw7bOMf8hXvzSzPJ6NKXYednUJoE9oAuA5WD5uHUWQYgWMTaEd1SIe2j/E3qxEZWdFREJNxwRsqvdTxNqpj/kMss6f4EMvLsd35KJ2L+ZxUk5LZhDYAroPdw+JhFJlGYF5AQ6ojLO1BdRjzz/B93zZL2Zw/MON+65c6ns5/iCUzu97Kv+VLGb0xK0YCVJMS2mQ2AK6D1cPmIQYZRmBeQFuqo+NDVIcRMd+6VEwnEzH1pQ7HW77U8bRcTqp8iGULH2J5OdZNxUw86HZR10FoE9oAuA5WD5uHUWQYgWMTaEh1PN6A6jDi+wZdP34sZd75pQ6F8odY8l8xIC/FYvqqEKaalMwmswFwHeweNg8xyDQCxybQguqwK6rDJ8TD0u5zfFLUeNjMHy4vpsOJWNDneaeXOtQxUT7EEktJrUzIK96e+UxKxZRqUlQHoU1oA+A6WD1sHmaRYQTmBeqtOhxl1dHzPX/IGo/BlmW9+UzKLygvdUy+00sdT8sfYhFy8toBPsTyUql0uzkdEXzUdRDahDYAroPVw+YhBRlG4NgEdVYdP5RURyAelj6+ZaaLwXgvdRxpKsrhSDTo8zgnHePvqDqUD7G4QoGIOLtkkH/Ul1mlztlMIuB2ObjCQmaT2QC4DnYPm4dRZBqBYxPUXXVMl1THujb+XDUa1turO/JiKi543aUvzf7wbqpDKSd1uYOJTPGJlX/Vl2C6WsxS10FoE9oAuA5WD5uHGGQYgXkB7agO+eODqA7jvdTRubRv7qWOdywlfeY61HLSwk4T/64voW1HPhmdmZ7EdZDZhDYAroPdw+ZhFBlGYF6grqpj3DGlqI6k/PGWEf5YNdpLHYevDhXUlzpCi3upQ8E+PjntjSbz53EdL8Ey8Fc5F/M5qSYltMlsAFwHu4fNQwwyjcCxCbShOtauQHUY7qWOf19ul7ORaGDRL3Wo01L+EEtHG6UuL2bw9KwYCYRcVJMS2oQ2AK6D1cPmIQYZRmBeQAuqI43qMN5f3lcOthbEZDw291LH4lSHUk7q9AkR8aPbfIjlxYzdKmbjQbeLKyxkNqENgOtg97B5iEGGEZgXqLvq8CfltVv38qeqobCYT7/XK2Vz/oDypdlFv9ShzIvd4XIHEuLsL3yI5cW0/ZgPU01KaJPZALgOVg+bhxhkGIF5AY2ojuYv7/CXqrFe6hi49cHP6WSi9FKHY9EvdTyd+xBLPFu8het4Mf2fyanYzDR1HYQ2oQ2A62D1sHmIQYYRmBeor+oIBfzJdPNPw/yhaijGlqx5LGUq+FKHwtyHWJZZ+Qd+EaP3ZtMRIeSkroPMJrQBcB3sHhYPMcg0AvMC9VUdQUV1XOjnD1UjYdu7fX9fOpyIBUOeCr3Uoc6MUk4aTeY/wHW8CIvpSTGj1HU4uMJCaJPZALgOVg+bhxhkGIF5gfqqjlS6+eQAf6gaCWvL1qF8JuUXlJc6Fvul2eddh9MXS8nNfIjlhbStLFDXQWgT2gC4DlYPm4cUZBiBYxNoQ3XcvMKfrkZ6vcB8YmOPHI5Egz71pY7K3F8puQ6HMyRE0rNdfIjlRf/w/RelVFSp67CzYchsQhsA18HuYfEwikwjMC9QV9VRXHYd1WEgRoePLle+NCt43aUvzf5QKdUx9yGWzOz6Uf6d/4ita206Ivio6yC0yWwAXAerh81DDDKMwLxA/VSHs6Q6vj7Mf6Q3EKbum4/VL836PJUrJZ13HRNT6odYVuA6XvRPf6SYSQSo6yC0CW0AXAerh81DCjKMwLEJ6q46fr2N6jDQqwXmzqVqKan6pdmKvtShMPchllV8dPYFtF2lroPMJrMBcB3sHjYPMcg0AscmqLfqiKbE4q4WVIdxGOzfMpQXy6WkFX6pQx2d0odYpM9M/Fv/kYHLUrJU14HrILQJbQBcB6uHzUMMMozAvEBdVIdbVR1ftXAbwTBYTPfe65Gy86Wk9kqrjvKHWHLyR/8vFS9/pHu3nBN8zknqOghtQhsA18HqYfOQggwjcGyCuqmOnFh8jw9qGAebefuZYvq5UtKKD0/pQyzi7HHm5g9Yj82KiUDIRTUpmU1mA+A62D1sHmKQaQSOTVAP1THpdHsV1bGqi7c6DMPg9dUd+UzOH6jS/RV1esofYik+wXX8gbaDP2fjQTd1HYQ2oQ2A62D1sHmIQYYRmBeog+qYmFMdG/+F6jAKFuvp881yOBILVqWUdN51qOWk2eJJXMcffoH+Xflk1DuN6yCzCW0AXAe7h81DDDKMwLxAHVXH5XuoDqNga1s3VBDV+ytVe6lDwT4+Oe2NJvNNuI4/0N0q52LUdRDaZDYAroPdw+YhBhlGYF6gjqqj8O0+PhxqGNXRsqtHyuaiAZ/HWZVS0vkJUj7EEktJa/kQy+8Z/WVWjAghJ3UdhDahDYDrYPWweYhBhhGYF6iP6ohkCueXoDqMgnX9mWI6nIh5q3l/pew6HE6fkEt/dJh/9d8xdrSo1HW4uMJCZhPaALgOdg+LhxhkGoF5gXqojpiiOm6gOozC3p2P82LKL8xU9/6KOkN2hysUiIjN2/hn/x39K/Nhv9dDXQehTWYD4DpYPWweYpBhBOYF6qU6lp628tepMbDt+6ZZykaiQZ/HVdX7KyXXMeFyB+OZBwf5h/8d3TukVGxmmroOQpvQBsB1sHrYPKQgwwgcm6BOqmPHCVSHQRg7d6mYVktJp6cmq/tSh0LpQyzhn9/jX/53yul0b5q6DjKb0AbAdbB7WDzEINMIzAvUT3Xs/zeqwxhYDq/pyWdy/sCMp+r3V0pzpJSTRpP5S3zD53lMT4qZRMDtcnCFhdAmswFwHaweNg8xyDAC8wL1UB1Nx1AdxsB67GJRDidiwaqXki5wHU5fLCV/fod//ecY2VqgroPQJrQBcB2sHjYPKcgwAscmqL3qcLlnYpFsvqmTD4Yag70rHhfEVLwWpaTPXIfDGRIi6d59/PM/x+2zUjKq1HXgOshsMhsA18HuYfMQg0wjcGyCWqoOj6o6LqI6jMHovm9my6WkzqqXks6Pkt3hcgcSmZ7t/ADPcbw1nRN8TqpJCW1CGwDXweph8xCDDCMwL1Bj1SFEsvkz68f4w9QImDcdKpWSzt9fqcks2Sem3MF4tn01v8Bz4ulIu5gIhFxUkxLahDYAroPVw+YhBRlG4NgENVYdiWz+gyNjFv4y1T+WlrNrJbWUtHb3V1TKH2LpW2rjR1hontYVs/Ggm7oOMpvMBsB1sHvYPMQg0wgcm6D2qmP5ZlSHETBtby2mF5SS1kx1lD/EkpIumfkVFjBwP5+MUk1KaBPaALgOVg+bhxhkGIF5gdqrDmn5djOqwxB/WffkMym/UOuXOp6WP8Qi5ORDLfwMCzi1VE7FfNPUdRDahDYAroPVw+YhBRlG4NgENfnbdF51hKXWJ6gOAzDY2VSUw2opqatmpaTPXIf6IRax4xg/xAKO7REjQshJXQeZTWYD4DrYPWweYpBhBOYFaq06vkN1GIA7OzvUL8163dNTk7V9qUMdqAmXO5jI9K7jl5jHMniumEkE3S4HV1gIbUIbANfB6mHzEIMMIzAvUFPV8cWGNv4q1f9LHaeXNitfmg34PDW/v1J2HUo5afZPa/gtnjGysxD2U9dBZhPaALgOdg+bhxhkGAHXAbVWHZeOtvHpDL1jGzk4VBCTidizL83W+o9r+/jktDeafNhk5eeYp+WslIzOTE+O21k6ZDaZDYDrYPeweYhBhhGYF6i26rArqsMnxMPS0KYRLrDo/qWOe6vapWwdvjS7cKiUD7HEUlJrP7/HPKcfpXOCz0k1KaFNaAPgOlg9bB5SkGEEjk1QC9XhKKuO/7o1wlsden+po21D6Uuz6ksdtS4lfeY6HE6fEElfOs4vModle7uYCLhdVJOS2YQ2AK6D3cPmIQYZRmBeoNp/lP6gqI5pXyAelg6t24vq0PtLHd1f9+Yz9X2pQzVoDpc7kBD3bOcnmWPsbjEbD7qp6yC0yWwAXAe7h9VDDDKLwLxA7VSHvOfgHVSHzl/qMG++WJTDiVhdvjT7nOtQPsQSz/5lKz/KHAPL8sko1aSENqENgOtg9bB5SEGGETg2QU1Ux5SiOpLyni2oDp1jvX2hI59JxYWZunxp9nnXoXyIJdy+kf6XOe6dl1Mx6jrIbEIbANfB7mHzEIMMIzAvUH3VMT6vOlYMozp0/lJH544+ORyJBn0e56RjvI6qo1xOGk1KTWZ+mDKdQ2JECDmp6yC0yWwAXAe7h9VDCjKLwLEJaqU6Pr3aj+rQNYPXrx4qiKm44HXX60uzz7sOpy+Wk8+08MuUGL3VnkkE3S4HV1gIbUIbANfB6mHzkIIMI3BsghqoDn9Sfrx1ANWhZyzmXy63y9lINODz1LOU9JnrcDhDQiR9YBu/TYm21YWwn7oOMpvMBsB1sHtYPaQgswgcm6B2qmPnwCh/jer5pY6Bg60FMRkX1C/N1vuljqfzH2LJ7NnEj1Oi5ayUjM5MT47b2T2ENqENgOtg97B6SEFmETg2QQ1Ux+7VV1AdemZsyY+9UrbuX5p9znVMTHmC8WzPTX6dEicupnMC1aSENqENgOtg9bB6SEFmEdhdUBvVkd69+jqqQ8eM9h999HM6mYipL3XU8UuzCyl/iOXhtyZ+IJXvHouJgNtFNSmZTWYD4DrYPaweUpBZBI5NUAvV0bv6MKpDx5i6bnbkM1p6qUOdMOVDLLFUfn8/v5CCdWsxGw+6qesgtAltAFwHu4fVQwoyi8CxCVAd8Bps5s6l7XI4EQv6PJp5qeNp+UMsQk4+s4/fSKF/TT4Z9U7jOghtQhsA18HqYfUQgowisLugFqrjAqpDxwz2b7mkfmlWealjUisvdaiuw+EKBSLigWv8SAr3zsupGHUdZDaZDYDrYPewe0hBRhFYXYDqgNdg2vdVr5SNRIM+j3PSMa4d1aGUk7rcwXjm07v8SgpHDogRIeSkroPQJrQBcB3sHlYPIcgsAscmqLrq6EF16BibefuZZ6WkGvjS7POuQy0nbV/DgCk/1Zb2TDzodjm4wkJmE9oAuA52D6uHFGQUgd0F1VMdId7q0DuDV37SYCnpHHalnDSazG9s45f67TfzzULY7/VQ10Fmk9kAuA52D7uHEGQUgdUF1VYdPSdRHbrFYr3xfp8cjkSD5Zc6tKU65j7EIu1o4bf67bfbG6VUdGZ6ctzOCiK0CW0AXAe7h91DCDKJwOqCaqmOoD+F6tAztrajBwpiMi54tfhSh+o6HE6fEEmfOcGP9dtvJy6mcwLVpGQ2oQ2A62D5sHoIQUYRODZB1VXHytuoDt2qjpaveyXl/kqplNSuOdXx9Ae7w+UOJMS/f8ev9dtv5/aIiYDbRTUpoU1mA+A62D3sHkKQSQRWF1RbdQzyN6hOsXY2FeWwJktJn7kO9UMs2b9stfB7Da7+ORsPUtdBaBPaALgOdg+7hwxkEoHVBagOeAkjKzoKYsovzGj0/krZdagfYinssvKD3fkxn1TqOnAdZDahDYDrYPmwewhBJhE4NkEVVUc7qkO32Lo2rpWzkWjQ53Fp8/5KadxKH2KRNvbzk93bIedi1HUQ2mQ2AK6D5cPuIQOZRODYBKgOeCGmJ63FdHLh/RWNztv4pNMXy8k7TvGbbf+7GAmEnNR1ENqENgCug93D7iEDmURgdUEVVcdNVIdeGbjZk1dKSbV8f6XsOhzOkBBJP+rkTZwv27PxoNvFFRYym8wGwHWwfFg+ZCCDCGwuqKLqaEF16JPBE0opaSQW1G4p6fzElT7Ekvlfmxr+VzOfzYf9XqpJCW1CGwDXwfJh+ZCBDCKwuaB6qqPvfgsfm9UnbQc7CmIyLni1/lLH03I5aTCebV/d8NPWvV9OxXzT1HUQ2oQ2AK6D3cPyIQKZQ+DYBFVTHbzVoVNs3T82S9lcNODzODVcSrrQdXj94fyatkb/4Y4cECMCdR1kNpkNgOtg+bB9yEDmEDg2QfVUx31Uhz4xHXlUTIcXlpJq+0/n0odYUtLGww3+w1m2/iWj1HU4uMJCaBPaALgOlg/LhwhkEIHNBdVRHctQHfr8g7l/a0deTPmFGR3cX5lzHU6fkJP332h0SbXqIXUdhDahDYDrYPmwfIhA5hDYXFA91fEA1aFPBpesapeykWjQ53Fp//5K2XU4nKFARGy91uC/3eEmKRWbmZ4ct7OMyGwyGwDXwfJh+xCBzCFwbAJUB5Rp+8fyvrRaSjo9NamHlzqelj/EEkxkHh+0NfaPd+xAmroOQpvQBsB1sHzYPkQgYwgcm6BqquNrVIcesbVc6PhPJucPzHicU45xfaiOuXLS7M8XTI398634cyZBXQehTWgD4DpYPmwfEpAxBI5NgOqAZ5i2fdsjhyOxoE5KSeewT0xOe6PJ/K/DDf3zDW78mboOMpvMBsB1sH1YPyQgUwgcm6BaqmMNqkOHWIbXLe8T1fsrOiklnR8+5UMssZR0ubuhf8Dhi9R1ENqENgCug+XD9iEBGUPg2ATVUR3igzUto5gD/b0VcOr+HimbiwZ8HqdOSkmfuQ6H0ydE0k2/NPQveHooHRF81HWQ2YQ2AK6D7cP2IQGZQmBxQRVUx6/dqA79YT5yvicdTsS88/dXdDR+docrFEiIf3/S0D/hwT9nEgHqOghtMhsA18H2Yf0QgEwhcGyCSqoOp6o6iqgOHWK7sqW1T0z5hRm93V8puY4JlzsYz7bfbeQPsdg29lHXQWgT2gC4DrYP64cAZAiBYxNURXXsQnXoD9PxNZ9K2Ug06PO4dHZ/pew6lA+xhAsXzA38I7a1SsmoWteB6yCzyWwAXAfrh/1DADKEwLEJUB0NjmVk+/72dFKf91dU7Eo5aTQp7brSwD/jvj3pnOBzTlLXQWgT2gC4DrYP+4cAZAaBYxNUTnVEU2LxK1SH7hhsuXogn8n5A7q8v1KawfFJpy+Wkt+/18C/49Fe6joIbUIbANfB9mH/kH/MIHBsAlQH/B/M287+WQ6X76+opkN/fysrH2IJCZH0mc4G/iHP9mWp6yCzyWwAXAfrhwVE/jGDwLEJKq463kN16I3RgU1n+sRkXPC6p6d0eX9FnUK7w+UOJDIdGywN+0taP8tT10FoE9oAuA7WDwuI/GMEgWMTVF51dKE6dIZp3/09UjbnD/g8zinHuE5Vh1pOqnyIpe+uqWF/ytufy7kYdR2ENqENgOtg+7CAiD9GEDg2QWVVx1lUh86wjWxe2p4OLywl1ecfynMfYsmfvNOwP+aRdjESCLkcuA4ym8wGwHWwfthAxB8TCByboHKqY1WXDXugJyyDLVsP5DMpv6DfUtL5SVQ/xJKSf2xp2J/zQl82HnRT10FoE9oAuA7WDxuI9GMCgWMToDoaGPO2Vb3zpaSOcbuOVUfpQyxCTt5xo2F/zuWFMNWkhDahDYDrYP2wgUg/BhA4NkHlVEdOLG5EdeiL0YFbZ37WfSnpM9fhcIUCEfHvRxr192xbK6divmnqOshsMhsA18H+YQWRfgwgcGwCVEej8nwpqd5Vh1LY4XIH45n27wcb9AddMitGhJCTug5Cm9AGwHWwflhBhB/zBxybYPGqw11SHadQHXrCNrJ5hyFKSRe4DrWctHC1rUF/0nXFTCLodjm4wkJoE9oAuA7WDyuI7GP+gGMTVEZ1XEZ16Apry9ZLBiklncOulpMm88uuNOZPavmWug4ym8wGwHWwf9hBhB/jBxybANXRsFiMVEo6P5BKOWksJV8+1aD66mMpFZ2hroPQJrQBcB3sH3YQ2cf4AccmWLzq8Cqq431Uh54Y7d/0yDilpM9ch8MZEiLp5f9uTH91+yMxJ/icuA4ym9AGwHWwgNhBZB/TBxyboCKq4/y/LAgE/WD6180OA5WSzo+k3eFyBxJi7/bRRvxVbUdmxUSAug5Cm8wGwHWwgFhCRB/DBxyboFKqg7c6dPQ3cduRpYYqJX3mOiam3MF4trhurCFf1rlQzMaD1HUQ2oQ2AK6D/cMSIvkYPuDYBItSHZNl1bH0HqpDPwxev/tFXjRUKekC16F+iOXL4Ub8Ya3L80mlrmPCzn4is8lsAFwHC4gtRPQxe8CxCVAdDYRlbMlXvVLWWKWk82OpfoglJX3V0oi/7J1mKRejroPQJrQBcB0sILYQycfsAccmqITq2LEP1aEbRvc+ufhzulRK6po00ksdZdfh9Ak5uel4I/60N2bFiBByOnAdhDahDYDrYAGxhQg+Rg84NgGqo4GwtqzuyGdy/sCMx2D3V8quw+EMBSLi42MNOJOD64qZeNDtoq6DzCazAXAdbCD2EMHH5AHHJli86mjIb17oEtvYtvf75HAiFjRYKen8ZNonXO5gPFN8Ymq8X9e0qhD2e6kmJbQJbQBcBxuIPUTuMXjAsQkWrzqOozr0wujwugMFMRU3XinpAtdRKie9O9J4P6/5cT4Vm5mmroPQJrQBcB0sIPYQscfgAccmWJzqKOxHdegFi+nerp5yKanTaKWkc9jVctJkftmVxntpp/ujdETwUddBZpPZALgONhCLiNhj7oBjEyxOdfyM6tDPSx1tT84U08lEzGvQ+yul6VTKSWMp+XxXw/3Ag5uLmUTA7XJwhYXQJrQBcB1sIDYRM8fYAccmeAfVMVFSHZmf9y9BdegEa8vJx6VSUqPeXym7DoczJETSh5ZYGu61nQvUdRDahDYAroMNxCYi9Jg64NgEqI7GwWbuXPpADkdiQZ/HZdT7K+p82h0udyAhznZaG+03Nl+UklGlrsPOmiKzyWwAXAcriFXExDF1wLEJUB2GZ/DKiiG1lNTrdk5NGvaljqelclJ3MJ4tfG9uNJ01sFbOxXxOqkkJbUIbANfBCmIVMXAMHXBsAlSH8bGM3VjVvqCU1MCq49mHWL4cbjSfdWJWjARCLqpJCW1CGwDXwQpiFzFvjBxwbIJ3VB2RTN/+G4NoBD0weuf71oKYjAuGLiWdn1H1Qywp6ezhBvuZx9YVs/Ggm7oOMpvMBsB1sIJYRswbIwccmwDVYXhMp5b1SsYvJV3gOpw+IScvP9Vgv3Pb2TzVpIQ2oQ2A62AFsY1IPAYOODYBqqMBsLX9s+lBOvzsS7MGVx3Kh1hcoUAks/Z0g92wutMhp2JKNSmqg8wmtAFwHewgthHTxsABxyZ4e9URi2T6mk6jOvSA9faXe/KZlF9ojJc6nqqFHS53MJ4pbh9rqF969N5sOiKEnNR1ENpkNgCugx3EOmLYmDfg2ASoDiNjMR/7pk8Oq6Wkhv7S7POuo1ROenekoX5r0/ZiJhF0uxxcYSG0CW0AXAc7iH3EqDFuwLEJUB3GZXDg4Bf50pdmp6cMX0o6h10tJ03m1ww01I9tPlmgroPMJrMBcB0sIRYSk8a0AccmWITqOIHq0MFLHabjP/YoX5oN+DwNcn+lNKpKOWksJTfdbqife7hJSkaVug4724rQJrQBcB0sITYSg8asAccmeBfVYcUkaJ7Rvd+dKaaTz0pJf2gM1aGUkzpDQiTde8rWQD+3rWVtOif4nFSTEtqENgCugyXESmLOGDXg2ASoDqO+1GHtWtnRQF+aXTisdofLHUiIs8dMDfSDWztnxUTA7aKalMwmswFwHWwhdhJjxqQBxyZAdRj0v/K3HdnRJ4cTsWCoYUpJn7mOiSl3MJ4tbjI30C9u3lLMxoPUdRDahDYAroMtxFJiyBg04NgE76Q6fkF1aP6ljsHDW4fUUlLlpY7JRnqp4+mCD7Fc2NtAv/mds3m1rgPXQWgT2gC4DpYQW4khY8yAYxOgOoz4UsfYiY3tclb90qxz0jHeWKpDLSdVPsQifdtAH2KxHP5MzsWo6yCzyWwAXAdbiLXEiDFlwLEJ3kZ1uFTV8fDiNlSH1hntv9VaEJPql2YbqpR0getw+oScfOi2pXF+9BvNYiQQclLXQWgT2gC4DrYQe4kJY8iAYxO8uerwzMQi2YePGqruUZ+Y9q3plbJKKamnwUpJn7kO9UMsYvOSxvk08ti5QjYedLu4wkJoE9oAuA62EIuJAWPEgGMTvIXqECLZh8s7UR0axzayvelBOvzsS7ONpzpKH2IJJjLFzY0zrnfu58N+L9WkZDaZDYDrYA2xmhgvJgw4NsGb/d1YVh2J7H9a16M6NI615cKefCbVgF+afW5m1XLSbHGLuWEusdx+JKdivmnqOghtQhsA18EaYjcxXcwXcGyCt1Mdl66hOjT+Uoe583y7HFZLSRvtS7MLsU9MTnujyfyuhvkQy+jpj8WIQF0HoU1oA+A6WEPsJmaL8QKOTfB2qkMa2jyGTdA0g1fuXiooX5r1uqcb7kuzz42t8iGWWEp61N8o73WMbShklLoOB1dYyGwyGwDXwR5iOzFZTBdwbII3Vh1h6dB2VIemsYzdONsjlb80O9V4X5p9znU4nD4hkl7bMtogP/7wSuo6CG1CGwDXwR5iPTFYzBZwbIK3Vh0d36E6NM3o8LlHhXQyPl9K+kPDqo5SOWkgIc7+Ym2QX797fzoVm5meHLeztshsMhsA18EiYkMxVgwWGGqu+C2r8BejXVEdPiEelnZvQHVoGtOp+4+lTK6xS0mfTe6Eyx2MZ4vnGmRqbSd6qOsgswltAFwHi4gVxVAxV8CxCd7kD8b/8xejo6w6eo+a0Qla/lt35Nr+PuVLs0HlpY7GLSV95jqUD7GECxfaGuP3H9tQpK6D0Ca0AXAdLCJ2FDPFVAHHJnhT1THtC8TDUs8tVIeWsbbsPKR8aVbgpY7y8CrlpNGktHSkMQaAug4ym8wGwHWwidhSTBQzBRyb4G1Vx8fr2n4D7b7UYd52mS/N/t51OH2xnPx5v60hRqBrh0RdB6FNaAPgOthE7CnmiYkCjk3wBqpj3DGlqg7544OoDg0zOHCwtSAm1S/NNnop6TPX4XCGhIg4e2qwEUbAsq2Xug5Cm9AGwHWwiVhUTBPzBByb4M1VR1L++G6bBaOgWUzHd/UqX5oNqF+a5f5KaX5LH2LJFI9YG2F2Td9T10Fmk9kAuA5WEbuKWWKYgGMTvIXqSK9dMfIbaJXRtu1ND9LJBF+a/Z3rmJjyKB9i2dIQH2IZPlmgroPQJrQBcB2sIpYVk8QsAccmeEPV4U/Ka7fuxSholsHDpVJSvjT7O8ofYsl/1RCluqfOU9dBaBPaALgOVhHrijFikIBjE7yx6kiv3XkHo6BVLKbTGyklffEMKx9iiaXyBxqiaubYnjR1HWQ2mQ2A62AXsbEYIqYIODbBG6iOkKI6+n4aRiloFdvIuflS0qlJXur4netw+oRcuvlKA3yIZfD7YiYRoK6D0Ca0AXAd7CJ2FiPEDAHHJnit6gj6k+nmk/3Ukmr2L9yWm71SJucvlZKOozqedx0OVygQEWdvNMCHWEZ+oq6D0Ca0AXAd7CK2FvPDAAHHJngz1ZFKN68csP0GmsRiOrbjgRymlPQlY2yfcLmD8UzxO6vxZ6Flo5SKqnUdjACZTWYD4DpYRiwupofpAY5N8FLV4SypjpvXUR0axbZ3y6GCmIoLlJK+zHWo5aSFCybjD8Mvy9M5weecpK6D0Ca0AXAdLCNWF6PD7ADHJnid6niw7DCqQ6OMdr3XLmUpJX05dqWcNJrM7zD+R2dtG9pLdR24DkKb0AbAdbCM2F7MDXMDHJvgVaojmhKLa1pQHRrFtPmDYjq58P4Ks/v7UVbKSWMp+fMRo0+xZWxnIUtdB5lNZgPgOthGLDCGhqEBjk3watXhVlXHrpZRpII2GV69O59J+QPcX3mV63A4Q0IkPdtt+DG+/pWUVOo6cB2ENqENgOtgG7HDmBgGBjg2watUR04sftWN6tAmo0uWFuVw+f4KpaQvG2a7w+UOJMTZTsN/iOVGk5yLUddBaJPZALgOthF7jHFhWoBjE7xMdUxMOt1eRXWc7RpkNWkS86bPCmIyLnjd01PcX3mF65iYcgfj2eIWww/y9g4xEghR10FmE9oAuA7WEauMWWFSgGMTvEZ1rLqH6tAkttu71kqZnD/g8zinHOOojpcy9yGWs1ZjT4Rl8OqDbDzopq6D0Ca0AXAdrCPWGXPCkADHJni16ti4D9WhSaydj4pyeGEpKX/fvmyg1Q+xpKTPTBZjz8TwmnwySjUpmU1mA+A62EesNGaECQGOTfAK1RGLZAqXl6A6NMmdFb0FMRUXKCV9I9fh9Am59EcDBv8Qy72lcoq6DkKb0AbAdbCP2GvMB7MBHJvgNarjmxtWNpMGGb23albKlktJHeN2VMerXYfDFQpExNnTBncd1/4uRoSQk7oOQpvQBsB1sI/YbcwGYwEcm+AVquP8aVSHFjE/aS2mkwmllNRFKenrZ9o+4XIH45niJmO7Dtvd9kw86HY5uMJCZpPZALgOFhIbjrlgIIBjE7xUdez4xcRm0uCftNcv7M4rpaTcX3lj11EqJ/3V2H0d5q8LYT91HYQ2oQ2A62AhseYYCWYBODbBq1TH/m2oDu1hsZ74tl0OR6JBSknfeKzVctJk/otRQ49Gy7dSKjYzPTlu5ycntAltAFwHC4llxzAwBMAQwe9Uh8s9E4tk8/s7UR0aVB0jm1r7xGRc8PJSx9u4DqcvlpKbRww9G8eWpyOCj7oOMpvMBsB1sJFYeowBPz5wbIIXqA6PqjqaOsdYTJpjsPtmh6TcX/F5nJSSvrnrcDhDQiT98T5DD8fBP2cSAeo6CG1CGwDXwUZi9zEA/OjAsQleqDqERDb/yRFUh/YY61zaI4cTMW+IUtK3mWy7w+UOJDLtT4w8HNZl1HUQ2oQ2AK6DjcQS5IfntwaOTfAq1XHmn6gOzWHrP9jaJ6biAqWkb+s6JqY8wXi2/aSRx2PgspSMqnUdjAWZTWYD4DpYSSxEfm9+X45NTBHM/0H4THV8sN3MXtLcf7ff93WHlI1Egz6Pi/srb0X5Qyx9TUb+6OyNi+mc4HNOUtdBaBPaALgOdhLbkR+ZXxQ4NsEfVUdYWv4E1aE1LG2bd/wpneT+yjsNt/IhllhKOtRm4Ak5t0dU6zpwHYQ2mQ2A62An8acyPyt5B7gOeIHqaP2ujb2kMUYPr2h9mEn5A9xfeSfX4XD6hFx6T5dxJ8R2sy8bD7qp6yCzyWwAXAdLib+k+f2IO+DYBC9UHUfbLCwmbTF246vH3F9ZxHg7XKFAQnx8xLgj0nY5n4x6pydxHYQ2oQ2A62ApARB3wLEJ5v4WtE84XB6fEA9LB74fQXVo7D/Z3/mwqT2djAte9/QU91feZb4nXO5gPPuXq8YdklNNci5GXQehTWYD4DpYSgDEHXBsgvk/BX8oqY5APCz9/RaqQ2NYW3YO5TM5f2DG45xyjKM63sV1KOWkyfZVxi0n3TwkRgIhJ3UdZDahDYDrYCsBkHbAsQkWqI5pVXUMHdyL6tAUFvO2VT1yOBILzpeS8tfsW4+4Uk4aTUqPxgw73av/pNR1uLjCQmgT2gC4DrYSAGEHHJugrDrGHVOq6pD/a8uwjb2kJUaHj54piOr9FUpJF+M6nL5YTm5tMeqcmL7Nh/1eD9WkZDaZDYDrYC0BEHbAsQmeVx1J+dBdVIe2sHad3CNlc9GAz+OklHQRrsPhDAkRceiYUQflcJOUis1MU9dBaBPaALgO9hIAYQccm+B3qmPP1X5Uh5awmTvfb0+HEzEv91cWN+V2h8sdSGT2rDPqqBw7kI4I1HUQ2oQ2AK6DvQRA1gHHJnhOdfiT8p6dA6gOLTE4cLC1IKb8wgz3VxbrOtRy0mzPMqP2ddz9cyYRdLscXGEhs8lsAFwHiwmArOPYxChBWXWEAv5kuuPLK6gODWEx3VvTK2Uj0aDP4+L+yuKwT0xOe6PJh0tNxhyW0Y0/U9dBaBPaALgOFhMAUQccm+A51RH0J9OfXriO6tAQtrZrTcV0cuH9FQb23Sdd+RBLLCU1XTHmtIyckVJRpa7Dzm9NaBPaALgOFhMAScexiWFCdZRVRyr9+ORhVIeGGLxydU8+k/IHuL9SGdfhcPqESHr5DWOOy5JL6Zzgc1JNSmaT2QC4DjYTAEkHDBN//y1QHX++eRvVoR0s1iWr2uVw+f4KpaSLn/VSOak49J0xB+bop5lEgLoOQpvQBsB1sJkACDrg2AQl1eFUVUfvspZR1pJmsI2cay2IybjgdU9PcX+lIq5jYsodjGf/8pMhy0ktX7VnqesgtAltAFwHqwmAoAOOTbBQdYi9a7pRHdphsHtZr5TJ+QM+j3PKMY7qqIzr8Hj94Z/fsxpRdpg+kJKlug4mhcwmswFwHewmAIKOYxPThOpwhoLRlPiXXagODb3UMba+qZgOLywl5Q/Yxc+7Uk4aTUrf9BtxZloOybkYdR2ENqENgOtgNwGQc8CxCdWhqg53MJoTe37sQnVoR3X0r9iTF1N+gVLSCrsOpy+Wk/fvM+LQXNstJgIhlwPXQWiT2QC4DnYTADnHsYlxanjVMel0e6M58U9n/4Xq0Ayj+1Y1S9lyKalj3I7qqJTrcDhDQkRsPWLEqTnZno0H3dR1kNmENgCug+0EQMwB89TwqmOirDraN+4bZCtphbEnrcV0qZTURSlpJUde+RBLMJH5dIsRBdmjQjLqncZ1ENqENgCug+0EQMoBA4XqKKuOy8dRHZph4GRPXiklnfFwf6XSrkMtJ02237Qab2zudFDXQWiT2QC4DrYTACkHHJtQHfOqI9P+zRJUh1YY/GVHUQ5HYkFKSSuPvVROmn/vjvEGZ1uPGAmEnNR1kNmENgCug/UEQMhxbGKiUB3eWCTbvvQ0qkMrjGzpKIipOKWk1Rn78clpXywlf9NlvMn58oFS1+HiCguhTWgD4DpYTwBkHMcmRgrVEYtk2necsLKVtIHtVKmUNODzOCklrYbrUMtJ0/99zHij06rUdXio6yCzyWwAXAcLCoCQ49jERKE6YpFM3/5fUB0aYey7A8V0MhHzhiglrc7gK+WkgYT4X+cMNzt7P5JT1HUQ2oQ2AK6DBQVAxgHHJlRHSXU0bUN1aITr98ulpNxfqZrrmJhyB+PZ9q2Gu7W1bZa6DkKb0AbAdbCgAIg44NiE6nC5Z2KRbN+ZTlSHNrAeayqVkvo8Lu6vVM91eLz+cOF+m8Gmx/ZlkboOMpvMBsB1sKEAiDjg2ITq8Ciq4+GjThNLSRPcubpbLSX1up1T3F+p2vCXPsQinb1tsPEZXJ6nroPQJrQBcB2sKAASDjg2oTpmhET24fL1qA5NMLrv21mllDRYKiVFdVTPdTh9Qk7escRY82MZpq6D0Ca0AXAdrCgAAg44NqE6VNXxn9ZrqA5NYD439LtSUv5krZLrUD/EIrZeM5grO0ZdB5lNZgPgOthRAAQccGxCdSiq439/8X+hOjTxH+Vv//oxpaS1mX/lQyzBRKZ3nc1QI2TdSl0HoU1oA+A6WFIA5BtwbEJ1KG91DD0ZYylp4e/U9Y+KcjgRCyovdVBKWmXXUS4n/dJYsz/WVAj7qesgtAltAFwHSwqAeAOOTQ2vOqSh71AdWmD4y968UkrKSx21wD4xOe2NJvNf9xvqzaA71HWQ2WQ2AK6DLQVAvAHHpsZ1HfOqIywd+seYha1Ud0aXLF1YSspLHdV+BJQPscRS0sYuQ03RjVkxIlDXQWgT2gC4DtYUAOkGDFbDq44NZpZS/f97vPnW3wpiUvnSLKWkNXIdDqdPiIhN24w0R6Z11HUQ2mQ2AK6DNQVAugHHJlSHdOgcqqP+2Lp/bJbUUlIP91dq9RA4XO5AQjz0xEhvNZlX5anrILMJbQBcB3sKgHADjk0Nrzr2HEV1aOC/xv9zeTEd5kuztX0KJqbcwXi2uMVqoEm687mUis1MU9dBaBPaALgOFhUA2caxidFqaNWxyUxXR93pv9CTz6T8lJLW2nWoH2JZPWKcSRrdN5umroPQJrMBcB0sKgCyDTg2Na7q8AnxsNSxqY2lVGcsgyf2F+WwWkrKl2Zr+SAo5aTRpLTrtoFeEPqumFHqOhxcYSGzCW0AXAebCoBo49jEbDWu6riF6qg7bVs65kpJpyZ5qaOmrsPpi+Xk88eNM0zmZQXqOghtQhsA18GqAiDZgGNTI6oO+zPVsQ7VUW9sXauapWzOH/BRSlpz1+FwhoSIeKDTOOM03Fqu67Dz+5LZZDYAroNdBUCycWxiuBpLdTjKquPxwTa6OurM2JNLxXSSUtL6PAvqh1gyPRtGjWPOmtMRwUddB6FNaAPgOthVAAQbxyamqyFVR0BVHSMspfpiuXJfLSUNUEpal4dBLSfNFrcY5lNEpmvFTCJAXQehTWgD4DpYVgDkGscmxqsBVce0ojrkx1tQHXXGuu0TSknriH1iatobTeZXDhhlotq+pK6DzCazAXAdbCsAcg04NjWc6vjhmerYjeqoN3uv7i6IKUpJ6/c8KB9iiaWkVV1GGan+HVIyqtZ1MEuENqENgOtgXQEQaxybmK+GUx1JuXfFXpZSXRm99/6slI1ElVLSScc4qqMersPh9AmR9H+fNshM2bo/TucEn3OSug5Cm9AGwHWwrgAINY5NTFhDqY6pOdVxh61UV8wbPqOUtN5PRKmcVHx8xGaMobJ2zopqXQeug8wmswFwHSwsAEKNYxMT1jiqY3xedVxFddT3P8Df/nWtlMlRSlpn1zHhcgfj2eL3Y8YYq7a7xaw/SF0HoU1oA+A6WFgAZBrHJkasMVXH1mG2Uj0xdX5QlMOJWFB5qYNS0jq6DuVDLOHCToOov/5VebWuA9dBaJPZALgOFhYAmcaxiRlrQNWxE9VRV4a/7M0rpaS81FFn7Eo5aTQp7bptjMHq/puci1HXQWaT2QC4DlYWAJHGsYkZazjV4U/KPTv72Up1ZHDJ0lk5q35p1slLHfV9LMYnnb5YTt6/zxiTtW1WjARC1HUQ2oQ2AK6DlQVAonFsYsgaUHV8ieqoJ223OgpiUv3SLKWkdXcdDmdIiIiPtxminNS8rpiNB93UdRDaZDYAroOdBUCicWxiyBpPdaweYCvVD1v3e82lUlIP91fq/2AoH2IJJjLF7SYjDFf/r/lk1Es1KZlNaAPgOlhaAAQaxyamrNFUR7rnAqqjjpiutRbTYb40qxnXUS4n3TJihOnqXi6nqOsgtAltAFwHWwuAOOPYxJw1lOoIlVTHFdZS/Ri40JPPpPyUkmqFcjlpfpkRHgvbvz8WI0LISV0HoU1mA+A62FoAxBnHJuaswVTHyuuspboxeGJ/UQ6rpaR8aVYjD4daTpqSd3QbYL7Gjqp1HS6usJDZhDYAroO9BUCacWxi0BpGdQT9qXTPTVRH/Rg5+HiulHRqkpc6NOI61HLSdMdxA5STDq/Mh/3UdRDahDYAroO9BUCYcWxi0hpNddw/zFqqF6NdG2elbCQa8FFKqqHHQyknDSQys+sNUE7avV9KxWamqesgs8lsAFwHmwuAMOPcxKQ1lOpYhuqoG2Pbh4rpJKWkmnMdE1OeYDxbvNWm+xGznOhNU9dBZhPaALgOVhcAWcaxiVFrNNXx9W3WUr3+DL1yc21e/dIspaTacx1efzh/clj3Q2bdUMwodR0OrrAQ2oQ2AK6D1QVAknFsYtgaRnW0r2lhL9Xrr9BtFykl1egjonyIJZaSzuv/nac7qwvUdZDZZDYAroPlBUCScWxi2BpMdfyK6qjbH6EregtiSikldVJKqjnX4XD6hFy6o8ui9zFr+VYu1XXgOghtQhsA18HyAiDIODYxbYZXHc6S6tjVYmEx1YXRe9+qpaRBn8c56RhHdWjNdbhCgYQ4+4tV74N2YigdEXzUdRDahDYAroPtBUCOcWxi3BpFdYjtX3Wzl+qD+R+HKCXV8FNin3C5lXLSDWa9O7XvmjOJAHUdZDaZDYDrYH0BEGMcm5i3xlEd73XzVkddsN1e00wpqbZdh1pOWvhyRN+TZmnbSV0HoU1oA+A62F8ApBgwcA2jOqIpsf0sqqM+mDo/KMrhRCxYfqkD1aG9B0UpJ40mpcv9Op+1lrNSMkpdB6FNZgPgOlhgAKQYxyYGrnFUR5eNzVQPhrf+Na+UkvJSh6Zdh9MXy8kdh3X+kJxens4JPuckdR1kNqENgOtggwGQYRybGLmGUB2rUB11YfD4+YWlpLzUoVHX4XCGhIg4e3xQ19Nm+bBdVOs6cB2ENqENgOtghQEQYRybmDljqw53MJoT2zeeQnXUg7ZNHQUxqXxpdq6UlMHU4rOilpMmMg+2m3StOsauFrP+IHUdhDaZDYDrYIcBEGEcm5g5VAdUDVvLV7OSWkrq4f6Kxl1HqZx0q74/xHJ9V16t68B1kNmENgCugyUGQIJxbGLojK06vIrquHwP1VEHxo4sL6bDfGlWB9hL5aT5jfr+EMuSJjkXo66D0Ca0AXAdbDEA8otjE2NnaNUxWVYd3+5DddQey8Dqj/OZlJ9SUj08L2o5aUo+NKzrjxVtfywmAiHqOghtMhsA18EaAyC/ODYxdg2gOt5HddQB6+kdRTmslpK6KCXVvutQy0nTs116Lie1Xi1m40E3dR1kNqENgOtgkQGQXhybGDzDqo6JOdVx/jiqo/aMrJsvJZ2ilFT7T4zd4XIHEpnZ9VYdD13/r/lk1DuN6yC0CW0AXAeLDIDw4tjE5BlddfQtXTLKcqo1o11nZ6Vszh/wUUqqE9cxMeUJxrPFu3r+EMu+HdR1ENpkNgCug00GQHhxbGLyUB1QHcauUUqqM8ofYsmfHdPx3G0+JEYCISd1HWQ2oQ2A62CXARBdHJuYPUOrjkzfjhuojlpj6d/6OC9SSqqvp0b5EEsslR9q0285qe3qA6Wuw8UVFkKb0AbAdbDMAEgujk0Mn3FVRyyS6dtxGtVRa6zHV/VIWUpJ9eY6HE6fkEt/dFu/7TYju5S6Dg91HWQ2mQ2A62CbAZBcHJsYPmOrjv2nB9lONaZt+5n2NKWkuntuSuWkYnGbfh+Ze/up6yC0CW0AXAfrDIDc4tjE+DWA6jiB6qgxo9e3Dj3M5PyBGaWUdBzVoR/XMTHlVspJ1w3q9hLLh/+Lug5Cm9AGwHWwzwCILY5NzJ/hVUfTL6iOGmNa8uNjORyJBikl1aHrUMpJC19ZdevZTlLXQWaT2QC4DjYaAKnFsYkBNL7q2IbqqC22ke37y/dXKCXV3bOjlJNGk9KQbj86e+eyUtcxTV0HoU1oA+A6WGkAhBbHJibQuKrj54uojhozePvqgbxyf8XncVJKqkPXUSon7ddrOenxi9R1ENpkNgCug50GQGZxbGIEja06Hp45ZmVB1ZSxJbt65XAk9uz+CiOpK9fhcIUCEXH2hl5dx4Y9Sl2Hi7oOMpvQBsB1sNUAiCyOTcwgqgMqg3J/pY/7Kzp+fOwTLncwnilu0qnrsN3vU+o6uMJCaBPaALgOthoAgcWxiSk0rOp41InqqCmDh1cMcX9F566jVE76q05HsO196joIbTIbANfBWgMgsDg2MYUGVh3Zhx+gOmqKxbTkqx7ur+j8CSqVk+YvjepzCE89oq6DzCa0AXAdLDYA4opjE3NoSNXhcs8oqmP5elRHLbG1bf+kKHJ/Rfeuw+mLpeSP9+pzCp9Q10FoE9oAuA42GwBhxbGJSTSm6vCoqqP1CKqjlgxe39rB/RUDuA6HMyRE0h/v0+e7RTfbqesgtMlsAFwHqw2AsOLYxCQaWXWY2FE1xHp8VTP3VwzwENkdLncgkWn/UJdjaNpfoK6DzCa0AXAdLDcAoopjE7NoSNUhJLIPW6+hOmqJ+UlrQbm/MsP9Fb27jokpTzCebb+gy9c6Wlqp6yC0CW0AXAfbDYCk4tjEMBpVdfyn9Z+ojloycKGH+yvGoPwhlof7dfnR2WtqXYeTug5Cm8wGwHWw3gAIKo5NTKMBVceBzaiOGjK4ZGlRDidiXu6vGOBBUj7EEktJfzPrcRRXqnUdLq6wkNmENgCugwUHQExxbGIejac6vthusrCnaob53N8KYor7K0ZxHQ6nT8ilO7r1aN0uKnUdHuo6CG1CGwDXwYYDIKU4NjGQxlMdl7aPsaZqhu3wmmYpm4tyf8Ugj5Ld4QoFIuLj9TocxitDcoq6DjKbzAbAdbDjAAgpjk1MpHH+QHumOoaeoDpqh+nf/5P7K8Z6lCZc7mA885e7OpzGzsdiRKCug9AmtAFwHWw5ACKKhcJMGk11hKWhD1EdtWPkYAf3V4zmOpRy0mT7Kh2Wk66mroPQJrMBcB2sOQAiimMTQ2lI1XHoO1RHzRjt/rVHykaiQZ/Hxf0VozxNSjlpNPmfR/p7kGz/Mx/2U9dBZpPZALgOFh0AAcU2YSqNpzo2mNlUtWKsc397mvsrxnMdTl8sJbce1t1A3tmt1HVMU9dBaBPaALgONh0A8cQyYS6NoDrs86pjD6qjdv8RvX/LF/8RU37urxjNdTicISGSHjqhu5E80UNdB6FNZgPgOlh1AKQTu4TBNMifZj/YJxwuj0+Ih6U9R1EdtcJ66uuOhfdXfkB1GMUdOlzuQCKz56juZvLqgwx1HWQ2oQ2A62DZARBObBIm02iqo2OT2cKyqg3m9Uv/pN5fcU9PcX/FWK5jYsoTjGd7VuptJi0XC9R1ENqENgCug3UHQDSxR5hN46iOaV8gHpZ232pjWdWG0YGDyx+KKX9Avb8yjuowEqUPsYQfnrfqzb+tlVKxGeo6CG0yGwDXwb4DIJlYIwynAVTHuGNKVR1y70FUR40w/ev+s/srE9xfMdhDpXyIJZaSmvp1Npb7ZtPUdZDZhDYAroONB0AusUQYTyOpjqTcs2WEdVUTLG3rv2lPJ7m/YljX4XD6hFx6+RKdzeW6olrX4eAKC6FNaAPgOth5AKQSK4QBNYrqaF+B6qgNgwMHl0vcXzHwY2V3uEKBhPj37foaTNt56joIbTIbANfB0gMglNggTKiBVIc/KTdv3cvCqgmmU/d7ub9ibNcx4XIH4+HHO/U1mWN/pa6DzCa0AXAdrD0AIon9wYwaS3V8eYeNVZP/dm7uPP8gnUwI3F8xsutQy0n73jPpajS7qOsgtAltAFwHiw+AQGJ7MKVGUR2hgD+Zbr4wzMqqBaP9B4fyGe6vGPzRUspJo0npG12Vk46eK2YSAeo6CG0yGwDXweYDII9YHoypEVRH0J9Kz57sZ2fVAMtg15p27q80gutQyknl/cf1NJ3W96jrILMJbQBcB8sPgDRiczCoBlIdxZuojpqojrHOpiL3VxrBdTicISEitl7T03iaO6RUVKnrsPMLEtqENgCug+0HQBaxOBhVPasOZ0l1LLvC1qqF6riz5XHp/oqH+yvGfrpK5aSZT+/qaDxt3c3piOCjroPMJrMBcB0sQACiiK3BrBpDdXx92MLeqsHfkl1nm0v3V6a5v2J411EqJ72vo3LSwe3UdRDahDYAroMNCEAQsTSYVmOojmhKLO5qQXXUANORA8V0Mq7eX3Fwf8XY2EvlpPn3+vXzbI3dpK6D0CazAXAd7EAAcoiVwbgaQHW4y6rDxuaqOpY7X36cz+Tm7q/YUR3GfsKUctJYKn3+nn5GtO0LKUldB5lNaAPgOtiCAKQQC4OB1bfqmHS6vdGcWHyvG9VRfQbv7ZiVw5FoMMT9lcZwHWo5afrRet2MqK2lOZ0TfM5J6joIbUIbANfBHgQgg1gXjKxeVcfEnOo4e2qU3VV1zB/+rSiq91ec3F9piGfM7nC5A4nMp7d0c4fFemSWug5Cm8wGwHWwCAGIILYFM2sM1bHxHqqj+v/F/MrKHvX+is/jnOT+SmO4DrWcNFv8UjflpGOrqesgswltAFwHuxCA/GFVMLbGUB2Xjw+yvqqN6cbSdjmciD27v8IaaQDXMTntjSbzX/frZUz3fjJX18F8EtqENgCug20IQPqwKBhc3aqOWCRT+GYJqqPaWEbOtf4spuLCDPdXGuk5Uz7EEktJG0/p5eWj29R1ENpkNgCug30IQPiwJphcQ6iO86dRHdVmsPv+Himbi3J/pdFch8PpEyLp/96mk0G1ds6Kal0HroPMJrQBcB1sRACihyXB7Opadew4YWWDVRnz+h096XAi5uX+SoM9aaVyUrHjO5185sh8tZj1B6nrILQJbQBcBzsRgNxhRTC+elcd20zssOoyOnD1wEMx5ef+SgO6jokpdzCeLW4Z08esDp8v1XXgOghtMhsA18FWBCB2WBDMry5Vh8szE4tk803HUB1VxnRj1WMpG4kGfR4X91caz3V4vP5w/uSwLmbV0vJXmboOMpvQBsB1sBgByBy2AyOse9WxHtVRXWwjR8+0p5Nxwevm/koDPm2lclL5vW5dTOvgMaWuI0RdB6FNaAPgOliNgOkAdgNDrFfVISSy+U+OjLHHqvvHY9f9Q/lMzh/g/kqjug6nT8ilm07rYlzNW4rZeNBNXQehTWYD4DpYjoDoADYDY6xj1XHmn6iOqmIxH9nRI4cTseB8KSl/QzaY63C4Qko56RFdlJP2n81T10FmE9oAuA72I2A6gLXAIOvwb68FquOD7WYLu6yKjF652vpQTMUpJW1c12GfcKnlpJt0oRW7/ybnYtR1ENqENgCugw0JiA5gKTDLulUdYWn5h6iOqmI6fXaulNRJKWnDug61nLSw844OJnZw26wYoa6DzCazAXAdLEnAdAArgWHWsepo3dCG6qgitjvfXyyVknJ/pYGxK+Wk0aS0q0UHM2teR10HmU1oA+A62JOA6ADWAfOsQ9VhV1SHT4iHpQNHUR3VxNp185BEKWnDUy4nlZuOa39mLf278smodxrXQWiT2QC4DjYlIDqAZcBE6+nPrh/sE4451bFpBNVRxb8azdfOP1dKiupoWNfhcIYCEfHxMR2Uk3a1UtdBZhPaALgOliUgOoBNwFDrUnVM+wLxsPT3daiOKjJ6nVJSKD11pXLSTPFD7ZeTjh6jroPQJrQBcB3sS8B0AGuAsdaf6hh3TKmqQx46eAfVUT3GTr9HKSnMuY5SOemKvZqf23Jdh4srLIQ2mQ2A62BjAqIDWAIMtv5UR1I+dHfYxl6rFra955r60skEpaTwdL6cNP/1dc1P7sAa6jrIbEIbANfB0gREB7ABmG39qo4V/aiOqmHt/mkoTykpzD15SjlpLCXv79L86N57RF0HoU1oA+A6AN2B6AAef8Zbl6rDn5T37BxAdVQLy9i2sz1yOEIpKcy5DoczJETEnhtaf+ps69dS10Fok9kAuA5AdyA6gGefAdef6ggpqqPjyyuojmoxOnyuqSAm44KXlzqg9OzZHS53IJEpXjNpfHjHDqp1HVxhIbMJbQBcB2A7EB3Ag8+M60t1BP3J9Kerr6M6qoW166c9knJ/hVJSmHcdajlptnhwROPTe+VX6joIbUIbANcB6A5EB/DUM+Z6VB2p9OOTt1Ed1boDYN62sU8OJ2KUksIz7BOT095oMr+sX+PfPjp+kboOQpvMBsB1ALoDzwE88ky6LlXHn2+2oDqqxOjwueUFMRUXKCWFhc/f+OS0Uk7adFvjA7y5XUxQ10FmE9oAuA5AdyA6gMedYdeT6nCqqqN3GaqjSlis3Rd6pWwkGvR5XNxfgQWuQy0nTfeeGtX0BI+toK6D0Ca0AXAdgO5AdADPOvOuO9URTYl/WdM9yqKrzv2VsW3fFNPP3V9hW4D6BJbLSWc7tV1Oen1XPhmdmZ7EdRDaZDYArgPQHXgO4EFn5PWiOtyq6tjVheqo1v2VTUMFMeXn/gr80XVMTLmD8WzxllnThR03PklT10FmE9oAuA5AdyA6gIecqdeP6ph0ur3RnNjz4ylUR3UY7F62lvsr8FLX4fH6w/n7ezU9xN/1UtdBaJPZALgOQHfgOYAnnMnXjeqYKKuOP626h+qoDmPbLhbTSe6vwIufwvHJ6ZlYSmrS9IdYTDuVug4PdR2ENpkNgOsAfAfJATzdDL+uVMfG46iO6jBysDcvpvwB7q/Ai12Hw+kTcum/tmj5Cbx+VqKug8wmtAFwHYDuIDWAJ5sHQGeqo/3bJYOsvWow2r1qdv7+imo6+FsRnnsO7Q5XKJAQZ/9t1fAcn76YzgnUdRDaZDYArgPwHWQG8FTzCOhGdcQi2fbzN1Ad1cBiWn+pmE7GBa97eor7K/BC1zHhUspJC+fGNDzJR5W6Djd1HWQ2oQ2A6wB8B3EBPNA8B7pRHZn2pScGLWy/ymMb/qk5n8n5AzMe55RjHNUBL3QdajlpYaWGP8RiOlnI+r3UdRDahDYArgPwHUQF8DDzLOhGdWTbd2yzsv+q8FLH4L0ds3I4Eg3Ol5LyhyL88VlUykmjSWn/iHZn+cpG6joIbTIbANcB+A5yAniQeRz0pDoyfU3HUB3VwPzdoaKo3l+hlBRe6TqcvlhO/nzAptlZPnGGug4ym9AGwHUAK5eMAJ5hHgl9qA6XZyYWyfZ90onqqAKj11f2qvdXfB7npGPcjuqAl7kOhzMkRMTZ49otzVm3O0NdB6FNaAPgOoC1SzwAzy/PhY5Ux5n1Vro6Ko/p9NIeOZyIcX8FXvc4quWkiUxxu0mr02z9uhCmroPQJrMBcB3A7iUagEeXZ0Prf1yVVIeQyD5cfs3ENqw4tpFNy/vEVFyY4f4KvN51lMpJf9Lso3jlfKmuYxzXQWYT2gC4DmADkwrAQ8sDogPV8Z/WzaiOyjPYsvKQlM1Fub8Cb4C9VE6aP6/Zj87+sjwdoa6D0Ca0AXAdwBomEIDnladEJ6rjf3+xHdVRcSxjnUv/pNxf8c7fX2E/wCueSLWcNCXvHtFqOenBP5fqOnitg9AmswFwHcAuJgyAR5UnRfOqI/yfoe/G2IyVZrR/S+tD7q/AW7gOtZw0Pds9qtH3lFZR10FmE9oAuA5gJRMDwDPK86Jx1WGfUx3SoXOojoq/1GE9vuuxlI1Egz6Pi/sr8EbPpMPlDiQys+u1+SEWS/9+KUVdB6FNaAPgOoC9TAAAjydPjYb/rPrBPuFweXxCPCx1bEJ1VBpb25P97ekk91fgbVzHxJQnGM8WV2j0o7O/HFDrOvjiLKFNZgPgOoD1zO4HAO2rjsfrzCzKSr/s3/LlpXwm5Q9wfwXenPKHWPLva9R13KWuAwAA1wEYDywHAGhedUz7AvGw1HsQ1VFpxrZt7JHD3F+Bt3wulQ+xxFLS59p80cp2/mfqOgAAcB2A80ByAICWVce4Y0pVHXLPljZ2ZmUZHb515mcxGRe87ukp7q/AW7gOh9MnRMSPWixaHOzhD6RUjLoOAABcB6A8cBwAoHXVkZR7VqA6Koz1X/f3SNmcP+DzOKcc46gOeOMns1ROKs6u1+RknziUjggh6joAAHAdgPTAcQCA5lXHVlRHpUtJr51vT4cXlpLylyG8qeuYmHIr5aQ7NTnbK/6SSQSp6wAAwHUA0gPFAQCaVh3+pNy+cwQ7UdlS0sMrDuTFlF+glBTenrly0h02LQ73Duo6AABwHYD1wHAAgB5Ux+q92InKlpKe3tUrZSklhXd8OkvlpPnHWuwL3vvZXF0HPxQAAK4DEB8IDgDQpOoIBfzJdPuFO9iJipaS3vlHUzFdKiV1UUoK7+A6lHLSXHp3txbrOnqp6wAAwHUA5gO9AQCaVh1BRXWs7EdPVLSUtGv1nnwm5w/MeLi/Au/0fNodrlAgIfYe0WJdR3smTl0HAACuA9AfmA0A0LLqSKXb7w9Y8BMVLCU1d17uk8OJWJBSUnhn1zHhUspJe7Zqb8AtnxSo6wAAwHUALgSdAQDaVh1y37IrNgRFBUtJr6xrLYipOKWksCjXoZaT9r2vvYez7a/lug4GGwAA1wEAAKBR1ZFuXnMY1VHB/+ZtOv51T7mU1EkpKbzzM6qUk0aT0vI2zb10dWNWpK4DAADXAQAAoFHV4VRVx4M1t1EdFby/MrJ5fzGdTMS83F+BRboOpZxUPnBKe3UdReo6AABwHQAAAFpWHeKDXS2ojgreX2nZWi4l5f4KLNJ1KOWkEfG/rmnO532Sp64DAADXAQAAoFnVEU2Jxa9aRjEUFfsjcOzEqj45rN5fcXF/BRb1mJbKSTOPr2qurmOtTF0HAACuAwAAQMuq4z1UR+UY7T/aWhCTccHrnp6a5KUOWKTrUMtJ21dp7BG1UdcBAIDrAAAA0Ljq6EZ1VKyU1Np1s0fK5vwBn8c55RhHdcCisJfLSZfe0dg9rS3FrFLXwRUWAABcBwAAgNZUhzsYzYnFs12ojor91+629TuK6TClpFCpR1UpJ43l5KZ/aWvSrfsL1HUAAOA6AAAAtKs6Vp1CdVTsP3Zf2dKRz6T8AqWkUCnX4XCGhIjYekRb7y/tVeo6fNR1AADgOgAAADSnOryK6tiI6qjYSx2m42eb5SylpFDBh9XuUMtJ99zVVisNdR0AALgOAAAADaqOyTnVcQ/VUSnVMfKEUlKouOsolZP2fW3VVC3NQeo6AABwHQAAAJpVHZf3oToq9NffYMuFHimT8wdmPNxfgYpRLifNr+rX0ribv8lT1wEAgOsAAADQluqYKKuOwreojkq91DG2bX9RDidiQUpJoaIPrFpOmpKX3tOS2Rv+WE7FZqjrAADAdQAAAGhPdRS/OY7qqFB9wfDBjoKYilNKChV3HaVy0g/Wa2nej1PXAQCA6wAAANCk6sgUzi8ZxFJU5gOcXe/NSqVSUielpFDRR1YpJw0ksnsOamjgTd8XM9R1AADgOgAAADSnOiKZwvkbqI7KvNBv3nygmE4mYt75+yuMGlTMdajlpNm+CyYN1XXsoq4DAADXAQAAoDnVEYtkCktPozoq8z7/lQtr82opKfdXoPLYJ0rlpL8OaGfmhz+jrgMAANcBAACgRdWxA9VRofsrp//vohyOzJeSojqgso9tuZz0fe2Uk47+i7oOAABcBwAAgCZVxwlUR0Xur7St+1wtJfXyUgdUyXWo5aTpM53aqevYUKrrcHCFBQAA1wEAAKAl1bF/26AFUVGBT822nFVLSQOUkkK1HtxSOWnm8VGbVsZ+ZA11HQAAuA4AAADtqY6mbbzVUZH/vn3kUjEdXlhKyt9+UHHXMTHlCcazxatjWpn769R1AADgOgAAADSoOo5Z8RQVeKnjzurmfCZFKSlU23VMe6PJ/E2tlJOO3qCuAwAA1wEAAKA91dGJ6qgAg/uaZuVwJBr0eVzcX4HqPbzjk9MzsZS08ZRGJn9sUzGr1HVwhQUAANcBAACgGdWRv4jqqMgffOc+L4pJpZR0emqSlzqgiq7D4fQp5aTbtPLF2V3UdQAA4DoAAAA0pTqy+TPrUR0VeI3/yprZfCbnV0pJpxzjqA6o3uNbKicVe7ePamP4u7+QUzGfk7oOAABcBwAAQP1Vh8s9U1YdfIFl0VhPf9IsU0oKtXEdE1NupZz0oFkbnm9bUYwEqOsAAMB1AAAAaEF1eFTV8egab3UsGkvbpqGfxVRcoJQUauM6PF5/OH9BG+Wk5oNqXQdXWAAAcB0AAABaUR0fXDOhKhb937Vvr9wjZXLRAKWkUJNHuFxOuqpbE/N/5b18MuqdxnUAAOA6AAAANKA6hEQ2v3wzqmPRmE5c7nn+/gpTBtV1HUo5aU784IYmHoB9l+QcdR0AALgOAAAAzaiO1u2ojsViG9nwyUPur0AtH+JyOWn7+kEtvNZ0pFlMBEIu6joAAHAdAAAAWlEd1JIuksHbOw+Vv7+i3l+hlBRq4DpK5aSF77VQTtq2opj1B/niLAAArgMAAEAjquMJqmOxpaSmG19xfwXq4DqUctLCT/0aeAhur5KS0ZnpSVwHAACuAwAAoP6qQ2r9cAzVsci399s2NxXFJPdXoMYPslJOGk1Jq1o08BScHkrnBOo6AABwHQAAAJpQHQf+gepY7P2V63f3lO+vOPn+CtTUdSjlpOnWe/V/hke/K2YSATd1HQAAuA4AAIC6q46wdGkDqmOR91es93Y1y+EI91eg9q7D4QoFImLztrqXk1rafiqE/V7qOgAAcB0AAAD1+gNpgeoYOofqWOT3V8zrHxXTybjg5f4K1PxRnnAp5aTFDfUvJ+2+LKWUuo5xXAcAAK4DAACg3qrjqBnVsTjVceduL/dXoG6uo1ROuvNO3Z+EY0PpiOBzcoUFAADXAQAAUG/VcWgTqmORqqNl1axyfyXI/RWox9OslpMmpY1X6v4krGvOJIJul4PXOgAAcB0AAAB1Vh23UB2LrOro/Iz7K1BX16GUk8oHuuv9JI/cpK4DAADXAQAAUGfV4RPiYenQOlTH4v5TdttPzdxfgbq6DodTKSdde2Owzs9y13kpFaOuAwAA1wEAAFBv1bFnXRuqY1Ef2ezer9xfiXJ/Ber3QKvlpJni9rE6Pw3XDokRIURdBwAArgMAAKAefxnZJxxzquNgmw1fsQhM//wb91eg7q6jVE56tc7i0nb1QTZOXQcAAK4DAACgjqojEA9LHaiOxf1tN7x6N/dXoN7Yy+WkZ4fr+zzs3ZWnrgMAANcBAABQP9UxragOuWMLqmMxDN673MP9Faj/Q62Uk8Zy8qUr9X2vY99+ORXzOSe5wgIAgOsAAACo8V9FPzxTHZ/eHUF1LOL7K2ObP+nj/gpowXU4nCEhIjbvG6zrI/HhHjESoK4DAADXAQAAUD/VkZQfr0B1LKaUtP/qAe6vgCYea7vD5Q4mMsVrpro+EheKal0HV1gAAHAdAAAAtVcdU2XVcXUvquPdse5b0ytlub8CmnAd5XLSrXX9EMudjflk1DtNXQcAAK4DAACg1qpjfE517N6K6lhEKal5/fkH3F8BjVAuJ82/31bPp2LJGTlHXQcAwP/P3r0/R3nfiZ4XRSQYRQckI4mbbK4ChGS1KS4hmFtkwhAIm3AJJsdyJ3GYeI+FwD6NTLGeWm/VbKWn9kAo6mzqHCbaKmPXMTUntZpZneOqsdRR37vVPer7vdUS2HiOh0p+2Dq/bLl2S955WgKDzUWXvjzf7/f9+gNi9dPP8/B83+nP96F1AABQxtTRtLGX1DH7H+u3r3ojl054fcPMr0APl3Z+c9JE5hed5byq1y2OxnwOG9t1AACtAwCAcqWOc6SO2W9Kary2rDE/v+JmfgX6aB2Tm5PevmEqYwHccivr9fPGWQCgdQAAUJbU4dVSRyepY9bzK9W1beOT8yt25legi4tb25zUF0uPt5TxRSy9bcl4aNg+SOsAAFoHAABlSR2N/0DqmDXD3g3b8u9fGXZah5hfgT5ax9TmpKeN5bsyjlelRj1s1wEAtA4AAMqTOlKNK1pJHbOdXzEv+Gh+JsD8CnRlanPSsVfK2Dp2/yjNdh0AQOsAAKBsqeN0q4loMcv5ld6WqrEo71+B3i7wqc1Jv7u9o2wZ8J1bAa+L7ToAgNYBAECpU8dIPnX8oJ1fdcx2U9LKFY1JbX7FzfwK9NU6pjYn3VG21tG7JJnQtuvop3UAAK0DAICSpg6/ljqWdZE6ZvmjjroP28YzgVjYNXJvfoVVHfRxid/bnHRN2S6PQ9tSQY/byggLANA6AAAodepIpGoudzHAMstXarauWjwWTUQ8w8yvQHetY2pz0mfLdn0sbUzH/A6bhZ91AACtAwCAkqeOjy+QOmY3v1JRv+V2MqttSuq0DjK/An2Z2pw092q5XjrbM4/tOgCA1gEAQJlSxzOkjlmu5Kr3VY2n4g/Or3BqQUeX+dTmpL9oLdd2Ha8lE+H8dh18GQBA6wAAoLSp4629pI5ZMXSd+25O25SU+RXotHVMbk7adLxMl8imxlTQM8J2HQBA6wAAoNSpo/mt66SO2c2vLNA2JQ2G/VM/6iB1QG8X+tTmpE1XynSR/MMn6QjbdQAArQMAgBKmDutk6vhTJaljVvMr3fu35jcldfGjDui2dUxuTlqzpUwXyZJxtusAAFoHAAAlTx3R5i2kjtnNr1S+md+U1MempNCvqc1J77xSUZarpPq5qe06uDgAgNYBAECpUkconzoMdItZzK+Ya98YTwUe3JSU1Rx0eLFPbU5adb0s18mC22zXAQC0DgAASp46PnmzgdQxm5/m977wXC6dYFNS6L515DcnTf3yQFkulA3jbNcBALQOAABKmDoc/tBo9JOFpI5Zza9c26ltShryu5025leg58t9anPSbavK8vOntjG26wAAWgcAACVPHfWkjlkwr/nFWDSubUpqHxrkRx3QdevIb06abXy2pxxXynfZrgMAaB0AAJQqdQxaHS4tdZw8RuqYxfxK+0e3k+lRr7Yp6ZCln9QBPesbyG9Omnu5ugw/66hnuw4AoHUAAFCi1DEwlTrG15I6ZsG46TCbkkKcS35qc9KdDaW/VkxrxtMxtusAAFoHAAAlTR03SB0z/1FH9Qvzc9GE18OmpBCkdUxuTrqktgz72ixkuw4AoHUAAFDK1JEeW7uD1DHzxVvDvNvJLJuSQpyLfmpz0r8qw+ak5l9MbdfRx/cAALQOAACKnjrCwfTYOwdJHTNWseZn46nJTUltbEoKMVrH5OakNZdLfsH3NLBdBwDQOgAAKGnqePmikXQx090HWhdObko67GR+BeK0jkG7KxTPLewt9c6khlPj6QjbdQAArQMAgJKljkWHjB3Ei5luSvr98UwgFvazKSlEuvCnNif99rGSj7AsZ7sOAKB1AABQitRhm0wdbZsqaBcz3ZR043Nj0USETUkhWuuY3Jz0RMk3J93+swzbdQAArQMAgBKkDudwOJjN7awldcx4U9K2+WxKChEv/anNSbetK/FPuUwLbkfZrgMAaB0AAJQidXhi2dy81Wbixcx2Hqh49/vjqXjM4xphU1KI1joGhpz+SPbWuYoSXzS7x7Padh2MsAAArQMAgKKtd75KHa+cJ3XM8P+gbn+2KZfflJT5FYjYOvKbkz7TWtofdnS/k4uH2K4DAGgdAACUInUkP2+po17MbFPSD0/UZAJBNiWFmFd//6Bd25z0zLXSXjd7mzKjYbd1kBEWAKB1AABQ5NQRSC55t443sMxsU9L39txiU1II3DqmNic9UNotbg7cjsZ8Iza26wAAWgcAAEVKHX0DFpvTraWOqlPV5IsZza80LG/SNiX1uZ1WNiWFkNf/5OakW9f0lPLKqTurbdfBCAsA0DoAACjSUufmVOqIBJK73u8mX8xof8WWlc2pQCzMpqQQt3VMbk46/l5Jp9fa25Lx0LB9kNYBALQOAACKkzr6LTa726eljlXb6RczmV9pPXc4F02wKSkEbx35zUmXdZUyEx57LjXqYbsOAKB1AABQvNQxlE8dmcMbeukXM9lx4ODJ/PyK3+20Mb8CYe8B/YP24XAiufZYKXf0bRlPx3wOtusAAFoHAABFTR3xzK+WttIvZvCjjrqWtk9S8YjH5bAPMb8CgVvH5OakSz4s4eWz/fRYwMsbZwGA1gEAQFFThzee2XO2nTewzGBT0q6lbyTT2vyK0zpk6Sd1QNi7wNTmpDUthtJdP5XzkonwsH2wn9YBALQOAACKkzpGtNSx7YUuUsf0dxswLni2MT+/cn9TUpZsELV1TG5Oemt36V7C1HH8u9GgZ8TKCAsA0DoAAChW6vB746nFpy+QOqY/v1J9vm18cn6FTUkhQ+so8eak5ve1N846bBZ+1gEAtA4AAIqVOhKpl5ZdJ3XMYH5l955cevTe/AqbkkLsO8HU5qRn6kt2CbW+lWO7DgCgdQAAULTUYc2njrsfV5I6pj+/cuOt5txD8yucTRC6dUxuTnp4QckuohufZxJh7Y2ztA4AoHUAAFCU1BFKRJveauihYUw3dVTXvsL8CmS6F0xtTjp/tbFUQ2D7nosGfWzXAQC0DgAAipM6HFrq+OmWelLHtOdXWnc33ZtfGWR+BVK0jsnNScdXlWpz0rql+e06GGEBAFoHAAAFTx0Dg1aHKzQabVx4jNQxXcaGk7eTzK9AutahbU56ubVEl9Hek8l4aNg+SOsAAFoHAABFSh1Hlu8gdUx3fsV84A3mVyDd/WBqc9JF10t0IR2qSo16tO06uH4AgNYBAEBRUkfNmQWkjmlv1bHxOeZXIGHrmNycdOsNU2m26zg1no75HDa26wAAWgcAAEVIHeFguubliyYixjRXaJVttzMB5lcg3R1hanPS27UVJbmSqn8wxhtnAYDWAQBA0VJHtqbtEKljmj/qMJz/BfMrkLN1lHZz0oZvJxPhYTtvnAUAWkfR/dv/9Mc//g8AAB36/e9+/WeF9sEHH/zwt//xJ7uX/u1bKw6SOqY7v7L75DOnN/6Hf/+T//jDH/7wgw8ed3B/9/ectBDOf/3933ftrazfa+woxcXU3dBw/a//vvX3HHcAekGTkLd1/GcDD7EAoMiSvaPHZKgwV3derz++7/2jN0gd05xf2bt586Xa48eut3dXmysMBlNPRwdHBTLdGjgEANRFk5C3dXzAoy4AKJY69tZf3Lf/KL/qmOZhM374myvrX1/QsLe1u85sNJh6SB0AANA6oPfW8Wu24AcAdVKH0Vzde6H+4ur3jy4gdUzvsHV/sfnUvs92VHZ1VpsrjPyoAwAAWgcEaB3//I88sgGAcqnj1GbewDI9poZ1Ry/VHq+/3r692mw0mkgdAADQOiBA6/i3f+T0BgClUkeDljoOsVnTtJg/PHo0P7/SOTW/QukAAIDWAQFax/fMnN4AoE7q2N7VcLH21OYPSR3T0dN59eipfYduVHb1Mr8CAACtAwK1jt/yuAsA6qSOXi11rCF1TI+h/tLm5/PzK/n3rzC/AgAArQOitA62JgUAFVpHPnXUbe9qWFC7ZvPrRo7INI5Z3fF19+dXKowGA6UDAABaB0RpHb/jwQ0AlEodlzYfqOCIPF1P6+rNp/Yd2sH8CgAAtA4I1zr+21/z5AYASqSOCi11HKy9tLm2gjv/0w+ZsfLe/ArvXwEAgNYB0VrH/1rN2Q0AqqSOygUHnt+82sya/emHrO7i0QfnVygdAADQOiBS6/gW/+8eACiSOtorD77+/OZ9pI6nM/Wu/g3vXwEAgNYBYVvHD02c3QCgQurozqeOVfvqWLQ/9YgZ957i/SsAANA6IHDrYGtSAFAndXxx9Go1t/2nHjHzwQ1X7s+vVPCjDgAAaB0QrnX8Iyc3AMidOnqmUseOTT/evL6bF40/TU/11d/w/hUAAGgdELl1/PPvObkBQObU0dFj0lJHa+WNTT8++uPtpI6npo6uzZufr73I+1cAAKB1QNzW8Zd1nNwAoEzq6CR1PI3p+B+Orn/9IO9fAQCA1gGBW8e3jDzDAYD8qeP6jQ/XH32+ldTxtANWt4b3rwAAQOuA8K3jz3gNCwAokDquaamjnVv+U/Rc/8Pk+1daef8KAAC0DgjcOhp4iAMAmVOHocKspY7P1h+91EXqeApj7R/Wrd90sOHC5PyKgdIBAACtA2K2jr/n3AYAqVNHXXXr9WuHrl65tJfU8ZTjtf3UBuZXAACgdUCC1vHf/si5DQAypw5zd+f1Y4eurltz3cAheaKe+s1H8+9fad1ex/wKAAC0DojcOv7SzLkNALKmDoOhwlzduVdLHacqSR1PZq7d/OD8CqUDAABaB8RtHT8xcm4DgKSpwzSZOuoP7Xv/VIOBlfsTD1f785uZXwEAgNYBSVrHv+L1gwAgeeo4vu/99+uNHJInMdzY/9D8Sg+pAwAAWgcEbh1/zbMcAMifOo6ROp6o7vWjzK8AAEDrgDytg61JAUD21HFq3Q5Sx5P0dK1nfgUAAFoHJGod/1zHqQ0AcqYOo7m690L9xdWn1h2s4JA8gfHYms2T8yvdzK8AAEDrgAyt4y95/gUAyVPHlQXc6p90sKoP8f4VAABoHZCrdfyWVxACgKypY/uFhour1xw9Tup4AlPr1Q3MrwAAQOuAXK3jd7yGBQAkTR29XQ0Xa9ccPWTmkDxeReW6zbx/BQAAWgckax2/55EOAGRrHfnUUdfb1bCgds3RD0kdTzhUdcd/8/5V5lcAAKB1QLLWwdakACBn6tiupY5LR18ndTyeqfPHv1mz+tA15lcAAKB1QKrW8b9U8FQHAPKljop7qeMASfvxjA2bN3/B+1cAAKB1QLrW8XMjZzYAyJg62hsWvH7paC2p4/FHylzL/AoAAKB1SNk6fmvizAYAGVNH5cHXnz+6upoj8jimznUbLq0+fq2yfTvzKwAA0DogV+uo5zUsACBf6uieTB3nSR2PZTj4h6M/fn1B/V7mVwAAoHVAutbxR57sAECm1NHzQOq42s0ReRxzy9L95z/c0dDVWc38CgAAtA7I1joqOLEBQMLUseP1lqPrt3NEHqfrvc2Xao9fu878CgAAoElI2Dr+tZETGwCkSR0dPSYtdbRW7tj046MtvRyRxzB9uPHK+tcXNOTnV4zMrwAAQOuAZK3jewZObACQLnXc2PTjo893ckQeo/rob07tO7SjsquTH3UAAABah4yt4wO2JgUA2VLH9R0f/vjopVaOyGOOU/3Gzc/XXqyfnF8xkDoAAKB1QLrW8Y+0DgCQLXXc+HD90TXtHJFHq/jxH9Zd3XSw4UIn8ysAAIDWIWnrqOO8BgDJUse1z9Yf3d/FEXm01g0bLq0+dK2yq5f5FQAAQOuQtXWwXQcASJQ6zPdSxwWOyCOZFvzm6BcHLtZfb91eZ64wmEgdAACA1iFh6/jXJs5rAJAkdRimUsfVo+/v5Yg8Ut3VzeuufqjNr1TX8aMOAABA65C1dXyL7ToAQI7UYZhKHYeuHl13nSPyyKN04dLmS6uPH6vMb0pK6gAAALQOWVvHr2kdACBF6sj/qqPz+jEtdVRyRB7FuOP9oy21C+r3trIpKQAAoHVI3Tr+kcc8AJAkddRVt2qp4wqp49GqNx2dev8K8ysAAIDWIXXr+Is/+1cAAP349W//32/Nzve+972f/+2f/93fLHp2B0v4RzDt3f3223/zd3/+5z//+b8cqm/pwH/+gPMd+rwN/fqDAz8831JX0N/+mm60/LD2gz/79a85vgB0iSYh4XtYAACiu3mzr39g0Opw+4LpsXnHSR2PUHFx7SeZQCzscjhtgwP9fTdvct4Aj7yf9FusI77R6O3jBX1XX+efxuIh34jV0se1BwC0DgAApp86XGEtdXxG6njEkE/3+l1j0UTEM+ywDln6+0gdwGNvKH0DNoc/kh2/YizkRbhjXmY07LYO9nPtAQCtAwCAGaaOVzaROr7JcOFcYzIbDPnd/KgDeHrrGHK6vIGxhQVtHS1N0aD2sw5aBwDQOgAAmGHqOHGAt2t9k3lB2+T8yoid1AE89Z7SP2gfDieSW80FLKeGjePZiN8xNMAICwDQOgAAmFnq+LyW1PENPd2nFn81v0LqAJ7aOixWtycY/U5DAa/D1oW5eMhlp3UAAK0DAICZpY7cytWkjm/+38nXtzyXuTe/YtFKB0st4Il3lT6LzeGLRW+3FPBCXPBiiu06AIDWAQDADFKHzTkcDmZzS/aROr45v7Kp6pMU8yvATFrHwJBT25x0WQGvxEtbozHfiI3tOgCA1gEAwMxSx3kTaeMb8ytLf5aLJrw+5leAaesbGLS7QvFPlxTulmI6zXYdAEDrAABgZqnDE8vmqlpIHd+YX2lY1Jx8YH6F1AFM587SP2h1hxOZxe0FuxY71+bioWH7IK0DAGgdAADMKHUYaBsP6zC2LB5PxSMel8M+xPwKMP3WYbGOeIKpxZ8V7Gq8eCIz6mG7DgCgdQAAMKPUset5UsfXU8f2Z7+bS496fcNO5leAmdxbJjcnTd/dXbDL8f2maMznYLsOAKB1AADw1PXIV6njjUtG4sbXUsfBqvmZQDDsv78pKYssYJr3loEhp8sbOLKwUNsdm54Zz3r9TrbrAABaBwAA004dyVdPkTq+xrjhZ2PRRMTDpqTAjPX1D9qHQ/HkvO5CbdfxdpLtOgCA1gEAwAxSRyB5eL+xg7rxkK5Fz2WywZDP7bSyKSkw09tLfnPS0cyJa4XarmNJiu06AIDWAQDAjFLHlQrixsOvmt23eDwViIVd9+dXOGOAmbQOi3XEF4zuulqgS3JVU5rtOgCA1gEAwExSx6oKftXxkOpnvptLJ7w+5leAWd5gBmwOfyT90tkCbdexcCzgdbFdBwDQOgAAePJKpE9LHW5PJJDcs9tM6njIjX8zX5tf8budNuZXgNm1jvzmpM1bzAW5Jnt3Tm7X0U/rAABaBwAAT0odlqnUsY3U8bCKVa+NR+MRj8thH2J+BZiVe5uTrr1ekKvy+BvRINt1AACtAwCAJ6aOm5Opw6eljg11pI6HNiVd2JRLj3q1TUmHLP2kDmBWNxltc1LPaGrnoYJclruntuvgZx0AQOsAAOCJqcM+mTqWkjoe2hag9t80Zx7alJS1FTCb1mGxjfhi0V3vFmSz4G/fYrsOAKB1AAAwzdSRWXy2mtTx4KakGw/fiiYiHjYlBeZ2m5ncnDR75KyxABdm98pkgu06AIDWAQDAE1NHv2VISx3xzEsbq3sIHPd1XFvelGRTUqAgrSO/OWnucmchtuvYk9K26+CNswBA6wAAYBqp44VuUscDm5I+P685FX9wfoXTBZjtnUbbnDScSJ6sL8C1+V5jOuZnuw4AoHUAADCN1HH3HKnjAe2nD3+aTnh9zK8AhWgdFqvbE0zN21SAi7PtU7brAABaBwAAT08d3nhm64peUsdXm5IeWt6YuTe/wqakwFzvNX0Wm8MXS9993jT37Tq+n0yE89t1cFwBgNYBAMATU0fTaVLHA5uSrnuxORWPeFwO+xDzK0ABWsfAkNMfyY5vqJ77dh1bo0HPCNt1AACtAwCAJ6SOEZ83nmpa1knquP9Gy4Zl2+6kR72+Yad1yNJP6gAK0TrsrlA8d/nCnC/QpTXZCNt1AACtAwCAJ6YOv5Y6LreSOu5vSrp6bU0mEAv7729KypIKmOv9pn/Q7g4nMmeuzfkFSStzbNcBALQOAACeljoSqaaP20kd97TuXnIrmoh42JQUKGTrsFhHPMHUrg/neq/pfS4zGnZbBxlhAQBaBwAAT0odjW91mWgckww7Pt6azAZDPrfTOmjp7yN1AAW540xtTjreYp7jNbr6djTmG7GxXQcA0DoAAHhi6niW1HHv1/F15xfVpAKxsOv+/ArnClCQ1jEw5HR5A2PvbZ/jVbplPBvxM8ICALQOAAAekzqsk6njT3tJHVObku597/Cn0YSX+RWg4K2jf9A+HIon/7R3jj+9+t+S8dCwfZDWAQC0DgAAHps6oo1brpM6pjYlvbilUZtf8budNuZXgMLedfoHre7waOaV+o45/faq4TupoIftOgCA1gEAwGNTRygRrXmzktQxaXvLK82peMTjctiHmF8BCt068puTRucfN87lMjVdGU/HfLxxFgBoHQAAPCl1LKw0UDnyv4yv3Lg4lx71+oadzK8Ahb/v9A3YHP5Ieuz5ujn9+qptjDfOAgCtAwCAx6UOhz80Gq052UDqyDMfOlOTCQTD/vubkrKSAgrbOiY3Jz03p81Je7+TSYSH7YP9tA4AoHUAAPDN1OHSUsfyelJHflPSzlNv3Irm51f4UQdQFPc2J327dS6/vzpwOxr0jVh54ywA0DoAAPh66hicSh1rj5E6NMaGy03J7GjI53Za2ZQUKM69R9uc1DOa2jqXLYIqVmhvnHXYGGEBAFoHAAAPp46BqdTRfOYaqUP7UUfdpnnNqUAs7GJ+BShi67DYRnyx6O1Nc9ictHtJjjfOAgCtAwCAJ6SOd3YYOigdE6bW3Ytz0YTXM8z8ClDEu0/fwJDDH8mOrzLP/o2zlc9FR3njLADQOgAAeEzqSDe/fdBI6JiYqKhfXpPMBkN+t9PG/ApQ1NahbU6a2zL7F7EY10+9cZbWAQC0DgAAvp46wsF088sLSB3a/Mq+XZ+k8puS2ocG+VEHUMQbkLY5aTiRPFzdM9sLtvoyb5wFAFoHAACPTR23Fl0kdUxMGFpXNOXSo17fsJP5FaDYrcNiHfEEU7frZ705afuuJG+cBQBaBwAAj0sdbceN7NUxUXFwZ3MyEAz72ZQUKP4tqM9ic/hi6fHzs20dHTtup4Ie3jgLALQOAAAenToOVVA6eureXzwWzc+v8KMOoAStI79hR3ZsxWxbR8Wp8bT2xlkLP+sAAFoHAABfTx2f7txE6pgwdS1sTGZHvT6308qmpEDx9WkbdoTiuZWzbR29W3Js1wEAtA4AAB6dOuYdIHVMGA5UfZIKxMIu5leAEt2G+get7vBo6juts7xqK7+fSYTd2nYdHEwAoHUAAPBg6sh+Oq+2gr066l5oGosmvJ5h5leAkrUOi3XEF4w+d2CWY2ebbkeDPrbrAABaBwAAD6QOm3NYSx0v1pr5VUfDzppkNhjyu5025leAEt2I+gZsDn8kW7Nxdpetefd4VtuugxEWAKB1AADwtdTxympSh+Hd18ZT+U1J7UOD/KgDKFnr0DYnDTS3zW7DjvaTuXjIZWe7DgCgdQAA8EDq8MSyuRPnSR3b32zMpUe9vmEn8ytAKe9F2uak4URySfusrtwdezKjHrd1kBEWAKB1AADwUOr4/Gqd8q+aPV41PxMIhv1sSgqUunVYrG5PMLXr0Kwu3fW3ozGfw8Z2HQBA6wAA4KHUsbJF+dRhfu/uWDQ/v8KPOoAS3436LDaHL5b+q1WzuXarXxjjjbMAQOvgEAAAvp46kku+UD517D3ZmNTmV9xOK5uSAqVuHfkNO7JHnjXM4uK9/k4mHhrW3jjLVQsAtA4AgPKLi3upI5Cserda9U1Ja3fWZAKxsOv+/ApnCFDK29GgfTgUz51pncXl++HiVJDtOgCA1gEAwNdSxxrVU0f1hqpb0UTEM8z8ClCWG1L/oNUdHs3sXDDzy9e0bjyd366Dn3UAAK0DAEDq+Cp17Fc8dXTUX158JxsM+d1OG/MrQFlah8U64gtGq1pmfgF3X2a7DgAArQMA8FXqcHsigeSudd1qp46K2rWNzK8A5b0lDdgc/kj2p2dnvmFH/c5kIsx2HQBA6wAAsK7o6xuw3EsdqxRPHZ3vn2hmfgUod+vQNicN5C53zvgS3rc1GvSMWHnjLADQOgAAii8rbmqpw+72RQLJX67arnTpMDX8w7YH51dukjqActyVtM1Jw4nk8mMzvoaXjmcjfoeNERYAoHUAAEgdk6kjc3h3r9Kpw3xoOfMrgB5ah8Xq9gRTrxyY6UXc+1EuHmK7DgCgdXAIAIDU0W8Zmkwdv9qgdOro6X1+CfMrgB7uS30Wm8MXS/9ojaFjZpfxwROZ0TBvnAUAWgeHAABIHZOpI57Zs7RT5dRhuH7ubjI9GvIxvwKUvXXkN+zIjr830w2E1jRFY74RG9t1AACtAwBA6nD7vPHMnrOtSr9/ZcE7NcyvAHppHYP24VA898z1GW7XsUzbroMRFgCgdXAIAIDUMZk6tr3QrvL8St0Xb9xifgXQy72pf9DqDo+mFu2Y2ZXc/k4yHhq2D9I6AIDWAQBQPXWM+Lzx1OIVXSq/f6V1WdOD8yukDqDMrcNiHfEEo4sPmGZ0KR+qSo162K4DAEDrAABSx4jfG0+9dHpvh8KpY8fOZuZXAB3dnfoGbA5/JD2+pm5G1/KGmnTM52C7DgCgdXAIAIDU4U2k7l6+rnDqMOx/bYz5FUBfrUPbnDQw9sKMdkw2nhwLeHnjLACA1gEAqqcO62TqeKZS4dTRu6UxmR71Mr8C6Edfv7Y5aSK5dkabk16Yl0yEh+2D/bQOAKB1AACUTx1Nzzaomzp6jq+cz/wKoLc7lLY5qWc0tedYzwwu59V7okHPiJURFgCgdXAIAEDp1OHwhxLRn26pVzd1mFd9n/kVQIetw2Jz+GLR27UVM7ieT9dkI36HzcLPOgCA1gEAUDZ1DFodrtBo9KcLr/Uomzr2PruV968AOrxH9Q0MOfyR7Pju6hls19GWY7sOAACtAwCUTh0DU6mjcfkOZVOH4cDLjcyvADptHXZXKJ7bsn36V3RlVSYR5o2zAABaBwCQOo6sXaBs6uhe93kz8yuAPm9T2oYd4URmV+v071AtW6NB3whvnAUA0DoAQPnU8e2LqqaOnobTe+4wvwLotXVYrCOeYHT+DsO0L+ott7TtOhhhAQDQOgBA5dQRDqZrXj6kauqo2HSyifkVQLc3qj6LzeGPpce/mPbmpMY3kvHQsH2Q1gEAoHUAgMqpI1vTtsmkaOroXfNiTTTO/Aqg29YxMOR0eQNjy6bdOurvpkY9bNcBAKB1AIDaqSNds/OAoqnDVLlRm1/xMr8C6FVf/6B9OBRPLjFP953Y79ekYz4H23UAAGgdAKBo6rA5hsPBdPO81YqmDvPFhcyvADq/WWmbk3pGk/P3TnfQbt4Yb5wFANA6AEDh1OEcDgezzSf2qZk6erpbTjQzvwLovXVYbCO+WPR27TR/11H3XDIRHrYP9tM6AAC0DgBQbPUwlTo8seynK9cblEwdhgsbF+cm51eszK8A+r1bDQw5/JHs+AvTvLQP3Y4GPSNWRlgAALQOAFA3ddyp+kLN1FGxY20j8yuAEK1D25w09+I0f9dxelx746yNERYAAK0DANRNHbsuKZk6eszrq24xvwKIcMPSNicNJ5K/6Jzexf39XDzEdh0AAFoHAKibOgLJV/cblUwdnafvMr8CCNI6LNYRTzDVdHxaV3frd1KjYd44CwCgdQCAcqmj737q2HNFzdRxbVFzJhBkfgUQ4pZlsTl8sXTTqmld3edvR3njLACA1gEAyq0bbvYNWGxOtycSSG7brWTqMF46PM78CiBM65jcsOPIR9PZsMP4J944CwCgdQCAoqnDnk8dL/1GydTR+1YT8yuAOPq0DTtC8TvzuqfzxtmfJeMh3jgLAKB1AIBqqaNfSx2+SCC5+GyFivMrF3fO5/0rgEi3rf5Bqzs8mvn8xjQu8PrbqaCH7ToAALQOAFAudQzlU0dm6wsqpg7zuirmVwDBWofFNuILRne1TGOE5f3xtPbGWQs/6wAA0DoAQL3UEc80nTMrmDr2Llt8h/kVQKwbV9+AzeGPZF96oefpIyxncmzXAQCgdQCAuqljRZ1yoaPDcGhtI/MrgHitI785afOb1U+9yjt/lkmE3dp2HRw3AACtAwDUSh3eeKZpWXWHcq2j+9S8GuZXAPHuXdrmpOFE8kz90y5y02e3o0HfiJU3zgIAaB0AoFbqGPF546nGy93KpY6eyhcOM78CCNk6LNYRTzA6r/apG/KcHc9G/A5GWAAAtA4AUCx1+LXU8cz2HtVSR8Whj36UCQSZXwHEu3v1WWwOXyy97YrpaSMsOyffOEvrAADQOgBAsdSRSDU+26lc6tjespP5FUDU1jG5YcfYue6n7MlT/53UKG+cBQDQOgBArdRhnUwdW9pVSx2G60uZXwHEbR3ahh2heHJL5ZOH74wt4+mYz2Fjuw4AAK0DAJRLHR91qZY6zAu2NGnzK37mVwAh72D9g1a3ZzS18/hT9h/+eIw3zgIAaB0AoFzqCCWiRxbuNalVOnq6z89rTsUjHhfzK4CgrcNiG/HFonevGp54sVcuSSbCw9obZ7nIAQC0DgBQInUMWh3+0Gi0ZnmlYqnD0L50T475FUDke1jfwJDDH8ne2v3EDTt6Ns2PBj28cRYAQOsAAFVSx8Cg1eHSUsfaBsVSh/HayUbmVwDhW4fdFYrnPr7wxGm13fk3ztoYYQEA0DoAQKXUka55p96g1vyKed/nt5hfAUS/jWkbdoQTmZ31T9qctGt5Lh5y2dmuAwBA6wAAlVJHtObtG4qlju3nFjO/AkjQOizWEU8w2njI+IQL/uA23jgLAKB1AIBaqSMcTDcvOqhW6jBd+3Yz8yuABDeyvgGbtmHH2Km6J1zw7/LGWQAArQMA1EsdbQuMSqWOijW7xqPMrwBStI4hp8sbyC3rfcIbZ0/zxlkAAK0DAJRLHTuPq5U62t9qZH4FkORe1j9oHw4nkq+0P37Djvo23jgLAKB1AIAyqcM2mTrmfVih1PzKplfGM4FY2MX8CiBD68hv2JF6bofhsbFjdRNvnAUA0DoAQJnU4RwOB7OfvnhAqdRRffa1sWgi4hlmfgWQ4W7WZ7E5fLH0eMtjb2SGpZNvnLXwsw4AAK0DAFRIHZ5g9tMTtRUd6pSOjvp3nstkgyE/8yuAJK1jcsOOscuPvZO1LtTeOMt2HQAAWgcAyL44mEodseydz/eZVdqU9Iuq8VSc+RVAHn3ahh2hePJV8+Nax/ElGd44CwCgdQCAQqkjt3K9SqmjfdnWXDrh9TG/AshzQ+sftLo9o6nvNPQ85sK/0hzljbMAAFoHAKiTOpJVLXXqlA7DoUU1mUB+fsXG/AogzR1tcsOO2y2PufLNz/DGWQAArQMA1EkdgWTVuwqljurdu25F4xGPy2EfYn4FkOeWlt+wIzv+7GMu/cpFvHEWAEDrAADp1wV9Axab0+2JBJK7TlWrsylpw1tb76RHvT630zpk6Sd1ANLc0yY37Mi9+piBvH17eOMsAIDWAQCSLwtufpU6frlOndRRsfrlxkzgwU1JWfYAktzVtA07wqOZ1+offfWf/oQ3zgIAaB0AoEDqsLt9kUDyV7u7lUkdrbuX1EQTEQ+bkgIStg6LbcQXjC5+9IYd1Wd44ywAgNYBALKnjn7LUD51ZPZs2K7MpqQ3ntl2J8umpICc97W+AZvDH8n+6PQjr/+DSzKj4fwbZ7nuAQC0DgCQO3XEM9uW9qqSOur2vfPT1EPzK5wKgFStQ9ucNND89iP3Wl7VxBtnAQC0DgBQIXV445nFGzsVKR09XbtX1qQTXuZXAFlvbdrmpOFEZl7DI+4AprW8cRYAQOsAAEVSx0vnWhV5/Yrx4OVtyQfmV9iUFJCvdVisI55gdOXqR23WcyKZCPHGWQAArQMA5E4dI35vPHX3dLsiv+qoPv9yYyqen18ZYn4FkPPm1mexOXyx9F9teMQ9oHZPijfOAgBoHQAgf+pIpH60rEuN0mG6sLvq02jC62N+BZC5deQ37IjXfPyIDTt+UJPmjbMAAFoHAEidOqz51NH0zF41UkfFjmdeuj+/MsD8ShkIcZ7wNYnfOrQNO0Lx5MnKb76F6XO26wAA0DoAQIXU8dO3KtXYlLR7dVtNKh7zuBzMr5A6yB5S3+D6B61uz2iq7dA3vtLrr2USk2+c5TABAGgdACBr6ggloo1bKjtUSB2Grg1vJNP35lf6SR20DpKHxK3DYhvxxaK/fL7n699lS2M06BvhjbMAAFoHAEibOhxa6jiysEGJ969U7NjSxPwKqYPkocYtrm9gyOGPZJs3fGPDjoW3shE/IywAAFoHAMiZOgYGrQ5XaDR6ZO0xJeZXqs/Pu5WKR5hfIXUQPBRpHU5XKJ5bduHrv+/6RTKuvXGW1gEAoHUAgMSpo+bMDSXmV9o3bsulR72+YSfzK6QOeocCd7n+Qbs7nMic2fG1r65yfmrUw3YdAABaBwDInTrePqjE/MrBMzWZQDDsH7Ezv0LqoHco0Tos1hFPMLrrwNc27Fgzno75HGzXAQCgdQCArKkjHMzWtC1QYX6lbk3VWDQ/v2IdsjC/Quogdyhwn+uz2Bz+WHr8XfPD39ki3jgLAKB1AIDcqSPdvPO4Am9gMV243JTU5lfcTuugpb+P1EHqIHco0Dq0DTu8gbGznQ99X8bvJBPhYftgP60DAEDrAABJU8eteR8qkDoMn+38JBOIhV3Mr5A6yB0KtY7+QftwKJ756PpD82wLbkeDnhErIywAAFoHAEibOl45oEDqqN6wZyyaiHiGmV8hdZA7VLrX9Q9a3Z7RVNWNBzfsMG0cz0b8DhsjLAAAWgcASJo6xpbU9sifOhqW1ySzwZDf7bQxv0LqoHao1DosNocvFp1fW/HA11Txai4ectnZrgMAQOsAAOlSh80xHA5mc1X75E8dxqtLxlMPza9wEpA6qB1q3O20DTv83uz47uoHRlgufIc3zgIAaB0AIGfqcE6mjvXyp47e01tz6YTXx/wKqYPaoWDryG/YkXuz94Hde1p44ywAgNYBALKmDk8wm9vVIn3qMC1YdDvD/Aqpg9qh6A1P27AjPJp57YLp/vdj/og3zgIAaB0AIGvqiGVzr34hfeqoW/fGeCoe8bgc9iHmV0gd1A71WofFNuILRm9vMn71U69f8MZZAACtAwAkTh3vmiRfcXZUPtOUS496fcNO65Cln9RB6qB2qHbL6xsYcvgj2fH3jPdeOGU6zhtnAQC0DgCQN3XsOSV76jDWLqrJBGJh//1NSVnbkDqIHcq1DrsrFB9ru/+7DvNS3jgLAKB1AIBkz/0PpI79sqeO3t1VzdFExMOmpKQOaoe6N72pDTuea733u47Oecl4aJg3zgIAaB0AIGHqSO5ZJ3nqMN149qU72WDI53Za2ZSU1EHsULZ1WKz5DTtq70221c/njbMAAFoHAEiZOgLJPVcMkm9KerWtMRWIhV3351c4AUgd1A4Vb3sDNm3Djlsr7o22vcsbZwEAtA4AkDV1bJY7dfRcWLqrOZrwMr9C6iB2KN86hpyuUPzO5xWTX8n2t3K8cRYAQOsAAClTx7bdcqcO48UtLyWzwZDf7bQxv0LqIHYofeeb3LAjtatycsOOhj2ZRNjNG2cBALQOAJAvdWyQO3V0v7vzSCoe87gc9iHmV0gdxA7FW4fFOuIJZn91fvI3X7XaCAtvnAUA0DoAQKbU4fZEAsnFS41Sb0pa+cKuT9OjXh/zK6QOYgemNuwIvHRuciefjZmA1+9ghAUAQOsAACke9/sGLPdSx1mpU4f5w4V3M4FgyH9/U1KWNLQOaofSrUPbsGP0//ubbu3LuP5foqPhYfsgrQMAQOsAALlSx0aZU0dP66l5Nel4xOPiRx2kDmIHvsxv2GF3e2LZ/3JN+y7+r/87oI2w8MZZAACtAwDEf9a/qaUOu9sXCSTvbqyQeVPS+hW/SmrzK26nlU1JSR3EDkxt2OH3Jv7d+YmJDsO/T4+GXA6bhZ91AABoHQAgT+rI3D0nc+qoPrC2KROIhV3Mr5A6aB2YugH2WWxOVzj2v/8H48TEf/27QMQzbGe7DgAArQMAZEodW1dInDpM7Vc+vxVN/MtKhvkVUgexA/dbx8DQv9z/QrG/bZ2Y+E//Yyzs10ZYaB0AAFoHAIieOvot2qN+JJ7Zetos72qy4sblbclsMORnfoXUQezAA62jf9DqcHm8//13Ex0/CYR8bqeNN84CAGgdACBP6mj6gbypo6N79cs1qYfmV/jySR3EDuQ37LDZR1z+f/dBj/nPQ/mXUTPCAgCgdQCAPKljWZ20C0nDhQ27ctGE18f8CqmD2IGH74J9A4NWp9v1f/7E3PAX4WGH3cYICwCA1gEA8qSOy/KmDvPBLU1T8ys25ldIHcQOPNQ6/uUuaHWOuL7X+tv/ya2lDkZYAAC0DgCQInV445mmZ6plXUP2dK+fdysVj3hcDvsQ8yukDloHvtY6BgaHrE7Hf2/4+bDTbhuyMMICAKB1AIAkqaPxreoOSZeQxr0v7MmlR72+YSfzK6QOYgceETssg0M25//xk7+wW22D+ZsERwUAQOsAAPFTR6rx2W5ZNyU1X1xbkwkEw/77m5KyjCF1EDvwUOsYsAwODtn/5//HNkTqAADQOgBAhtQxkk8df+qW9Fcdpu5TVWPR/PwKP+ogddA68Jh7Yf+AxWKzDQ5aBga0DX04KAAAWgcAiJ06/Frq2CJr6jBUXm5KavMrbqeVTUlJHcQOPOZuqNWOAcvAwEA/twkAAK0DAGRIHYlU48LeHjnnVyo2tX2SCcTCLuZXSB3EDjz+dnizT6sdmj5uEwAAWgcASJE6ak52ypk6ero37BmLJiKeYeZXSB20Djwxdmi1Q3OT1AEAoHUAgBypo1XS1FF/siaZDYb8bqeN+RVSB7EDT44d93E4AAC0DgAQP3UslzR1GNcvGU/FH5xf4YsnddA68JTewXEAANA6AEDo1GGdTB1r2+VMHZ0rtubSCa+P+RVSB7EDAADQOgBAodQRrTnTJWXqMC1YNJ4JTM2vsCkpqYPWAQAAaB0AoETqCCWiNe9ckDJ11K3bMxaNRzwuh32I+RVSB7EDAADQOgBAndTx7b0ypo6Oyme/m0yPen1up3XI0k/qIHXQOgAAAK0DAORPHQ5/aDTa/PJ1CVNHh7F2Z3Mm8OCmpKQOUgetAwAA0DoAQI3UUSnjrzp63/v+rWgi4mFTUloHsQMAANA6AECR1DFodbi01LGo0iThpqQ33mxKZqc2JbX095E6SB20DgAAQOsAAFVSR1uDhKnDfL7tSOqh+RW+dVIHrQMAANA6AEDq1DEwlTpu7ayXL3X0tG+oao4mvD7mV0gdxA4AAEDrAABSh/iMO57Z9uD8CpuSkjpoHQAAgNYBAMqkjnnX5Esd1fu+/dNUPBZ2OexDzK+QOmgdAACA1gEA6qSOYPrWvB3SpQ5T16qVX82v9JM6SB20DgAAQOsAAEVSRziYvvXiQYNsy8OKa8u+ml8ZYH6F1EHrAAAAtA4AUCl1vLJAttTRU117ZvL9K8yvkDqIHQAAgNYBAOqljouypQ5T67qVY8yvkDpoHQAAgNYBAEqmjrETx2VLHcaGZS8xv0LqoHUAAABaBwAomjo+PyRZ6ugxb3q7mfkVUgetAwAA0DoAQNHUseQzQ4dc8yvb1+36an6F1KGr1EG+oXUAAEDrAAAUO3XklmwySrZVR+XHTcyvQK7iwQEGAIDWAQCYRuqwOYbDwWxuyQHJUodh087x/PzKCPMrkKZ3cHABAKB1AACmkTqc+dRRVStZ6qjevUebX/EwvwKZageHFgAAWgcAYNqpY7VcqaOn8qPnMsyvQLrcwXEFAIDWAQCYRurwxLK5qvNypY6K2lfGef8KJKwdHFUAAGgdAIDppY5dVyukSh29G/bw/hVIGTs4qAAA0DoAANNLHS1SpQ7TsWe38v4VyBk7BPlQfPUAAFoHAKDMqeNVuVKHefWiRuZXIGnsEPBzcBYAAGgdAICSp47k4UsypY6e1t1LmplfgayxQ+A/n5OhnF+LHk8KvkiocRcX8q/me6d1AICwreN+6ggkD68xS5Q6jMcu72F+BfLGDlEbjdAP0GW+qxXiDxKodIj8D5D+T6bSXblC/JESZwNKB60DAEgdgeThUxKljo662rU/ZX4FEi+U5VjZ0zjmdqzKeMSLfw6QOmQoHV+K9vfKFjtIHbQOACB1BJJ71kmUOkytV07ciia8nvz8Sj+pA/KtmOVZ3FM5Spg6JvR2YOSLAaQOPX5Q3Zz3pA5aBwCgDKljlUSpo6L+NPMroHUItLwnc8zqCJXtSJfiiyd1kDp0eJsR7FZH6qB1AIDiqcPtiWipo06a0tFTt2ltTX5+ZYT5FdA6RFmZ0DlmfnTKdZhL8p2TOiRoHeLHGrFjB6mD1gEA6qaOvq9Sx255Uoep89SJsfvzK6QOSLqClnGBT+eY4ZGROXXI/NMHUofA9xmRbnOkDloHAKicOixTqWPbBnlSh7Hy9Ev351cszK+A1iHUqoTQofvWUaqvmtRB6tDlfUacexypg9YBAMqmjpta6rC7fVrqWCpN6ugwHzrzSWZyfsXG/ApoHeKtSQgd0z8mIv6Ef9p/CKmD1KHP+4wotzhSB60DAEgdgcy2pdWypI6e7lNVY9FEhPkVSB87ZF7hEzqKlTom9HKYSB2kDnFvM2Lc4EgdtA4AIHUEMovPypM69i5rYn4FSrQOyZf4lI7pHIzSH9gSfr2kDlKHXm8zQtzeSB20DgBQOHX0W4a01BHPvLSxW5bUYTjUNs78CmgdUixHCB1PPxIlP6yl/G5JHaQO3d5mBLi7kTpoHQBA6ohn7p7r7pAkdVRfeY33r4DWIc1qhNLxtMNQ4mNa2u+V1EHq0O9tRvc3N1IHrQMASB3xzN1/kCV19FS+OZ/5FdA6ZFqMUDqefAxKe0RL/KWSOkgdOr7N6PzeRuqgdQCA8qnDG89sXbFdktRRsXrleIr5FdA6pFqLKF86Cpw6Jsp+qKRcLJM6xP6g8rUOSgetAwBIHfHM1tO9kqSO1o1bc+mE18f8CmgdUi1F1C4dE4X+88t9qGRdLZM6pP/yRIodpA5aBwCQOuKZrcs6e6QoHYYF79QwvwJSh4wrEZVLx0TBP0B5j5XMy2VSh9AfVKrYQeqgdQAAqSOe2npZktRRvaaqORWPeFwO+xDzK6B1qLeKlPQoFP4jCJM6JDxLSR3EjpI0BVIHrQMAFE8dI1rqaPq4VYrU0VO57O6d9KjXN+y0Dln6SR2gdUi2EFG0dEwU/kMIUzqEO09JHaJ/0NJfF6QOWgcAoCipw+9NpJreapcidVQcWNSYCcTC/vubkpI6QOuQax1C6ihn62DFXJBPR+ogdpSiK5A6aB0AQOqQJnV0dG7Y1RxNRDxsSgqVWodaqaPQT+CSfOYSHcfyfIGkDlEvPXEfJ0p+bZA6aB0AgOKkjsY/dcmQOgw7/rRY25TU53ZatU1JSR1QInVMlPu/L3TtUHgoolwHS/JzldSh6E1Gfz/sIHXQOgCA1JFINW65IEHq6Khr2dmYCsTCrvvzK3zNoHXIuAop3GO40svn8hwt2U9WUoeyNxm9xQ5SB60DANROHdbJ1PHmXglSh+n6xjfupBNeH/MroHXIvgop1IO4RB+2+IeQMEfq4CZTzA9M6qB1AAAKnzoWXjeJ/6OOikMnX8pkgyG/22ljfgWkDrkXIQV6Epfpsxb9EJbzayN1kDqIHaQOWgcAYKapI3rkpAypo3P/vJpoPOJxOexDzK+A1iH7IqQQz+JyfdJiH8GyfmmkDlKHEp+Z1EHrAAAULnWEEtEjyyuFTx0dhvrTh++kR72+Yad1yNJP6oBKqUPJRUgBnsbl+qBFPoDl/cZIHQJeb2reZHTTOkgdtA4AIHUkokfWip86JupWn2nKBGJh//1NSUkdIHVInjrm+jwu2ccs7vEr8/dF6iB1EDtIHbQOAMD0U4fDHxqN1qxtED51mLp2n2iOJiIeNiUFrUOh1DG3J3LZPmRRDx9fFqmDoCpS7CB10DoAQPXU4dJSx5l64VNHxYJn9iQnNyW1sikp1EsdE2X8TwvbOuT7jEU8euX/EQ6pg9TBDztIHbQOAMD0UsfgVOr4tvCpo2d7y8tHUvFY2HV/foXvGKQOJVKHAltdFjNIlPJg6eh6IXWQOmT/YQepg9YBACqnjoF7qePlYwbBH0MMlWercumE18f8ChRNHRNl/E+LGjtIHTP43yZ1kDoUTh0ixg5KB60DAEgdWuq4JnrqqPtsy91MID+/YmN+BaQO1VLHRPmPv04+XrH+x3VQOsT4wkgdst5lSn7CkjpoHQCAAqSORTsETx2m1lM7m6PxiMflsA8xvwIlU8dEGf/TSi5EdPrhivS/rovU8aUcXxWpgx92lOKKIXXQOgBA+dQRDmZr2kRPHRXHVvwqmR71+txO65Cln9QBFVPHRBn/00quQ3T62XS7PNfhJUPqIHXou6eSOmgdAIA5pY50TdtBQ4fIjx891bVrj2QCD25KSuqAcqVD9dQh80qsyB+rNIdKlxcNqYMLrMjncNkuG1IHrQMASB3BdPPOi0ahnz4MF1Z9PhZNRDxsSgqFS0exxxzkW4jI+sGK8L+vl9Kh/y+N1CH3XUag1kHqoHUAAKkjmG6ed1zo1NFhPvjM3WQ2vymplU1JQepQNnVIu2FJ0c+sEhwpUgepgx92lPLSIXXQOgBA7dRhcwxrqeOVz4ROHabt6xd9koo/OL/CFwwFSwetY0LWKZ7in1tFP1K6vnBK+12ROpRrHV8K99/kX2haBwCInzqcw+FgtvnEgQqRHzyMlWcP59IJr4/5FSgdOkgdMzwIrDGn+5/QU+r4UvjvitShYOsow4tnSR20DgBQt3VMpQ5PLNu8ZLXIqaPHfPyjmkwgP79iY34FCpcOfSzzRfkDRFqKleAEE6Z06P1rkzgBkDqE+mEHqYPWAQCkjlj2TtX5CoHfwGLa/sWJsWg84nE57EPMr0Dh0FHGVb6ujgipo8CtQ2ep40vRvytSBz/s0Pvh559pWgcAyJI6drWYBX7mMFaeW5xMj3p9bqd1yNJP6oCqnWOiLBMsujw2pI6Ctg6dlQ59f3GkDgVSR1l2Ci3pG6b4l5rWAQBip46+qdQRuPPGuwKnjh7z8TPzM4EHNyUldUDBylGWn3Xo9jCV5wsR/GQr4mHS74cry3fDoRD+Nlye/zqpg9YBAJhW6rjZN2CxOd2eSODOq/vrBJ5f6T71xlg0EfGwKSlPpChp6tD1l1/qU0yK60ecU4W1G4dChDtM4f/DpA5aBwBguqnDrqWO5OErdeLu1WGqvPzdZDYY0uZX2JSUh1Fahw4fucvz9ZfwFJN8DazHA8TibQ6Hgn9bCnFi6/4/S+qgdQCAyqmj3zJkd/sigeS23dXiruwqNs0bTz00v8KXy5MoqUO/z/mlOwNKdYbJvgbW5xFi8cahKPMdRu+NhdRB6wAAUkckntn2Xre4K7vu3XfHogkv8ys8h6J0v2+WZSkic+go2BpYp8eI1RuHosy3mLL906bnjANaBwDoLHUs3ihu6jA1nLytza/43U4b8ys8hKI0P+uQZikideko0JSHXo8R67fCfs/8OyNZ6yB10DoAgNThjWfunusVdl1n3lc1norHwi6HfYj5FZ5BUZLUIc5pUOwTTIE1sG5/+MICjkNR7jtM+f5xI3XQOgAAT00dIz5vPLX1dKeoy7qO1o1NuXTC62N+hUdQlGqCRaTzoLjnlwprYP3+8IUV3BwOBf+2FOQ0L+O/bqQOWgcA4Gmpw+9NpJout4q6rDMeXNt4f34lXzpIHTyB0jrkSx1F+2MnJF8PyJw6aB20DpVbRzHvbZwPtA4AkCB1WCdTx1vtoq7qqp9fWZOKRzzMr/AEipL9rEOmtYjsqWPOa2Adlw4W+ByK8t9gyvnPG6mD1gEAeGrqaNxyQdBFnWnvij130qNe37DTOmTpJ3Xw/Al5U0dR1iLyLwfm+Ll0nTpY4HMoBG8dRYwdpA5aBwCQOkKJaM3J64Iu6ioOrf1RJhAM+0fszK/w/IkZP6QK9xisq9Yh7fVTyMtP1x9O8fsk/7gU//5SxthB6qB1AIDSqWNg0OrIp461lWKu6Xq273+lJpqfX2FTUh4/oUDqKPxaRP7VgMypgwU+h4LWQeqgdQAAHp06XKHRdM07DWKu6QwNK36Z0+ZX3E7roKW/j9TB4ydK0DrkWozIvxqYy0fTeelggV+wpoVZn/Dl/ieuCP+rnAi0DgCQJXVEmxfVi7mkq9u0/EeZQCzsuj+/whfL4ycEeLLXU+tQYDUwh8+m+9TBAp9DIUHrKErsIHXQOgCA1DEabd55TcgVnan1/XnN0UTEM8z8Co+fUCZ1FPqPVmA1MPsPp/vSwQKfQyFF6yhC7CB10DoAQPnUEQ6mb724Q8gVXUX96cPJ7GiI+RWePjHrp1RahwqrgVl/OgFSBwt8DgWtY4LUQesAADwydYytXCDigq6junZ5I/MrPH1CvdShi9ahwhJYhNLBdh0cCjlaR6FjB6mD1gEApI5geqzquIgLOkP7ulfGmF/h6RNze0oV9Dm4gH+2CquBWX48IVIHC3wOhSSto7Cxg9RB6wAAtVOHzTmspY5XNwk5v3LtB9uS2WDI73bamF/h6ROzfUqldaiwGpjd5xOidAh5c9BZ04Je7okFPKtIHbQOACB1BLO5wwcEfFLsqa4905xifoWnT6iZOsreOqS/fkT5UYeQNwedNS3M+XzSx7lM6qB1AAC01jGVOjyxbO7wahHnV7pWVY1FE17mV3j8xNyeUmkdSiwHSp46uDmU5eCwrhW8dRTssqN00DoAgNQRy+a+f7VHuAfFjoprHzcyv8LTJwrwmCrqo3CZW4f0F9CXOl3My3B3EOGq4F+bch3GwpxapA5aBwCQOmLZ3J4Wk4jzK23jqXgs7HLYh5hf4ekTc3hKFfZZuGB/OKlDpMU8qYPWIXfqKMwPO0gdtA4AUDh19E2ljkByz7sG8eZX2nfvyaUTXh/zKzx+Yq5PqcI+C5e1dXD96OnokDrEv5xpHQWNHaQOWgcAqJs6bvYNWGxOt5Y6tu03Cje/Yrz2ZvP9+ZV86SB18PiJ2T6l0jpoHWKXDtFuDjo7FPzbUpDTST8nNKmD1gEApA4tdUQCycWrKoSbX6k7v3I8FY94mF/h+RPlSB2ytQ41FgQyp44v5b9MaR0qpY45xw5SB60DAFROHf0Wm93t01LHbrNwqaP9haZcetTrG3Zahyz9pA6ePzGnh1Rxn4ZpHXq8gLg7lPcAsbqldYh2+YLWAQAFTh1D+dSRufueuUOw9Zxhx9vjmUAw7B+xM7/C8yfm/pBK6yB1kDoUTh0sb3WYOsp1TvPt0zoAQJrUEc/c3Vgn2nqu7t3XxqL5+RU2JeUBFIV4RlWpdSi8PJR6qUTqoHWU+VyS46Tm66d1AIAsqcMbz2w9V90j2PzKhWfmJ7X5FbfTOmjp7yN18AgKZVNHof50NZYEUq+USB0yXM9CXydSnNV8/bQOAJAjdYxoqaNpRbdgAywVh+aNZwKxsOv+/ArfKM+gmNsjKq2D1iH8QonUQeuQLnV8KeHZCVoHAJQkdfi98VTTsl7BUkf3qtduRRMRzzDzKzyEolCPqLQOWofwCyVaB62jvOeRDKc13z+tAwCkSR2JVNPHrWKlDkPDs1uT2WDI73bamF/hKRQFekKldaixKJB6nUTqoHWU9SyS4bzmBKB1AIAUqcOaTx2Nz7aLtVeHefXOIynmV3gORWEfUEV+JC7M387POoRfKJE6FDubdXcOSXBmcwrQOgBAptSxZa9QqaOn9b1dzdGEl/kVHkVR0OdTWgetQ/i1EqmD1lHWE0iCM5uTgNYBAHKkDoc/lIgeWVgp1ACL8caftjG/wtMoCv94qtQIy4RkR0Bf1w83Bx0cHxa5ZTh3JDi1ecKgdQCADKljUEsdo9Ga5Q0i/aqjo3p925FUPBZ2OexDzK/wSIoCPp0q1ToUXh1KvV4idQhxNnMr1u1B4wGD1gEAEqSOgUGrw6WljrX1IqUOw96zVZ+mE14f8yu0DhT64ZTWQesQfsVE6qB1SPvVUjpoHQCAmaSOdM07NwRKHR0Vx998KXNvfiVfOkgdpA5CB6mD7Tp0eAFxdxAtddA6lG8dPF7QOgBAotQRrXn5oEmcp4ie3kttNal4xMP8Cq0DhX8ypXWosTaQbU1P6qB1qPLdkjpoHQCAaaaOcDBb03ZRnNTRYWh4YVcuPer1DTutQ5Z+Ugetg9BB6yhz6+D60dnRYTksxtnMLVmPx42HC1oHAEiUOtI1bccFSh11m042ZQLBsH/EzvwKrYPOodjaqCR/Oq1D+LUTy2Ehzmbuyno8cDxb0DoAQKLUka3Z+Zk4qcPUun/eWDQ/v8KmpLQOOgetg9YhxPXDzUGgn07wNen/yyV10DoAANNJHemaeQcMwjxDVBw7vS2ZHfX63E7roKW/j9RB6iB10DpoHfq/gLg7lOto0Dqk/HJJHbQOAMA0UkfzvFphUkdPde3a5lQgFnYxvwJGWGgdtA6Brh9uDqKkDlqHEF8uqYPWAQB4euo4UWvoEOQRwtC1aslYNOH1DDO/AlpHsZ5KBX48LtSfTutQcIFP9qF1CPXlkjpoHQCAx6cOm3M4HMw2f75PlF91dFTs+LgpmQ2G/G6njfkV0DqK9FyqVOso7v8O10+5DhKrYTFOZu7JOjt4PFfQOgBAqtSx8rxRkCcIU/e+tvFU/MH5Fb5LWgexQ7G1Ea1D5OuHm0MZzhW+Jn6yQ+qgdQCAeqnDE8veWdkiSOroMOzdsCeXTnh9zK+A1lHUZ1NaB61D+KUgq2FaBx2L1EHrAAC1U0eVKKmjx7xgS3MyMDW/MsD8CkgdRXs6VWmEhdYxk88o0GqK1TCtg45F6qB1AIB6rePB1HFJkNRh6m75fDwaj3hcDvsQ8yugdRTz+VSl1lHsaCLV9fOlOLGD1bAY5zL3Yj0dQB4qaB0AIFXq2LWmQpD5levnmnLpUa/P7bQOWfpJHaB1FPEJVdhn5MIdO1rHYz6iKCsqVsO0DhW+3IIeQZ4paB0AIFHqCPzTG/sFSR3m42+PZwKxsP/+pqSkDtA6ivaMSuugdTz2IwqypmI1LMblzH1YP4eQRwpaBwDIlDruHL5S0SHC80PP9v3fH4smIh42JQWtoxRPqQq1juJXE1pHWY4Vq2EhLmfuwro5hjxQ0DoAQKrU8U+HV5mFeH4wVD4zP5kNhrT5lUELm5KC1lHsB1VRH5QL+HersFiY5ScUY2HFapjWoUTpECc/gtYBAMVPHX0DFpvT7YkE/mnPbjFSR8WmE+OpQCzsuj+/wvcIUgetg9ZRrjWwEEsrFntCXM3cgXVyFHmeoHUAgASp4+YDqeM9MVJH94amsWjCy/wKaB0le1YV9FG5kH+2AsuF2X9AAdaGrPZoHaqUjkIcRR4naB0AIEvqsLt9kcA/bVtaJ8IDhKlh7W1tfsXvdtqYX0FxHpMlSTQsFMvdOiZkv34Kew7TOnT/PdM6BDl3SB20DgDAzZt9/ZahydSxeKMQqcO8etd4Kh4Luxz2IeZXQOso0ecQ82F5gtZRsjWw7q881ntCtA5Khy4OJA8TtA4AkCl1xDMvnasW4AGip3Pj4lw64fUxv4IiPicL22iK90mUedwv9JekzhpY79ce6z1ahzqlY45HkmcJWgcAyJU67q4QIXUYbyxvuj+/ki8dpA4U4TFZ3L+8aB9FyOflCVpHKdfAOr/4WPDROhQqHXM6kjxL0DoAQKLU4Y1n7p6u7tD9E0RH3foXa1LxiIf5FdA6SvxZVJlYL/yXJPf1U4SzWKcfTu37JK1DwJOG1EHrAABSRz51bF3Wrf9HCFPX2apP8/MrTusQm5JCqtbxpYytQ8Q3ERThO1JoDazny48lH61DqdKhwh2L1gEAeErqGNFSR9PH2/X/DFGxYMvi/PzKiJ35FUjXOvQeO2gds/+KFFoD6/j6Y803h0Mhw41QtdAh6G0btA4AKGTq8HvjqaZne3X/ENFT3bJoan6FTUlB6yj5pxHv4b/wfzCt4+kfTb8XIGs+IQ4FoaPcR5PnCFoHAMiUOhKpxj916v4xwrD3vapcepT5FZTiOVnsUFOczyPc8/+EflrHhLzXT7FOY1oHrYPOwVkPWgcAzD11vNkqwPzKW1szgQfnV/gOUbzHZMH//KJ8INEWAUX5c2WPHQX5YHq9Bln10TpUKx0MbtE6AIDUsbBV729gMXWff/kW8yugdZTxE6lxLIv3DUl6/RTvNGbVp+YCmJ91cNaD1gEABUgd1snUsbxd788Rxobdu5hfgfytgx92lPtAFvMLUmcNrM+rkFUfrUO92MFZT+sAAKVTR7RmbZfOHyJ66moXHskEgmHevwLZW4euY4dAB3NCj61jQsrrp5inMas+3XzPUtwDVYwdnPS0DgBQN3WEEtGad/bq/BHC0HXlxFg0wfwKaB3l/UziHM4i/qETUteOgn0iPV6HrPqEOBQTE8QOznrQOgBgrqnDoaWO5pev6/v5ocN88PLWZDYY8rmd1kHmV1CS52QJak0RPpUoB7Sof6e8g/2FXRjp8Epk1UfrUC528GMmWgcAKJk6Bq0OV2g02tym89Rh2t6y6JNUPBZ2Mb+C0j0my9k6Jsr4p4lxAEvyBSmyBtbfpciqT4gF8ASxg9YBWgcAzCV1DNxLHTsr9f3sYGw4uyeXTnh9w8yvQI3WIekPO0p1TIv/J0o82l/YhZHeLkZWfbQO9WIHZz2tAwAUTh3zGnT94NBTd+BkTSYQDPndThvzK1Cjdeg4duj9qJbk8Mg83F/YD6Kzq5FV3xwOhRz3PwVjByc9rQMAlE0dt16s1/Vjg6Fr3cqxaFzblNQ+NMiPOkDrKPMH0/WBLdkfx8Jouh9CXweK1kHrUC92cNLTOgBA0dSRvnXimK5/1GE+eLnp3qakzK+glI/JkhSbgn80/R7cUv5lEi+OCv3n6+ogseoT4lCU+xqidYDWAQDCp45wMH1r5Q49pw5T7/q2cTYlRVkigSyfQ4c/7Cj8AS79oZmQRAkWRno6Yfi9gKStQ1d3X/H/SeQ5gtYBAFKkjiUHdfxg18GmpKB1SPrDDr2Flxn/MbKWjmIsjPRzSVI6xFgAl/9vkyl20DpoHQCgZuoY23VRz/MrdZtONrMpKVRtHbqNHWX/s/RxXCRNHUVZGOnmmiR10DpKcqbQOkDrAICyp45Xj+v4yc7QtX8Jm5JC4dahYuwQaD0p68ctymHTy0VJ6tBRTtD3HydR7CB10DoAQMnUcfiQjn/UYd5xufGrTUn7SR2gdehl7UTqkOMwlHJhpJOrktQhxAJY0AOk11xA66B1AIBSqcOWTx25PZv0+2Bn2n6eTUlR1uWMTNmGH3YU45BI+nGLdNz0segnddA6aB20DloHAEidOpzD4WA291qtbp/rOoyVZ7exKSnKupqR6sPww45iHBA5P26xDpwuLkxSh6StQ4d3X5H/SeQ5gtYBACKnDo+WOlbr90cddZ+dnM+mpKB1MMVC69B/6pgQ58okdYixANbJ3yZJ7KB10DoAQLHUEcvmXtun2+c6Q/v+KjYlBa1Dx7GD1CH6YSjHwojzVke3IlpH8U8XWgdoHQBQwtbxQOrY1tKh08e6noodH9ewKSloHcVfnem1wYizoKR1zOjQlf3MpXXoLSfo+49TNZjzGEHrAACxU8fiL3r0Or+yfd88NiUFraMkqzNaxxwPhYQft6iHrtxnLqlDiAWwfm7XUvwrQuugdQCAWqkjufiSSZ8PddqmpHfZlBQ6iAPStRtiBz8UmM7HLe6xo02Ju4qndYj5zwgjLLQOAFAqdQSSd0/pNHX01B1aO86mpNBDGpDvExX2Y5I6BD4OZVwDM3Mk7CJez7c83d59aR2gdQBAqVPHFYM+H+oM7ftfHYsm2JQUtA7dtw6pYoduvx4RUsdEmY4X3xWtowR/m/j/kNA6aB0AoEDq6NNSh9sTCSS3rjLocl/SnopjbEoKWgexQ7D1pFwft/iHr4xfG6lDlzlB6tYxIeC/HzxG0DoAQLDUcbNvwHIvdew26vKZztS970U2JQWtQ5jYQeoQ8zgU/NOU7YApnqVoHSX542gdoHUAgAipw+72RQLJpvcq9PhI12G8fraJTUmhmy4gZb8hdhTlq5bq4wr18wq1s5S0C2Cd3a9F/7eE1kHrAACFUsdZXaaOnrrjZ9iUFDrKAnJ+KqZYivJNy/RxS3IAy/XlkTokbR36vvsK948HzxG0DgAQK3X0W4byqSPTtNGsx0c6Q+v+w2PROJuSgtZB7BBwOaly6pgo6wEjdUi4ANbb3yb2vya0DloHACiSOuKZpnN6TB0dxoa35rMpKWgd5VqlqRs7xPh+Svh5S3UMy/INkjpoHerFDloHrQMAlEkdK+p0+AaWnrraE+OpAJuSgtZB7BB1OSnL5y3ZQSzHd0jq0G9OoHUo+VWD1gEABUod3nimcZkeU4ep9T02JQWtg9gh+GpSjg9csqNYjq+R1CHEAliHt2uR/z2hddA6AECR1HG5Wn+po8N47MztTJZNSaGvFae8Eafgn5fUIcqB0NfCqAxfJKmD1qFe7KB1yO//F6C9+/+N+k7wO26EgIhYAQdwIHGWfDMJIhsnS5Ky+QLbuYQmXH8JQSFSiFcX5U6rJeSLzBzq5of8dHKlS7TaVm2VK1J3V9VZla6o5brtLSDb+Ct2GX8Z2zMef4PkKqVIUftD1aorXbO98dcZAsTY8+Xz+czj8RcwM2D8eer9fo3WAVR66rjc1zuarv3tiQCmjuZHXp5JGyUlaM+bEX5pYkexPuEovOISvpGl/zCljoi2jjD89A3R/xt+j9A6AMKVOvqzqeOjZ+KB+4Uuvmf72qnxyd6+S0ZJ0TrEjpA/TFZi6gjG9SepI0IPwIH8s2kdaB0AgU0dY+nar08HL3U0bnhrJpMYGeo3SorWUe5Htcg+5Jfy4w37Sw5tJIvU39IKfwAO5p8trP+naB1aB0AFpI7qD/cELnXENn5WN50cG+4xSorWUf5ntYg+45f4ww35aw5vI4vQX9KKzQnRbh3fhOV/Db9GaB0A4UkdbXOp444nApc6mj7/sDY1MTnY193ZZpQUrSPcscMFgUC/EUF9MCrpS/QXNBQPwEH9cR3S/1W0Dq0DIPqpY8fxwKWOqs2vV6cTI0Ndi/dXfGYE5kEz4iWnkmNH6D+lSLWOksYOf0O1joqLHa6waB0A0U4dg2PJ6h37g5Y64qfvefHL5Fiv+ysE8jEz6q8v8M+tYX6ODOAbEeBn4BK+Sqkjoq0jND99tQ60DoBCpo6O2dTx7udBSx2NvzhyLTUxMNjf3dnu/gpaRzRax+89RgbznQj0g1HJXqfUEY4H4OD+2cL4H4vWoXUARDp1TCar71wXsNQRq9n9fHV6dGSoq+Niq/sraB2RiR2/r/SHyEC+EwF/MCrVK5U6QpATgv2HC+H/LFKH1gEQ0dRxvq2jK5s6jm4LWOpoOv7+c1PjY7197q+gdUQtdvy+op8hA/lOFPePHKw3KuytwwNwxFvHN8H/KeTXCK0DIASp49xC6rhra1OwfpmrOnzkWiYxf39ltnRIHQTs8bICak4xX7rQEaQ3IgQPRqV5tVJHKB6AI343TetA6wAoYOp4/LVgpY74iTf21adHh3vcXyG4z5aV8BqL+tKVjsC8EaF4MCrJ65U6Ito6wvUPOvA/gPweoXUAhCV1jNfv+1WgUkesYd29z02NT/b2XepsazVKitYR0djx+4p7fAzoOxGSB6MSvGKpIxwPwFFvHd8E/aeP3yO0DoBQpI6hgfH6NQcbApU6ml86UpdJDAz1X77o/gpaRyCfnSPykB+gzzE070AZ3+Liv2ipQ+uovNihdWgdABFOHc9vCFTqaDr26zXTydHhHqOkaB0VEDtC9JQf0dwRogejor9sqSMcOSGCt0JC1Tr8GqF1AIQldbx1KlCpo/G1N19MTUz29nV3tp13fwWtI6APzhF4zK/IRrX6tyEyXSyErcMDcPl7W6n+nvqo0ToAVp86vnolSKkjXrN5R30mMTLUtXh/xedFMJ8mKyXplOz1V3zmKM8Dd8gejIr80qUOraPyYofWoXUARDR1fHnfY40B+k2u4fhnW6aTY+6vEIIHyYp5oSV9Ayq+c5T6sTt0D0bFffFSR0RbRxj/+SpHaB0AK0wd7Z2XhgYmvtzyUoBSR6zq2VfrUhMDg/3dne3ur6B1VGLsKOofvKL/wpYtdXwT3PdD6gjnA3BltI5vfNRoHQCrSR3rNwcodcQ3PnB0Jj3q/grw+1J86QYAaB0AUUsdPSMTXz73QFWA7q/s33loanyst8/9FaAwycPbBwBaB1AZrWMpdfztTz8ITuqIVz37Uf2U+yvAzekbAHDbtA6gEuSmjrcfCU7qaDpx4K2Z9OhwT1fHxVb3VwAAoCC0DqAC5KSO1KHdVbGgjJI27L+nbmp8srfvUmdb64WzUgcAABSC1gFE31LqSKRe/KQ5MN+/0nzwoZlMYmCof3GUVOoAAIDV0zqAyMtLHW8EJnXET+w+NJ2cvb9ilBQAAApI6wCiruXMmWzq6O4ZTqSefrg5MPdXTr76vVT2/kp3Z5tRUgAAKCCtA4i4lpYz5y7Mp45NO2uCkjqqTq2ZySRGhrrcXwEAgALTOoBom0sdF7v7sqnjhcCkjo2f1U0nx4Z7Lrm/AgAAhaZ1AJGWkzoym3ZtDMpXze7fcTU1MTDY393Z7v4KAAAUmNYBRFlLy5mzF1rnUse1ewKSOmKNm1+eSY/m3l/xSQEAQOFoHUCELaWO0UzdeyeC8v0rT66dGh/r7XN/BQAAikLrAKIrL3U8GZDU0fDaXdW591eMkgIAQIFpHUBkLaaO3tFM3b3PBOP+SvP3D9WnR4d7ujoutrq/AgAAxaB1AFGVlzrePB2MUdInPt00NT7Z23eps631wlmpAwAAikDrACJqPnVc7usdTdduPxaI1NF4+K66TGJgqH9xlFTqAACAgtM6gGhaSB392dTx2z2BGCXd+NmW+uTs/RWjpAAAUDxaBxBJS6ljLF370ROBGCVd99GLqez9le7OtuwoqdQBAADFoXUAUZSbOqq/Ph6E1NH8wNHaTGJkqGvx/oqPCQAAikLrACJoLnW0zaWOD08GYZT02K6vriTHhnsuub8CAABFpnUA0ZOTOpLVR/YHYZT02bufTk0MDPZ3d7a7vwIAAMWldQCRs5g6BseS1Ts+D8Aoac0jd1an3V8BAIDS0DqAqJlPHR39g5PJ6o/XBeD+ysld66eSY7197q8AAEApaB1AxMymjvNtHV2Dk8n6O7eVvXTEqk7dXef+CgAAlI7WAURLNnWcW0gdR7eW//7Kid13zaRHh3u6Oi62ur8CAAAloHUAkZKXOh5/reypo2HdLw9NjU/29l3qdH8FAABKQ+sAoiQvdex7tuyHOpoPP1WdSQwM9i+OkkodAABQbFoHECGLqWNoYPzKmoNlHyU9vfut6eTs/RWHOgAAoGS0DiA68lLH86fKPUrauO7RvbP3V7o724ySAgBAyWgdQGTkpY7XD5f7/krN4YdmMomRoS73VwAAoKS0DiAq8lLHfY+V+/7KsU/enk6ODfdccn8FAABKS+sAIiI3dXy5/qWy31/ZvjY1MTDo/goAAJSc1gFEw1zqaO+8NDQw8eX6zeW+v/LKmpl03v0VnxAAAJSK1gFEQl7qePuBWJm/f2Xn3unkWK/7KwAAUA5aBxAJC6mjZ2Tiy0M/j5X5/sqRq9n7K/3dne3urwAAQMlpHUAU5KSOqZd3lzd1NG8+NJMeHenp6rjY6v4KAACUntYBREBu6njnk7KmjviJJ9dOjU/29rm/AgAAZaJ1AOGXkzpS7zwYL+tUx9Z9M5lE9v7Kwiip1AEAACWmdQCht5Q6EqlrD5c1dVR98kfTydHhni6HOgAAoGy0DiDsclPH3p3lTB3xPU9dnb2/0t3ZZpQUAADKResAQq7lzJls6uieTR27ypk6Gg/ftzaTGBnquuz+CgAAlJHWAYRbS8uZcxeyqWM4kar7ZVMZD3XU7Np0JTk23GOUFAAAykvrAEJtLnVcnE0dtY+WMXU0rTtSl5rIjpJ2tru/AgAA5aR1AGG2kDr6sqnj/fKljljVgbeq03n3V3w4AABQJloHEGItLWfOXmidTR2Z2nvLlzrix5786VRyrNf9FQAACACtAwivpdQxmql9taFsqaPh4JFrufdXjJICAEA5aR1AaOWmjupPG8t2f6Xmk33V6dGRnq6Oi63urwAAQNlpHUBY5aWOj8qWOpr2v//c1Phkb9+lzrbWC2elDgAAKDetAwipxdTRO5qpvr+qbKOkjx2pyyQGBvsXR0mlDgAAKC+tAwin+dRxeTZ1fN1crlHS0zvXXEmODvd0GSUFAICg0DqAUFpIHf29o+nqD2tiZRolfe3Tp1PZ+yvdnW3ZUVKpAwAAAkDrAMJoKXWMpeuPlCl1xGt+/m51OjEy1OX+CgAABIjWAYRQTurI1O/YGCvTKOk966eSY709l9xfAQCAINE6gPCZSx1tc6c6HjoRK88o6Stf16UmBgb7uzvb3V8BAIAA0TqA0MlLHR8/Ey/L/ZVnHnx8Jj07Srpwf8UHAwAAwaB1AGGTkzqS9UdPlyV1NGx9/+mp7Cip+ysAABA4WgcQMoupY3AsWX/XnnhZRkk376jPJEaG+o2SAgBA8GgdQLjMp46O2dTx+BPlSB1Nx3dumU6ODRslBQCAQNI6gFBZSh2Tyfp9J8uROqo2fFqbHSXt6+5sM0oKAADBo3UAYTKbOs63dXQNTia/WLO/qQz3V048kh0lHRnqcn8FAACCSesAQiQvdbz1eRlSR8O2e56eGh8zSgoAAMGldQDhkU0d5+ZTx5W31jWVYZT0L+9Ym0kMDPZ3d7a7vwIAAMGkdQChkZ86tpU+dTQ98caW6eTocE9Xx8XW8w51AABAMGkdQFjkpY77Sp86YlW/erU2NTHZmx0lbb1wVuoAAIBg0jqAkMhJHeNX7tvaVPpR0gcen0knjJICAEDQaR1AOCymjqGB8StbSp86Gtbt2pQdJe0xSgoAAAGndQChkJc61r/WUOpDHc2HjZICAEBIaB1AGOSnjl+VOnU07fn+eqOkAAAQEloHEAJ5qeOnJU8dVVvfzBkllToAACDYtA4g+PJSx9vPljh1xDduNkoKAAAhonUAgZeXOg4dLG3qiDWcfOHaVNIoKQAAhIbWAQRdbur48tCGhlhpR0kP3nE1M2GUFAAAwkPrAAIuL3W8fKqxtKOkp3c/tzBK2m6UFAAAQkHrAIItN3VMvXO4pKkj1rjuze9lxid7+y4ZJQUAgNDQOoBAm0sd7dnUMTH1ziuNpR0lfWXNTCYxMtRvlBQAAEJE6wCCbD51dF6aTR1/WdLU0bBn597p5NiwUVIAAAgXrQMIsLzUsemxUqaOeNVrR66mjJICAED4aB1AcC2mjp5s6nipsYTfwBI/8cGhmXR2lPSyUVIAAAgXrQMIrKXUMTIxdW1zYylHSU++uXZqdpTU/RUAAAgbrQMIqutSR1UJD3U0H37eKCkAAISV1gEEVF7q2PtACVNH0zM764ySAgBAaGkdQDDlp44DVSW8v7Jtx8IoaZtRUgAACB+tAwimnNSR2vtB6VJHvObAyzPp0ZGhLvdXAAAgnLQOIJCWUkcitXd36VJHw57tV42SAgBAqGkdQBDlpo663c0lu79SdfCrmUxiYHGUVOoAAIDw0TqAAMpLHb8rWeqIb9z5w9lR0i6HOgAAILy0DiB4clPHjz8pWepoWPfx7Chpn1FSAAAIM60DCJzc1FH7YHPJ7q8c2GSUFAAAIkDrAIJmPnV09wwnUrU/KlXqiD/z6dWp8TGjpAAAEHpaBxAwLWfO5KSOmlLdX3l2S3aUdLC/u7Pd/RUAAAg1rQMIlmzquLCQOj4rVepofuF708nRuVHS8w51AABAqGkdQKDkpY4XSpQ6mvYfzR0llToAACDUtA4gSFpasqnjYndfKVNH44E/mkknjJICAEBEaB1AgOSkjkztrppYSUZJT9y91igpAABEiNYBBEdu6qj+5cbSjJIevG+tUVIAAIgSrQMIjNnU0ZpNHaOZ2vdKkjpizS/UXZkbJb1olBQAAKJB6wCCoqXlzNmF1FH9aElSR9PnH9emJiZ7s6OkrUZJAQAgGrQOICDyUseTG0ux1dH4wdv1RkkBACBqtA4gGPJSx/snSjFKenr7tewoaY9RUgAAiBStAwiExdTRO5qpfrMUqaNhw5pao6QAABBBWgcQBCVPHbGaFw4ZJQUAgEjSOoAAyEsd258pwSjpuiPXUuNGSQEAIIq0DqD8clJHuvrT00WfJY01fvB6tVFSAACIKK0DKLv51HE5mzrq7y5+6ogfe/PQVNIoKQAARJTWAZTbQuro7x3N1H9U/NTRcOpoXWrCKCkAAESV1gGU2VLqGEvX37+n2KkjXrNzS316bpS03SgpAABEkNYBlFdO6sjUP7UnXvRR0q+fnh0lvdTp/goAAEST1gGUVd6pjg+LnTpiVR/sq80kRob6jZICAEBkaR1AOeWljjueKHLqiO95f/10cmzYKCkAAESZ1gGUUV7qOFLs1NFwasfe+VHSNqOkAAAQWVoHUD5zqaNtLnXsOF7c1BHb+PCa+vToyFDXZaOkAAAQZVoHUDY5qSP5xUNFTh1N2z79k6nZUVL3VwAAINq0DqBcFlPH4Fjyi3dPxos7SnrgztpMYmBxlFTqAACAyNI6gDLJSx0f748Xd5T0ni1GSQEAoEJoHUB55KWOPy1u6mg49fW17Chpn1FSAACoAFoHUBbzqaOjf3Ay+cXRz4uZOuIbH3z8i/xRUqkDAAAiTOsAyiEvddy1rpipo2ndvYemxseMkgIAQKXQOoAyWEgdXdnU8XgxU0esavOO6kxiYLC/u7Pd/RUAAKgEWgdQerOp4/xC6tjWVMxR0hden06ODvd0dVxsPe9QBwAAVAKtAyi53NRxZV8RU0esYcPdexdGSVsvnJU6AACgEmgdQKllU8e5hdSxZmtTEUdJf3d0Jp0wSgoAAJVF6wBKrGSpo2ndo0ZJAQCgAmkdQGnlpY7nX2sq3ijpS3cYJQUAgEqkdQAltZQ6BsavvP5aQ/FGSX9klBQAACqT1gGU0mLqGBoYv/LVrxqKNkr6i3v3psYne42SAgBA5dE6gBLKSx33PVus1BGveeDjaaOkAABQobQOoHTyUseWg8VKHU0ndx6aTo719hglBQCASqR1ACVTmtQRq3r27u9lJoySAgBApdI6gFLJSx3rTxUpdcSfObBmJj2ae3/FWw8AABVF6wBKJDd1fPncqYZYUVJHw+f37J3KjpK6vwIAAJVK6wBKIy91/PRwY3HurzRv2DGTSWTvrxglBQCASqV1ACWRlzoOvVKc1BE/tvvQdHJ0uKfLoQ4AAKhcWgdQCjmpY6JYqSPWuO7Ntans/ZXuzjajpAAAULG0DqAE5lJHe8elbOp4+bGipI54zStrZtKJ3FFSqQMAACqR1gEU33zq6JxNHS++VJTU0XT6s7rp5Fhvj1FSAACocFoHUHSLqaNnYGLqnZeqinN/ZcfV1ER2lLSz3f0VAACoaFoHUGxLqWNkYmrT5qKkjprNh2bSo7n3V7zvAABQqbQOoMhKkDqaTr+/dio7Sur+CgAAoHUARZafOh4oRupofO35mUxiYLDfKCkAAKB1AEWWlzquHaiKFf77V5of/PF0cnS4p8uhDgAA4PdaB1BcuakjtfdAcxG+anbPkaupicnevu7ONqOkAACA1gEU11LqSKT2PlKE1NH0yssz6UTuKKnUAQAAFU7rAIooL3XsLnzqiDW//w+mk2O9PUZJAQCABVoHUDx5qeN3hU8d8XVvXU1NDAz2d3e2u78CAADM0TqAoslNHXWfFDx1xBq+v3cmPTrS09VxsfW8Qx0AAMAcrQMolvzUUVPwQx2nv66bGp/s7bvU6f4KAACwROsAimQxdQwnUnVv1BR+lHRLdSYxMNRvlBQAAMijdQDFMZ86umdTx48KnTpiNY9uupIcGzZKCgAAXE/rAIqi5cyZcxfmU0ftw4VOHfFtj9dmR0n7ujvbjJICAAB5tA6gGPJSx2cbC5w6Gt94uT49OjLUtXh/xTsOAAAs0DqAImhpyaaOi9192dSxs8CpI77njr1zo6TurwAAAN+mdQCFl5M6MrUvFDh1NG2eHyXt7mx3fwUAAPgWrQMouNzU8cNdhU0dsY33zo2SdnW0tbq/AgAAfJvWARTabOpozaaO0cwPd50o7P2VX+ybHSXtnxsllToAAIBv0TqAAmtpOXN2IXVU31PQ1BGr2nn9KKnUAQAAXEfrAAorL3W8V9DUET+5wygpAADwXbQOoKDyUsejzxQydTQcWF+dSYwM9c8f6pA6AACAG9E6gEJaTB29o5nqJwuZOuInPn16KjtK6lAHAABwS1oHUEB5qeNvThcydWxYkztK6lAHAABwM1oHUDh5qePNYwUcJW3e9fKV5Gj2m2YXRkm92wAAwI1pHUDB5KSOdEFTR3zdx3tTs6Okne6vAAAA30HrAAplPnVcnk0d2/cUcJR09/rqdMI3zQIAAMuidQAFspA6+rOp47eFSx2xYx89PTU+1muUFAAAWBatAyiMpdQxlq6++4mCpY6m//Z8bSYxO0rabpQUAAD4bloHUBA5qSNT/1HBUkes5tFDC6OkrUZJAQCAZdA6gELIPdVRf//xgo2Sbv3TutTEZG9ft1FSAABgmbQOoADyUsfXx2MFSh1VD66vN0oKAADcHq0DWL281PHhyQKljvgTT82OkvYZJQUAAG6D1gGs2lzqaJtLHb/ZX6DU0bD5LaOkAADA7dM6gNXKSR3J+js+L0zqiG/8m0NXkmNGSQEAgNuldQCrlJc6dnweL0zqePauutTEwODcKOlZqQMAAFg2rQNYncXUMZhNHesKcqojVrVzfX161CgpAACwAloHsCq5qeOLh9YV5FRHfP8dm6bGJ42SAgAAK6F1AKsxnzo6+gcnk1+8W5jU0XDg9epMYmSo/7JRUgAA4PZpHcAq5KWOO7cVInXEn3nz0HR2lDR7qMMoKQAAcNu0DmDlFlJHVzZ1HC1I6mg6NTdK2t/d2eZQBwAAsAJaB7Bis6nj/HzquGtrAVJHrHlXdpR0uMcoKQAAsFJaB7BSuanjyuOvFSB1xNft+IOUUVIAAGBVtA5ghbKp49xS6mhafepo3P16dXp2lHTuUIfUAQAArIDWAaxMXurY94vVp474nk8PTSXHensc6gAAAFZD6wBWJC91rPnV6lNH02P7ajNzo6S+aRYAAFgFrQNYiaXUMTB+Zc2zq04dsZr31l9JZkdJOxZGSb3JAADAimgdwAospo6hgfErbx1cdeqIb33oWmoiO0ra6f4KAACwOloHcPvyUsfrBxtWe6ij6sGvZkdJfdMsAACweloHcNvyUsdXG1abOuLHP3pxatwoKQAAUBhaB3C78lLHfadWmzoaNu+rzSSMkgIAAAWidQC3KS91bDm8ytQRO/Hk4ihpq1FSAABg9bQO4Pbkpo4v1682dcSf/XhvamJgsK87O0p6VuoAAABWTesAbkt+6nhldakj1vzZV/XpUaOkAABAAWkdwO3ITx2PNa7uUMfnXz89NZ79plmjpAAAQMFoHcBtyEkdE18+t7rUEWs4sKY6kxgYMkoKAAAUktYBLN9c6mjvuJRNHT99aVWpI3763uemk2PZUdI2o6QAAEDhaB3Ass2njs7Z1PH25lWljqbDH9dlR0n7uzvbzhslBQAACkfrAJYrL3Uc2twYW8X9lZoX7rtilBQAACgGrQNYpsXU0TMy8eWhB6pWc39l22+eThklBQAAikLrAJYnN3X87YurSR2xxt3ZUdKRof7soQ6jpAAAQGFpHcCy5KeOA6tIHfE9r/50KjtK6lAHAABQDFoHsBy5qWPqnQ9WkTqaHjtal1kaJXWoAwAAKDCtA1iOnNSR2vTIylNHbOMvt1xJjma/adYoKQAAUBRaB7AMS6kjkdq0u3nl91deu2PT3Chpp/srAABAcWgdwHfLTR3Xfrfi1BGr+mRNdTrhm2YBAIBi0jqA75SbOvZ+suLUET/+6aGp8bFeo6QAAEAxaR3Ad8lLHQ+uOHU0bD5am0nMjpL6plkAAKB4tA7gO8ynju6e4URq7xs1Kz3UceK9LdPzo6St5x3qAAAAikbrAG6t5cyZxdRR9+sVp46DO66lJiZ7+7qNkgIAAMWldQC3lE0dFxZSx8M1sZWNkjY/vKbeKCkAAFASWgdwKy0tc6mjbziRqt25cYWHOj6/+8XsKGmfUVIAAKD4tA7gFuZSx8Vs6sjUvrDC1NF44C6jpAAAQMloHcDN5aWOXStLHbHTT66fTo4ZJQUAAEpE6wBuqqXlzNkLrdnUMZqp/eWJFaWOpsM79qYmBgbnRknPSh0AAECxaR3AzeSljntWlDpiNTufv5IeNUoKAACUjtYB3ERu6qh+75kVjZJuu//pqfFJo6QAAEAJaR3AjeWljkdPr6R0NO5+vDqTGBnqv2yUFAAAKBmtA7ihxdTRO5qpfnJFqeOJe+dGSbOHOoySAgAApaJ1ADeSlzr+5tgKUkfDYw/VZUdJ+7s7284bJQUAAEpG6wBuICd1pKvf3LOCUdKNu16/kh4d7jFKCgAAlJjWAXzbfOq4nD3VUf/qClJH/LWvn04ZJQUAAMpB6wC+ZSF19PeOpuu3P3H7hzqav/94dXp2lHTuUIfUAQAAlI7WAVxvKXWMZep/e/z2D3WcfPXtqeRYb49DHQAAQBloHcB1clJHuv7u208dDZvfrc3MjZL6plkAAKD0tA4gX27qWPvR/tu+v/LML7+aTmZHSTsWRkm9pwAAQClpHUCevNRx/22njqaDH/5BamKyt6+70/0VAACgLLQOINdc6mibTR1fPPX57aaOmjf21WdHSX3TLAAAUDZaB5AjJ3Ukv/jNutsdJV23/dDUuFFSAACgrLQOYMli6hgcS35x5HZTR+MDH1dnEkZJAQCA8tI6gEX5qWPbbY6SHrtny8IoaatRUgAAoGy0DmDBfOro6B+cTH6xY2vs9kZJT324NzUxMGiUFAAAKDOtA5iXlzoeur3UEat5eN8X6VGjpAAAQPlpHcCc2dRxvq2jK5s63n3ttlJHfNv2F7OjpH1GSQEAgLLTOoBZuanjyp2/up3UEas68K5RUgAAICi0DiArmzrOLaSOo8/Gb+dQxxPvbZlOjhklBQAAgkHrAH5/Xeq46+DtpI6GVz6sWxglPX/hrNQBAACUmdYBXJc6Ht9wG6kjtvHhfTNGSQEAgADROoCc1DEwfuXxU7eROuJbtz89NT5plBQAAAgOrQNYTB1DA+NX9h1efuqINf/83fpMYmDIKCkAABAcWgdUvLzUseaV5aeO+PH31s+OkmYPdRglBQAAAkLrgEqXnzr+ctmpI9bwylO12VHSfqOkAABAkGgdUOHyUsfzjy0/dZx4eI1RUgAAIIC0Dqhsualj+vWXmpabOpp+YZQUAAAIJq0DKlpe6vhqc9OyR0kf+bg+kxgZ6s8e6jBKCgAABInWAZUsN3VMbVl26ojvf++5xVFShzoAAIBg0Tqggs2ljvaOS0MDE1NbDiwzdcQaH8sbJXWoAwAACBStAyrXfOronE0d6w80LDN1nH74+Zn06HCPUVIAACCQtA6oWIupoyebOn6+zNTR9Oz2P0gZJQUAAIJL64BKtZQ6Riam1u9eXuqI1Txy50x6YZT0nPsrAABA8GgdUKHyUsdzuxtiyxol/fy9t6eMkgIAAIGmdUBlyksdb/+ucVmHOqoee6o6Y5QUAAAINq0DKlJe6jj0yfJSx7HPXp9OZkdJO4ySAgAAwaV1QEXKSR2pQw8uK3U0HNxeNzdK2un+CgAAEGBaB1SipdSRSL34o8ZlbHXENj5ydHaU1DfNAgAAAad1QAXKSx2/rlrOKOm69w5NJcd6jZICAACBp3VA5clLHZ9VLWeU9KXf1KfmRknbjZICAADBpnVAxclNHU/vXEbqiO/5bMt1o6TeRQAAILC0Dqg086mju2c4kdr0QlVseaOkE5O9fd1GSQEAgBDQOqDCtJw5c+7CQurY1byMUdLddxklBQAAQkTrgMqSmzquLSN1NG177+mpcaOkAABAeGgdUFFaWrKp42J333Aitfee704dzS8dWZtJGCUFAABCROuASpKTOjJ17zV/11ZH/Phn6xdGSVuNkgIAAOGgdUAFyUsdT9Z816GOxg2f1holBQAAwkbrgMrR0nLm7IXWbOoYXUbqiJ3Yvc8oKQAAED5aB1SMvNTx/sbvHiXdlB0l7TNKCgAAhIvWAZUiN3XUvrnxO0dJdxglBQAAQknrgAqxmDp6RzO1r278zlHS54ySAgAA4aR1QGXISx3bT9w6dVRt+G11amJgcG6U9KzUAQAAhInWARUhN3VUf3rr1BE7vXvNTHrUKCkAABBOWgdUgvnUcbmvdzRdffczt0wdDVsf3Ts1PmmUFAAACCmtAyrAQuroz6aO+0/fMnXUvPTQjFFSAAAgxLQOiL6l1DGWrr7/2C1HSU9+dmg6OWaUFAAACC+tAyIvL3U8tefWo6Qffc8oKQAAEG5aB0RdXur4za1SR+zY7teNkgIAAGGndUDE5aWOO5645Sjpk7VGSQEAgNDTOiDa5lJH22zqqD9y/JajpH+aHSUdMkoKAACEm9YBkZabOr7YcfIWo6T7P3txfpS0zSgpAAAQZloHRNli6hgcS9Y/tP9Wo6Rfr82OkvZ3d7adN0oKAACEmdYBEZabOr74eP+tRkm3GCUFAAAiQuuA6JpPHR2zqePOdbcYJX3fKCkAABAZWgdE1lLqmEx+cfSmqSO28aW7ZjKJkaH+7KEOo6QAAEDYaR0QVQupoyubOu7adrPU0bR/56bZUVKHOgAAgGjQOiCiZlPH+YXUsfVmqaN5w4dXc0ZJHeoAAABCT+uAaMqmjnPzqePK46/d7Jtmj+1+biY9OtxjlBQAAIgMrQMiKTd1zOz7xU1SR+PWe3+YMkoKAABEi9YBUZSXOtY8e7NR0s37ZtILo6Tn3F8BAACiQeuACMpJHePTN0sdTftf2DuVHOs1SgoAAESL1gHRs5g6hgbGp9/acJNR0oM7rmbmRkl90ywAABAlWgdETl7qeP3UTUZJf/f2dDI7StphlBQAAIgWrQOiJi91fHX4xqOk27avnRsl7XR/BQAAiBitAyImL3Xc98oND3Vs3Pz67Cipb5oFAAAiSOuAaMlLHVseu1HqaNi/68dT40ZJAQCAiNI6IFLyUsf6l248SvruTCZhlBQAAIgqrQOiJD91bL7hKOkn71w3SuptAwAAIkXrgAiZSx3tHZeGBiam1j8Q+3bqqNp299XUxGRvX7dRUgAAIKK0DoiO+dTROZs6fvrBt1NH7MTm+4ySAgAAEad1QGTkpY63H/l26mg4eU+tUVIAACDqtA6IisXU0TMyMXVod/xbqaPm4FGjpAAAQPRpHRAR+anjd99KHU3HHry2MEraapQUAACILq0DoiEvdbz8T+LfHiX92igpAABQEbQOiIbc1PHiG9enjvjGzeuNkgIAAJVB64BIyEkdqRd/Hf/WKOmja7OjpH1GSQEAgOjTOiAKllJHIvXiw03Xj5Ju2GeUFAAAqBhaB0RAburYtLPp+lHSX++dTo4ZJQUAACqE1gHhl5c6Xmi6fpT0jqupiYHBuVHSs1IHAAAQdVoHhF5e6tjVdN0o6QOHZtKjRkkBAIDKoXVA2LWcOZNNHd09w4nUtXsacktHrOH4vWunxieNkgIAABVE64CQy6aOCwup47381FGz4XmjpAAAQKXROiDcWloWU0em7sm81NF0eueP50dJ24ySAgAAFUPrgFCbSx0Xu/uyqeP9hvxR0ocWR0nPGyUFAAAqhtYBYbaUOkYzdfc25o2SfvCOUVIAAKASaR0QYi0tZ85eaJ1LHbWv5qaOhuPbrxolBQAAKpLWAeGVkzrStZ/mpI5Y86n7ZjKJkaH+7KEOo6QAAEBF0TogtBZTR+9ouva3VTmjpM+88L3ZUVKHOgAAgAqkdUBYLaWOsfQfflSVO0p6dHaUtH9ulNShDgAAoLJoHRBSOakjWX3/UuqI1+zeO22UFAAAqFxaB4TTfOq43J9NHR8upo5YwxP3X00ZJQUAACqY1gGhlJc6ftO8NEp6+LmZ9MIo6Tn3VwAAgAqkdUAYLaaOwcnx+iOLqaPpxD1rp8aNkgIAABVN64AQWkodA+P1f9EcWxwl3TeTSRglBQAAKpvWAeEzlzraLncNDkz8l3drFkdJP6mdSo4O93R1LIySeqsAAIAKpHVA6Mynjo6uoYHEX925kDoanrhjOjORHSXtdH8FAACoZFoHhM1S6hhJ/NVfb5w/1FH1H/9kKumbZgEAALQOCJvZ1HG+raOrZ2T0r/7zxoVR0vdnUhOTvUZJAQAAtA4Il4XUcalnePLv9s2njsat/2wqmRjJjpK2GyUFAAAqnNYBoZJNHefOt3Ve6usd+18/ODF3f6X5R3+YmRgzSgoAAJCldUCYzKWO9s7uvt6B8R88MzdKevwvUsnEwGBft1FSAAAArQNCZTF19A8O/I8fnJ491NG4+V+mZw91GCUFAADI0jogPOZTx8XLXUMj//PP/9Ns6jjx79LJ0YHBPqOkAAAAc7QOCI3Z1HGh9WJHV0/v//5JNnXEGn7158nE5PBQ12WjpAAAAHO0DgiLlpYzZ85eaG3ruNQ3+H9+smd2lPSf/93E2MjcoQ6jpAAAALO0DgiLpbGOoeGf/IfYN980Hf/rxOhAb0+XUVIAAIAlWgeExFzqaL3Ycamv5ycnv/km1viP/+3o5HD2UIdRUgAAgCVaB4REtnVcON/W2d3f87OT2VHSf5QYG3GoAwAA4HpaB4TE3DBpdq3jZ/u/+abhz34yMNI71D97qMMoKQAAwBKtA8Jh4ftmOy797L/G4lX/anikd6iv67JDHQAAANfROiAc5q6wtF9s+9m6b5r+6Q8GB4f6urrnDnVIHQAAADm0DgiHhdbxf7fFGv7Fv+/p6+u6lD3UYZQUAADgOloHhMP8NOl/39r0Z3/c39XV1X25s639vPsrAAAA19M6IBzm9jr+zb/+sz/u7r7Ufbmj82L77FKH1AEAAJBP64BwyLaOs//vH/5x28XOv3exrb3VoQ4AAIAb0TogHGZbx7kL51vb29ra2udLh9QBAADwLVoHhENLy5kzZ8+du3D+fGvr+fPZ0mGUFAAA4Ea0DgiHltnYka0df+9ctnQ41AEAAHAjWgeExHzsmHPmjEMdAAAAN6Z1QEi0zMaOeS1KBwAAwE1oHRAWLXm8HwAAADemdUCI6BwAAADfSesAAAAAokTrAAAAAKJE6wAAAACiROsAAAAAokTrAAAAAKJE6wAAAACiROsAAAAAokTrAAAAAKJE6wAAAACiROsAAAAAokTrAAAAAKJE6wAAAACiROsAAAAAokTrAAAAAKJE6wAAAACiROsAAAAAokTrAAAAAKJE6wAAAACiROsAAAAAokTrAAAAAKJE6wAAAACiROsAAAAAokTrAAAAAKJE6wAAAACiROsAAAAAokTrAAAAAKJE6wAAAACiROsAAAAAokTrAAAAAKJE6wAAAACiROsAAAAAokTrAAAAAKJE6wAAAACiROsAAAAAokTrAAAAAKJE6wAAAACiROsAAAAAokTrAAAAAKJE6wAAAACiROsAAAAAokTrAAAAAKJE6wAAAACiROsAAAAAokTrAAAAAKJE6wAAAACiROsAAAAAokTrAAAAAKJE6wAAAACiROsAAAAAokTrAAAAAKJE6wAAAACiROsAAAAAokTrAAAAAKJE6wAAAACiROsAAAAAokTrAAAAAKJE6wAAAACiROsAAAAAokTrAAAAAKJE6wAAAACiROsAAAAAokTrAAAAAKLk/wPPUzuD3k9IgwAAAABJRU5ErkJggg==;" vertex="1" parent="1">
          <mxGeometry x="750" y="20" width="80" height="43.63" as="geometry" />
        </mxCell>
        <mxCell id="1gXEFUUZADcfgdOFNKRF-185" style="edgeStyle=orthogonalEdgeStyle;curved=1;rounded=0;jumpStyle=arc;orthogonalLoop=1;jettySize=auto;html=1;entryX=0.5;entryY=0;entryDx=0;entryDy=0;strokeColor=default;strokeWidth=1;align=center;verticalAlign=middle;fontFamily=Times New Roman;fontSize=11;fontColor=default;labelBackgroundColor=default;endArrow=classicThin;endFill=1;endSize=4;" edge="1" parent="1" source="1gXEFUUZADcfgdOFNKRF-183" target="1gXEFUUZADcfgdOFNKRF-33">
          <mxGeometry relative="1" as="geometry" />
        </mxCell>
        <mxCell id="1gXEFUUZADcfgdOFNKRF-183" value="Low Pressure &lt;br&gt;Setup" style="rounded=1;whiteSpace=wrap;html=1;fontFamily=Times New Roman;shadow=0;textShadow=0;" vertex="1" parent="1">
          <mxGeometry x="320" y="740" width="100" height="40" as="geometry" />
        </mxCell>
        <mxCell id="1gXEFUUZADcfgdOFNKRF-187" value="&lt;font style=&quot;font-size: 24px;&quot;&gt;System Checkouts&lt;/font&gt;" style="text;html=1;align=center;verticalAlign=middle;whiteSpace=wrap;rounded=0;fontFamily=Times New Roman;fontSize=30;fontColor=default;labelBackgroundColor=none;" vertex="1" parent="1">
          <mxGeometry x="335" y="500" width="180" height="40" as="geometry" />
        </mxCell>
        <mxCell id="1gXEFUUZADcfgdOFNKRF-188" value="GoPros charging and recording" style="rounded=1;whiteSpace=wrap;html=1;fontFamily=Times New Roman;shadow=0;textShadow=0;strokeWidth=1.5;fontStyle=1;perimeterSpacing=0;" vertex="1" parent="1">
          <mxGeometry x="700" y="550" width="100" height="40" as="geometry" />
        </mxCell>
        <mxCell id="1gXEFUUZADcfgdOFNKRF-189" value="CCTVs positioned correctly" style="rounded=1;whiteSpace=wrap;html=1;fontFamily=Times New Roman;shadow=0;textShadow=0;strokeWidth=1.5;fontStyle=1;perimeterSpacing=0;" vertex="1" parent="1">
          <mxGeometry x="570" y="550" width="100" height="40" as="geometry" />
        </mxCell>
        <mxCell id="1gXEFUUZADcfgdOFNKRF-193" value="Actuators working" style="rounded=1;whiteSpace=wrap;html=1;fontFamily=Times New Roman;shadow=0;textShadow=0;strokeWidth=1.5;fontStyle=1;perimeterSpacing=0;" vertex="1" parent="1">
          <mxGeometry x="310" y="550" width="100" height="40" as="geometry" />
        </mxCell>
        <mxCell id="1gXEFUUZADcfgdOFNKRF-194" value="Fittings tightened" style="rounded=1;whiteSpace=wrap;html=1;fontFamily=Times New Roman;shadow=0;textShadow=0;strokeWidth=1.5;fontStyle=1;perimeterSpacing=0;" vertex="1" parent="1">
          <mxGeometry x="50" y="550" width="100" height="40" as="geometry" />
        </mxCell>
        <mxCell id="1gXEFUUZADcfgdOFNKRF-195" value="Correct config file" style="rounded=1;whiteSpace=wrap;html=1;fontFamily=Times New Roman;shadow=0;textShadow=0;strokeWidth=1.5;fontStyle=1;perimeterSpacing=0;" vertex="1" parent="1">
          <mxGeometry x="179.5" y="550" width="100" height="40" as="geometry" />
        </mxCell>
        <mxCell id="1gXEFUUZADcfgdOFNKRF-196" value="Sensors nominal" style="rounded=1;whiteSpace=wrap;html=1;fontFamily=Times New Roman;shadow=0;textShadow=0;strokeWidth=1.5;fontStyle=1;perimeterSpacing=0;" vertex="1" parent="1">
          <mxGeometry x="440" y="550" width="100" height="40" as="geometry" />
        </mxCell>
        <mxCell id="bEcZfPn2so2GR6TQJrhK-1" value="MFT" style="rounded=1;whiteSpace=wrap;html=1;fontFamily=Times New Roman;shadow=0;textShadow=0;" vertex="1" parent="1">
          <mxGeometry x="410" y="420" width="60" height="20" as="geometry" />
        </mxCell>
        <mxCell id="bEcZfPn2so2GR6TQJrhK-2" value="SVCCP" style="rounded=1;whiteSpace=wrap;html=1;fontFamily=Times New Roman;shadow=0;textShadow=0;" vertex="1" parent="1">
          <mxGeometry x="340" y="420" width="60" height="20" as="geometry" />
        </mxCell>
      </root>
    </mxGraphModel>
  </diagram>
</mxfile>
